<svg width="179" height="187" viewBox="0 0 179 187" fill="none" xmlns="http://www.w3.org/2000/svg">
<path d="M79 2.00001C68.8882 2 58.8755 3.99166 49.5334 7.86127C40.1913 11.7309 31.7029 17.4027 24.5528 24.5528C17.4027 31.7029 11.7309 40.1913 7.86128 49.5334C3.99166 58.8754 2 68.8882 2 79C2 89.1118 3.99166 99.1245 7.86127 108.467C11.7309 117.809 17.4027 126.297 24.5528 133.447C31.7029 140.597 40.1913 146.269 49.5334 150.139C58.8754 154.008 68.8882 156 79 156" stroke="#FEF1CC" stroke-width="3" stroke-dasharray="8 8"/>
<path d="M79 155C126 155 127 119 179 119" stroke="#FEF1CC" stroke-width="3" stroke-dasharray="8 8"/>
</svg>
