<svg width="200" height="145" viewBox="0 0 200 145" fill="none" xmlns="http://www.w3.org/2000/svg">
<rect x="0.75" y="0.875" width="198.5" height="110.396" rx="8.49198" fill="white"/>
<path d="M68.714 17.1558C68.7938 16.9943 68.8336 16.9135 68.8878 16.8877C68.9349 16.8652 68.9896 16.8652 69.0367 16.8877C69.0908 16.9135 69.1307 16.9943 69.2104 17.1558L69.9669 18.6885C69.9905 18.7361 70.0022 18.76 70.0194 18.7785C70.0347 18.7949 70.0529 18.8082 70.0732 18.8176C70.0961 18.8283 70.1225 18.8321 70.1751 18.8398L71.8673 19.0872C72.0455 19.1132 72.1346 19.1262 72.1758 19.1697C72.2117 19.2076 72.2286 19.2597 72.2218 19.3114C72.2139 19.3708 72.1494 19.4336 72.0204 19.5593L70.7963 20.7515C70.7582 20.7887 70.7391 20.8073 70.7268 20.8294C70.7159 20.8489 70.7089 20.8705 70.7062 20.8927C70.7032 20.9178 70.7077 20.9441 70.7167 20.9966L71.0055 22.6805C71.0359 22.8581 71.0512 22.947 71.0226 22.9997C70.9977 23.0455 70.9534 23.0777 70.9021 23.0872C70.8431 23.0981 70.7634 23.0562 70.6039 22.9723L69.091 22.1767C69.0439 22.1519 69.0203 22.1395 68.9955 22.1347C68.9735 22.1303 68.9509 22.1303 68.9289 22.1347C68.9041 22.1395 68.8805 22.1519 68.8334 22.1767L67.3206 22.9723C67.1611 23.0562 67.0813 23.0981 67.0223 23.0872C66.971 23.0777 66.9268 23.0455 66.9019 22.9997C66.8732 22.947 66.8885 22.8581 66.9189 22.6805L67.2078 20.9966C67.2168 20.9441 67.2213 20.9178 67.2182 20.8927C67.2155 20.8705 67.2085 20.8489 67.1976 20.8294C67.1853 20.8073 67.1662 20.7887 67.1281 20.7515L65.904 19.5593C65.775 19.4336 65.7105 19.3708 65.7027 19.3114C65.6958 19.2597 65.7127 19.2076 65.7486 19.1697C65.7898 19.1262 65.8789 19.1132 66.0571 19.0872L67.7493 18.8398C67.802 18.8321 67.8283 18.8283 67.8512 18.8176C67.8715 18.8082 67.8898 18.7949 67.905 18.7785C67.9222 18.76 67.934 18.7361 67.9575 18.6885L68.714 17.1558Z" stroke="#5358C7" stroke-width="0.778431" stroke-linecap="round" stroke-linejoin="round"/>
<path d="M79.1418 17.4837V18.2974H77.7251V22.613H76.7006V18.2974H75.2912V17.4837H79.1418ZM80.3959 18.588L81.493 21.3198L82.5102 18.588H83.6363L81.1733 24.5311H80.0399L80.9481 22.4968L79.2553 18.588H80.3959ZM82.5465 17.4982L80.8754 18.2829V17.5854L82.5465 16.7136V17.4982ZM84.9471 21.7557H86.9233V22.613H83.8282V21.7993L85.6809 19.4381H83.8718V18.588H86.8506V19.3945L84.9471 21.7557ZM86.451 17.6363L85.3758 18.2393L84.2932 17.6363V16.9461L85.3758 17.5636L86.451 16.9461V17.6363ZM89.1366 18.5372C89.4756 18.5372 89.7638 18.6171 90.0011 18.7769C90.2433 18.9368 90.4177 19.1523 90.5242 19.4235V17.2367H91.5414V22.613H90.5242V21.7703C90.4177 22.0415 90.2433 22.2595 90.0011 22.4241C89.7638 22.584 89.4756 22.6639 89.1366 22.6639C88.7975 22.6639 88.4924 22.5816 88.2211 22.4169C87.9499 22.2522 87.7368 22.0149 87.5818 21.7049C87.4316 21.39 87.3565 21.0219 87.3565 20.6005C87.3565 20.1791 87.4316 19.8135 87.5818 19.5035C87.7368 19.1886 87.9499 18.9489 88.2211 18.7842C88.4924 18.6195 88.7975 18.5372 89.1366 18.5372ZM89.4562 19.4308C89.1366 19.4308 88.8799 19.5349 88.6861 19.7432C88.4924 19.9515 88.3955 20.2373 88.3955 20.6005C88.3955 20.9638 88.4924 21.2496 88.6861 21.4578C88.8799 21.6613 89.1366 21.763 89.4562 21.763C89.7662 21.763 90.0205 21.6589 90.2191 21.4506C90.4225 21.2375 90.5242 20.9541 90.5242 20.6005C90.5242 20.2421 90.4225 19.9588 90.2191 19.7505C90.0205 19.5374 89.7662 19.4308 89.4562 19.4308ZM96.255 20.448C96.255 20.5497 96.2429 20.6659 96.2187 20.7967H93.269C93.2835 21.1551 93.3804 21.4191 93.5596 21.5886C93.7388 21.7581 93.9616 21.8429 94.228 21.8429C94.4653 21.8429 94.6615 21.7848 94.8165 21.6685C94.9763 21.5523 95.078 21.3949 95.1216 21.1963H96.2042C96.1509 21.4772 96.0371 21.7291 95.8627 21.9519C95.6883 22.1747 95.4631 22.3491 95.187 22.475C94.9158 22.6009 94.6131 22.6639 94.2788 22.6639C93.8865 22.6639 93.5378 22.5816 93.2326 22.4169C92.9275 22.2473 92.6902 22.0076 92.5206 21.6976C92.3511 21.3876 92.2663 21.0219 92.2663 20.6005C92.2663 20.1791 92.3511 19.8135 92.5206 19.5035C92.6902 19.1886 92.9275 18.9489 93.2326 18.7842C93.5378 18.6195 93.8865 18.5372 94.2788 18.5372C94.676 18.5372 95.0223 18.6195 95.3178 18.7842C95.6181 18.9489 95.8482 19.1765 96.008 19.4671C96.1727 19.7529 96.255 20.0798 96.255 20.448ZM95.2233 20.3462C95.2379 20.0169 95.1507 19.7674 94.9618 19.5979C94.7777 19.4284 94.5501 19.3436 94.2788 19.3436C94.0028 19.3436 93.7703 19.4284 93.5814 19.5979C93.3925 19.7674 93.2883 20.0169 93.269 20.3462H95.2233ZM99.3798 18.5299C99.8448 18.5299 100.215 18.6825 100.491 18.9876C100.767 19.2928 100.906 19.7214 100.906 20.2736V22.613H99.8884V20.3898C99.8884 20.0702 99.806 19.8231 99.6414 19.6488C99.4767 19.4696 99.2515 19.38 98.9657 19.38C98.6751 19.38 98.4426 19.4744 98.2682 19.6633C98.0938 19.8522 98.0067 20.1234 98.0067 20.477V22.613H96.9822V18.588H98.0067V19.3945C98.1132 19.1232 98.2876 18.9125 98.5298 18.7624C98.7768 18.6074 99.0601 18.5299 99.3798 18.5299ZM104.204 18.5299C104.669 18.5299 105.04 18.6825 105.316 18.9876C105.592 19.2928 105.73 19.7214 105.73 20.2736V22.613H104.713V20.3898C104.713 20.0702 104.631 19.8231 104.466 19.6488C104.301 19.4696 104.076 19.38 103.79 19.38C103.5 19.38 103.267 19.4744 103.093 19.6633C102.918 19.8522 102.831 20.1234 102.831 20.477V22.613H101.807V18.588H102.831V19.3945C102.938 19.1232 103.112 18.9125 103.354 18.7624C103.601 18.6074 103.885 18.5299 104.204 18.5299ZM108.208 18.5372C108.547 18.5372 108.838 18.6171 109.08 18.7769C109.322 18.9368 109.494 19.1523 109.596 19.4235V18.588H110.613V22.613H109.596V21.7703C109.494 22.0415 109.322 22.2595 109.08 22.4241C108.838 22.584 108.547 22.6639 108.208 22.6639C107.869 22.6639 107.564 22.5816 107.293 22.4169C107.021 22.2522 106.808 22.0149 106.653 21.7049C106.503 21.39 106.428 21.0219 106.428 20.6005C106.428 20.1791 106.503 19.8135 106.653 19.5035C106.808 19.1886 107.021 18.9489 107.293 18.7842C107.564 18.6195 107.869 18.5372 108.208 18.5372ZM108.528 19.4308C108.208 19.4308 107.951 19.5349 107.758 19.7432C107.564 19.9515 107.467 20.2373 107.467 20.6005C107.467 20.9638 107.564 21.2496 107.758 21.4578C107.951 21.6613 108.208 21.763 108.528 21.763C108.838 21.763 109.092 21.6589 109.291 21.4506C109.494 21.2375 109.596 20.9541 109.596 20.6005C109.596 20.2421 109.494 19.9588 109.291 19.7505C109.092 19.5374 108.838 19.4308 108.528 19.4308ZM109.625 17.4982L107.954 18.2829V17.5854L109.625 16.7136V17.4982ZM114.874 21.5886L115.892 18.588H116.981L115.492 22.613H114.242L112.753 18.588H113.85L114.874 21.5886ZM118.241 18.588L119.338 21.3198L120.355 18.588H121.481L119.018 24.5311H117.885L118.793 22.4968L117.1 18.588H118.241ZM120.392 17.4982L118.721 18.2829V17.5854L120.392 16.7136V17.4982ZM122.792 21.7557H124.768V22.613H121.673V21.7993L123.526 19.4381H121.717V18.588H124.696V19.3945L122.792 21.7557ZM127.156 21.5886L128.173 18.588H129.263L127.774 22.613H126.524L125.035 18.588H126.132L127.156 21.5886ZM131.409 18.5372C131.748 18.5372 132.039 18.6171 132.281 18.7769C132.523 18.9368 132.695 19.1523 132.797 19.4235V18.588H133.814V22.613H132.797V21.7703C132.695 22.0415 132.523 22.2595 132.281 22.4241C132.039 22.584 131.748 22.6639 131.409 22.6639C131.07 22.6639 130.765 22.5816 130.494 22.4169C130.222 22.2522 130.009 22.0149 129.854 21.7049C129.704 21.39 129.629 21.0219 129.629 20.6005C129.629 20.1791 129.704 19.8135 129.854 19.5035C130.009 19.1886 130.222 18.9489 130.494 18.7842C130.765 18.6195 131.07 18.5372 131.409 18.5372ZM131.729 19.4308C131.409 19.4308 131.152 19.5349 130.959 19.7432C130.765 19.9515 130.668 20.2373 130.668 20.6005C130.668 20.9638 130.765 21.2496 130.959 21.4578C131.152 21.6613 131.409 21.763 131.729 21.763C132.039 21.763 132.293 21.6589 132.492 21.4506C132.695 21.2375 132.797 20.9541 132.797 20.6005C132.797 20.2421 132.695 19.9588 132.492 19.7505C132.293 19.5374 132.039 19.4308 131.729 19.4308Z" fill="#5358C7"/>
<path d="M60.3261 38.229V47.9163H57.9664V42.1067L55.7999 47.9163H53.8956L51.7153 42.0929V47.9163H49.3556V38.229H52.1431L54.8616 44.9356L57.5524 38.229H60.3261ZM69.2816 43.942C69.2816 44.1628 69.2678 44.3928 69.2402 44.632H63.8998C63.9366 45.1104 64.0884 45.4784 64.3552 45.7359C64.6311 45.9843 64.9669 46.1085 65.3625 46.1085C65.9513 46.1085 66.3607 45.8601 66.5907 45.3634H69.1022C68.9734 45.8693 68.7388 46.3247 68.3984 46.7295C68.0672 47.1343 67.6486 47.4517 67.1426 47.6817C66.6367 47.9117 66.0709 48.0267 65.4453 48.0267C64.6909 48.0267 64.0194 47.8657 63.4306 47.5437C62.8418 47.2217 62.3818 46.7617 62.0506 46.1637C61.7195 45.5658 61.5539 44.8666 61.5539 44.0662C61.5539 43.2658 61.7149 42.5667 62.0368 41.9687C62.368 41.3707 62.828 40.9107 63.4168 40.5887C64.0056 40.2668 64.6817 40.1058 65.4453 40.1058C66.1905 40.1058 66.8529 40.2622 67.4324 40.5749C68.012 40.8877 68.4628 41.3339 68.7848 41.9135C69.116 42.4931 69.2816 43.1692 69.2816 43.942ZM66.8667 43.321C66.8667 42.9163 66.7287 42.5943 66.4527 42.3551C66.1767 42.1159 65.8317 41.9963 65.4177 41.9963C65.0221 41.9963 64.6863 42.1113 64.4104 42.3413C64.1436 42.5713 63.978 42.8979 63.9136 43.321H66.8667ZM67.0323 38.2428L63.7066 39.6366V38.0082L67.0323 36.4075V38.2428ZM70.0572 44.0524C70.0572 43.2612 70.2044 42.5667 70.4988 41.9687C70.8024 41.3707 71.2118 40.9107 71.727 40.5887C72.2422 40.2668 72.8171 40.1058 73.4519 40.1058C73.9579 40.1058 74.4179 40.2116 74.8319 40.4231C75.255 40.6347 75.5862 40.9199 75.8254 41.2787V37.7047H78.1851V47.9163H75.8254V46.8123C75.6046 47.1803 75.2872 47.4747 74.8733 47.6955C74.4685 47.9163 73.9947 48.0267 73.4519 48.0267C72.8171 48.0267 72.2422 47.8657 71.727 47.5437C71.2118 47.2125 70.8024 46.7479 70.4988 46.1499C70.2044 45.5428 70.0572 44.8436 70.0572 44.0524ZM75.8254 44.0662C75.8254 43.4774 75.6598 43.0128 75.3286 42.6725C75.0067 42.3321 74.6111 42.1619 74.1419 42.1619C73.6727 42.1619 73.2725 42.3321 72.9413 42.6725C72.6193 43.0036 72.4584 43.4636 72.4584 44.0524C72.4584 44.6412 72.6193 45.1104 72.9413 45.46C73.2725 45.8003 73.6727 45.9705 74.1419 45.9705C74.6111 45.9705 75.0067 45.8003 75.3286 45.46C75.6598 45.1196 75.8254 44.655 75.8254 44.0662ZM81.079 39.4158C80.665 39.4158 80.3247 39.2962 80.0579 39.057C79.8003 38.8086 79.6715 38.505 79.6715 38.1462C79.6715 37.7783 79.8003 37.4747 80.0579 37.2355C80.3247 36.9871 80.665 36.8629 81.079 36.8629C81.4838 36.8629 81.815 36.9871 82.0726 37.2355C82.3394 37.4747 82.4728 37.7783 82.4728 38.1462C82.4728 38.505 82.3394 38.8086 82.0726 39.057C81.815 39.2962 81.4838 39.4158 81.079 39.4158ZM82.252 40.2162V47.9163H79.8923V40.2162H82.252ZM83.4929 44.0524C83.4929 43.2612 83.6401 42.5667 83.9344 41.9687C84.238 41.3707 84.6474 40.9107 85.1626 40.5887C85.6778 40.2668 86.2528 40.1058 86.8875 40.1058C87.4303 40.1058 87.9041 40.2162 88.3089 40.4369C88.7229 40.6577 89.0402 40.9475 89.261 41.3063V40.2162H91.6207V47.9163H89.261V46.8261C89.031 47.1849 88.7091 47.4747 88.2951 47.6955C87.8903 47.9163 87.4165 48.0267 86.8737 48.0267C86.2482 48.0267 85.6778 47.8657 85.1626 47.5437C84.6474 47.2125 84.238 46.7479 83.9344 46.1499C83.6401 45.5428 83.4929 44.8436 83.4929 44.0524ZM89.261 44.0662C89.261 43.4774 89.0954 43.0128 88.7643 42.6725C88.4423 42.3321 88.0467 42.1619 87.5775 42.1619C87.1083 42.1619 86.7081 42.3321 86.3769 42.6725C86.055 43.0036 85.894 43.4636 85.894 44.0524C85.894 44.6412 86.055 45.1104 86.3769 45.46C86.7081 45.8003 87.1083 45.9705 87.5775 45.9705C88.0467 45.9705 88.4423 45.8003 88.7643 45.46C89.0954 45.1196 89.261 44.655 89.261 44.0662ZM89.4404 38.298L86.1148 39.6918V38.0634L89.4404 36.4627V38.298ZM95.783 44.0524C95.783 43.2612 95.9302 42.5667 96.2246 41.9687C96.5282 41.3707 96.9376 40.9107 97.4527 40.5887C97.9679 40.2668 98.5429 40.1058 99.1777 40.1058C99.7205 40.1058 100.194 40.2162 100.599 40.4369C101.013 40.6577 101.33 40.9475 101.551 41.3063V40.2162H103.911V47.9163H101.551V46.8261C101.321 47.1849 100.999 47.4747 100.585 47.6955C100.18 47.9163 99.7067 48.0267 99.1639 48.0267C98.5383 48.0267 97.9679 47.8657 97.4527 47.5437C96.9376 47.2125 96.5282 46.7479 96.2246 46.1499C95.9302 45.5428 95.783 44.8436 95.783 44.0524ZM101.551 44.0662C101.551 43.4774 101.386 43.0128 101.054 42.6725C100.732 42.3321 100.337 42.1619 99.8676 42.1619C99.3985 42.1619 98.9983 42.3321 98.6671 42.6725C98.3451 43.0036 98.1841 43.4636 98.1841 44.0524C98.1841 44.6412 98.3451 45.1104 98.6671 45.46C98.9983 45.8003 99.3985 45.9705 99.8676 45.9705C100.337 45.9705 100.732 45.8003 101.054 45.46C101.386 45.1196 101.551 44.655 101.551 44.0662ZM110.75 45.9705H114.09V47.9163H108.115V46.0395L111.316 42.1619H108.142V40.2162H114.021V42.0929L110.75 45.9705ZM114.919 44.0524C114.919 43.2612 115.066 42.5667 115.361 41.9687C115.664 41.3707 116.074 40.9107 116.589 40.5887C117.104 40.2668 117.679 40.1058 118.314 40.1058C118.82 40.1058 119.28 40.2116 119.694 40.4231C120.117 40.6347 120.448 40.9199 120.687 41.2787V37.7047H123.047V47.9163H120.687V46.8123C120.466 47.1803 120.149 47.4747 119.735 47.6955C119.33 47.9163 118.856 48.0267 118.314 48.0267C117.679 48.0267 117.104 47.8657 116.589 47.5437C116.074 47.2125 115.664 46.7479 115.361 46.1499C115.066 45.5428 114.919 44.8436 114.919 44.0524ZM120.687 44.0662C120.687 43.4774 120.522 43.0128 120.19 42.6725C119.868 42.3321 119.473 42.1619 119.004 42.1619C118.534 42.1619 118.134 42.3321 117.803 42.6725C117.481 43.0036 117.32 43.4636 117.32 44.0524C117.32 44.6412 117.481 45.1104 117.803 45.46C118.134 45.8003 118.534 45.9705 119.004 45.9705C119.473 45.9705 119.868 45.8003 120.19 45.46C120.522 45.1196 120.687 44.655 120.687 44.0662ZM127.114 41.4995C127.39 41.0763 127.735 40.7451 128.149 40.5059C128.563 40.2576 129.023 40.1334 129.529 40.1334V42.6311H128.88C128.291 42.6311 127.85 42.7599 127.555 43.0174C127.261 43.2658 127.114 43.7074 127.114 44.3422V47.9163H124.754V40.2162H127.114V41.4995ZM134.162 48.0267C133.407 48.0267 132.726 47.8657 132.119 47.5437C131.521 47.2217 131.048 46.7617 130.698 46.1637C130.358 45.5658 130.187 44.8666 130.187 44.0662C130.187 43.275 130.362 42.5805 130.712 41.9825C131.061 41.3753 131.54 40.9107 132.147 40.5887C132.754 40.2668 133.435 40.1058 134.189 40.1058C134.944 40.1058 135.624 40.2668 136.232 40.5887C136.839 40.9107 137.317 41.3753 137.667 41.9825C138.016 42.5805 138.191 43.275 138.191 44.0662C138.191 44.8574 138.012 45.5566 137.653 46.1637C137.303 46.7617 136.82 47.2217 136.204 47.5437C135.597 47.8657 134.916 48.0267 134.162 48.0267ZM134.162 45.9843C134.612 45.9843 134.994 45.8187 135.307 45.4876C135.629 45.1564 135.79 44.6826 135.79 44.0662C135.79 43.4498 135.634 42.9761 135.321 42.6449C135.017 42.3137 134.64 42.1481 134.189 42.1481C133.729 42.1481 133.347 42.3137 133.044 42.6449C132.74 42.9669 132.588 43.4406 132.588 44.0662C132.588 44.6826 132.736 45.1564 133.03 45.4876C133.334 45.8187 133.711 45.9843 134.162 45.9843ZM140.616 39.4158C140.202 39.4158 139.861 39.2962 139.595 39.057C139.337 38.8086 139.208 38.505 139.208 38.1462C139.208 37.7783 139.337 37.4747 139.595 37.2355C139.861 36.9871 140.202 36.8629 140.616 36.8629C141.021 36.8629 141.352 36.9871 141.609 37.2355C141.876 37.4747 142.01 37.7783 142.01 38.1462C142.01 38.505 141.876 38.8086 141.609 39.057C141.352 39.2962 141.021 39.4158 140.616 39.4158ZM141.803 48.9098C141.803 49.8574 141.563 50.5382 141.085 50.9521C140.607 51.3753 139.94 51.5869 139.084 51.5869H138.16V49.586H138.725C138.983 49.586 139.167 49.5354 139.277 49.4342C139.388 49.333 139.443 49.1674 139.443 48.9374V40.2162H141.803V48.9098ZM150.758 43.942C150.758 44.1628 150.744 44.3928 150.716 44.632H145.376C145.413 45.1104 145.565 45.4784 145.831 45.7359C146.107 45.9843 146.443 46.1085 146.839 46.1085C147.427 46.1085 147.837 45.8601 148.067 45.3634H150.578C150.45 45.8693 150.215 46.3247 149.875 46.7295C149.543 47.1343 149.125 47.4517 148.619 47.6817C148.113 47.9117 147.547 48.0267 146.921 48.0267C146.167 48.0267 145.496 47.8657 144.907 47.5437C144.318 47.2217 143.858 46.7617 143.527 46.1637C143.196 45.5658 143.03 44.8666 143.03 44.0662C143.03 43.2658 143.191 42.5667 143.513 41.9687C143.844 41.3707 144.304 40.9107 144.893 40.5887C145.482 40.2668 146.158 40.1058 146.921 40.1058C147.667 40.1058 148.329 40.2622 148.909 40.5749C149.488 40.8877 149.939 41.3339 150.261 41.9135C150.592 42.4931 150.758 43.1692 150.758 43.942ZM148.343 43.321C148.343 42.9163 148.205 42.5943 147.929 42.3551C147.653 42.1159 147.308 41.9963 146.894 41.9963C146.498 41.9963 146.162 42.1113 145.886 42.3413C145.62 42.5713 145.454 42.8979 145.39 43.321H148.343Z" fill="#1C1C1C"/>
<path d="M53.5821 57.3456H52.7588C52.7271 57.1696 52.6682 57.0148 52.582 56.8811C52.4958 56.7475 52.3903 56.634 52.2654 56.5408C52.1405 56.4475 52.0006 56.3772 51.8458 56.3297C51.6928 56.2822 51.5301 56.2584 51.3577 56.2584C51.0463 56.2584 50.7675 56.3367 50.5212 56.4933C50.2767 56.6498 50.0832 56.8794 49.9407 57.182C49.8 57.4845 49.7296 57.8539 49.7296 58.2902C49.7296 58.73 49.8 59.1011 49.9407 59.4037C50.0832 59.7063 50.2776 59.935 50.5239 60.0898C50.7701 60.2446 51.0472 60.322 51.355 60.322C51.5257 60.322 51.6875 60.2991 51.8406 60.2534C51.9954 60.2059 52.1352 60.1364 52.2601 60.0449C52.385 59.9534 52.4905 59.8417 52.5767 59.7098C52.6647 59.5761 52.7254 59.4231 52.7588 59.2507L53.5821 59.2533C53.5381 59.5189 53.4528 59.7634 53.3261 59.9869C53.2012 60.2085 53.0403 60.4002 52.8432 60.5621C52.648 60.7222 52.4246 60.8462 52.173 60.9341C51.9215 61.0221 51.647 61.0661 51.3498 61.0661C50.8818 61.0661 50.4649 60.9552 50.099 60.7336C49.7331 60.5102 49.4446 60.1909 49.2335 59.7758C49.0242 59.3606 48.9195 58.8654 48.9195 58.2902C48.9195 57.7132 49.0251 57.218 49.2362 56.8046C49.4473 56.3895 49.7358 56.0711 50.1017 55.8494C50.4676 55.626 50.8836 55.5143 51.3498 55.5143C51.6365 55.5143 51.9039 55.5557 52.1519 55.6383C52.4017 55.7193 52.626 55.8389 52.8248 55.9972C53.0236 56.1538 53.188 56.3455 53.3182 56.5724C53.4484 56.7976 53.5363 57.0553 53.5821 57.3456ZM50.8062 53.9443L51.3498 54.6515L51.8907 53.9443H52.6058V53.9839L51.677 55.1027H51.0199L50.0938 53.9839V53.9443H50.8062ZM55.6739 61.0819C55.417 61.0819 55.1848 61.0344 54.9773 60.9394C54.7697 60.8427 54.6052 60.7028 54.4838 60.5199C54.3642 60.3369 54.3044 60.1126 54.3044 59.847C54.3044 59.6183 54.3484 59.4301 54.4363 59.2823C54.5243 59.1346 54.643 59.0176 54.7926 58.9314C54.9421 58.8452 55.1092 58.7801 55.2939 58.7361C55.4786 58.6922 55.6668 58.6587 55.8586 58.6359C56.1013 58.6077 56.2984 58.5848 56.4496 58.5673C56.6009 58.5479 56.7109 58.5171 56.7795 58.4749C56.8481 58.4327 56.8824 58.3641 56.8824 58.2691V58.2506C56.8824 58.0202 56.8173 57.8416 56.6871 57.715C56.5587 57.5883 56.367 57.525 56.1119 57.525C55.8463 57.525 55.6369 57.5839 55.4839 57.7018C55.3326 57.8179 55.2279 57.9472 55.1699 58.0897L54.4284 57.9208C54.5164 57.6745 54.6448 57.4757 54.8137 57.3244C54.9843 57.1714 55.1804 57.0606 55.4021 56.992C55.6237 56.9216 55.8568 56.8864 56.1013 56.8864C56.2632 56.8864 56.4347 56.9058 56.6159 56.9445C56.7988 56.9814 56.9695 57.05 57.1278 57.1503C57.2879 57.2506 57.4189 57.3939 57.5209 57.5804C57.623 57.7651 57.674 58.0052 57.674 58.3007V60.9922H56.9035V60.4381H56.8718C56.8208 60.5401 56.7443 60.6404 56.6423 60.7389C56.5402 60.8374 56.4092 60.9192 56.2491 60.9843C56.089 61.0494 55.8973 61.0819 55.6739 61.0819ZM55.8454 60.4486C56.0635 60.4486 56.25 60.4055 56.4048 60.3193C56.5613 60.2331 56.6801 60.1205 56.761 59.9816C56.8437 59.8408 56.885 59.6904 56.885 59.5304V59.0079C56.8569 59.0361 56.8023 59.0624 56.7214 59.0871C56.6423 59.1099 56.5517 59.1302 56.4496 59.1478C56.3476 59.1636 56.2482 59.1785 56.1515 59.1926C56.0547 59.2049 55.9738 59.2155 55.9087 59.2243C55.7557 59.2436 55.6158 59.2762 55.4892 59.3219C55.3643 59.3676 55.264 59.4336 55.1884 59.5198C55.1145 59.6042 55.0775 59.7168 55.0775 59.8576C55.0775 60.0528 55.1497 60.2006 55.2939 60.3009C55.4382 60.3994 55.622 60.4486 55.8454 60.4486ZM61.7619 57.9287L61.0469 58.0554C61.0169 57.9639 60.9695 57.8768 60.9044 57.7941C60.841 57.7114 60.7548 57.6437 60.6458 57.5909C60.5367 57.5382 60.4004 57.5118 60.2368 57.5118C60.0134 57.5118 59.8269 57.5619 59.6774 57.6622C59.5279 57.7607 59.4531 57.8882 59.4531 58.0448C59.4531 58.1802 59.5032 58.2893 59.6035 58.372C59.7038 58.4547 59.8656 58.5224 60.089 58.5752L60.7329 58.7229C61.1058 58.8091 61.3837 58.9419 61.5667 59.1214C61.7496 59.3008 61.8411 59.5339 61.8411 59.8206C61.8411 60.0634 61.7707 60.2797 61.63 60.4697C61.491 60.658 61.2966 60.8057 61.0469 60.913C60.7988 61.0203 60.5112 61.074 60.184 61.074C59.7302 61.074 59.3599 60.9772 59.0731 60.7837C58.7864 60.5885 58.6105 60.3114 58.5454 59.9526L59.308 59.8365C59.3555 60.0352 59.4531 60.1856 59.6009 60.2877C59.7486 60.3879 59.9413 60.4381 60.1787 60.4381C60.4373 60.4381 60.644 60.3844 60.7988 60.2771C60.9536 60.168 61.031 60.0352 61.031 59.8787C61.031 59.752 60.9835 59.6456 60.8885 59.5594C60.7953 59.4732 60.6519 59.4081 60.4584 59.3641L59.7724 59.2137C59.3942 59.1275 59.1145 58.9903 58.9333 58.8021C58.7539 58.6139 58.6641 58.3755 58.6641 58.087C58.6641 57.8478 58.731 57.6384 58.8647 57.459C58.9984 57.2796 59.1831 57.1397 59.4188 57.0395C59.6545 56.9374 59.9245 56.8864 60.2289 56.8864C60.6669 56.8864 61.0117 56.9814 61.2632 57.1714C61.5148 57.3596 61.681 57.6121 61.7619 57.9287ZM65.464 58.5857V60.9922H64.675V56.9392H65.4323V57.5989H65.4825C65.5757 57.3843 65.7217 57.2119 65.9205 57.0817C66.121 56.9515 66.3734 56.8864 66.6778 56.8864C66.9539 56.8864 67.1958 56.9445 67.4034 57.0606C67.611 57.1749 67.7719 57.3456 67.8863 57.5725C68.0006 57.7994 68.0578 58.08 68.0578 58.4142V60.9922H67.2688V58.5092C67.2688 58.2154 67.1923 57.9859 67.0393 57.8205C66.8862 57.6534 66.676 57.5698 66.4086 57.5698C66.2257 57.5698 66.063 57.6094 65.9205 57.6886C65.7797 57.7677 65.668 57.8838 65.5854 58.0369C65.5044 58.1882 65.464 58.3711 65.464 58.5857ZM70.2954 61.0819C70.0385 61.0819 69.8063 61.0344 69.5988 60.9394C69.3912 60.8427 69.2267 60.7028 69.1053 60.5199C68.9857 60.3369 68.9259 60.1126 68.9259 59.847C68.9259 59.6183 68.9699 59.4301 69.0578 59.2823C69.1458 59.1346 69.2645 59.0176 69.4141 58.9314C69.5636 58.8452 69.7307 58.7801 69.9154 58.7361C70.1001 58.6922 70.2883 58.6587 70.4801 58.6359C70.7228 58.6077 70.9199 58.5848 71.0711 58.5673C71.2224 58.5479 71.3324 58.5171 71.401 58.4749C71.4696 58.4327 71.5039 58.3641 71.5039 58.2691V58.2506C71.5039 58.0202 71.4388 57.8416 71.3086 57.715C71.1802 57.5883 70.9885 57.525 70.7334 57.525C70.4678 57.525 70.2584 57.5839 70.1054 57.7018C69.9541 57.8179 69.8494 57.9472 69.7914 58.0897L69.0499 57.9208C69.1379 57.6745 69.2663 57.4757 69.4352 57.3244C69.6058 57.1714 69.8019 57.0606 70.0236 56.992C70.2452 56.9216 70.4783 56.8864 70.7228 56.8864C70.8847 56.8864 71.0562 56.9058 71.2374 56.9445C71.4203 56.9814 71.591 57.05 71.7493 57.1503C71.9094 57.2506 72.0404 57.3939 72.1424 57.5804C72.2445 57.7651 72.2955 58.0052 72.2955 58.3007V60.9922H71.525V60.4381H71.4933C71.4423 60.5401 71.3658 60.6404 71.2638 60.7389C71.1617 60.8374 71.0307 60.9192 70.8706 60.9843C70.7105 61.0494 70.5188 61.0819 70.2954 61.0819ZM70.4669 60.4486C70.685 60.4486 70.8715 60.4055 71.0263 60.3193C71.1828 60.2331 71.3016 60.1205 71.3825 59.9816C71.4652 59.8408 71.5065 59.6904 71.5065 59.5304V59.0079C71.4784 59.0361 71.4238 59.0624 71.3429 59.0871C71.2638 59.1099 71.1732 59.1302 71.0711 59.1478C70.9691 59.1636 70.8697 59.1785 70.773 59.1926C70.6762 59.2049 70.5953 59.2155 70.5302 59.2243C70.3772 59.2436 70.2373 59.2762 70.1107 59.3219C69.9858 59.3676 69.8855 59.4336 69.8099 59.5198C69.736 59.6042 69.699 59.7168 69.699 59.8576C69.699 60.0528 69.7712 60.2006 69.9154 60.3009C70.0597 60.3994 70.2435 60.4486 70.4669 60.4486ZM76.83 61.0713C76.5028 61.0713 76.2108 60.9878 75.954 60.8207C75.6989 60.6518 75.4984 60.4117 75.3524 60.1003C75.2081 59.7872 75.136 59.4116 75.136 58.9736C75.136 58.5356 75.209 58.1609 75.355 57.8495C75.5028 57.5382 75.7051 57.2998 75.9619 57.1345C76.2187 56.9691 76.5099 56.8864 76.8353 56.8864C77.0869 56.8864 77.2892 56.9286 77.4422 57.0131C77.597 57.0958 77.7166 57.1925 77.8011 57.3033C77.8873 57.4142 77.9541 57.5118 78.0016 57.5962H78.0491V55.5882H78.8381V60.9922H78.0676V60.3615H78.0016C77.9541 60.4477 77.8855 60.5463 77.7958 60.6571C77.7078 60.7679 77.5864 60.8647 77.4316 60.9473C77.2768 61.03 77.0763 61.0713 76.83 61.0713ZM77.0042 60.3985C77.2311 60.3985 77.4228 60.3387 77.5794 60.2191C77.7377 60.0977 77.8573 59.9297 77.9383 59.7151C78.0209 59.5005 78.0623 59.2507 78.0623 58.9657C78.0623 58.6842 78.0218 58.438 77.9409 58.2269C77.86 58.0158 77.7412 57.8513 77.5847 57.7334C77.4281 57.6156 77.2346 57.5566 77.0042 57.5566C76.7667 57.5566 76.5688 57.6182 76.4105 57.7414C76.2522 57.8645 76.1325 58.0325 76.0516 58.2453C75.9725 58.4582 75.9329 58.6983 75.9329 58.9657C75.9329 59.2366 75.9733 59.4802 76.0543 59.6966C76.1352 59.913 76.2548 60.0845 76.4131 60.2111C76.5732 60.336 76.7702 60.3985 77.0042 60.3985ZM81.6713 61.074C81.2914 61.074 80.9598 60.9869 80.6765 60.8128C80.3933 60.6386 80.1734 60.395 80.0169 60.0818C79.8603 59.7687 79.782 59.4028 79.782 58.9842C79.782 58.5637 79.8603 58.1961 80.0169 57.8812C80.1734 57.5663 80.3933 57.3218 80.6765 57.1477C80.9598 56.9735 81.2914 56.8864 81.6713 56.8864C82.0513 56.8864 82.3829 56.9735 82.6661 57.1477C82.9493 57.3218 83.1692 57.5663 83.3258 57.8812C83.4823 58.1961 83.5606 58.5637 83.5606 58.9842C83.5606 59.4028 83.4823 59.7687 83.3258 60.0818C83.1692 60.395 82.9493 60.6386 82.6661 60.8128C82.3829 60.9869 82.0513 61.074 81.6713 61.074ZM81.674 60.4117C81.9202 60.4117 82.1243 60.3466 82.2861 60.2164C82.448 60.0862 82.5676 59.913 82.645 59.6966C82.7241 59.4802 82.7637 59.2419 82.7637 58.9815C82.7637 58.7229 82.7241 58.4855 82.645 58.2691C82.5676 58.051 82.448 57.8759 82.2861 57.744C82.1243 57.6121 81.9202 57.5461 81.674 57.5461C81.4259 57.5461 81.2201 57.6121 81.0565 57.744C80.8947 57.8759 80.7742 58.051 80.695 58.2691C80.6176 58.4855 80.5789 58.7229 80.5789 58.9815C80.5789 59.2419 80.6176 59.4802 80.695 59.6966C80.7742 59.913 80.8947 60.0862 81.0565 60.2164C81.2201 60.3466 81.4259 60.4117 81.674 60.4117ZM85.1669 59.6174L85.1616 58.6543H85.2988L86.9137 56.9392H87.8583L86.0165 58.8918H85.8925L85.1669 59.6174ZM84.4413 60.9922V55.5882H85.2302V60.9922H84.4413ZM87.0008 60.9922L85.5495 59.066L86.0931 58.5145L87.9692 60.9922H87.0008ZM90.1177 61.074C89.7377 61.074 89.4061 60.9869 89.1229 60.8128C88.8397 60.6386 88.6198 60.395 88.4632 60.0818C88.3067 59.7687 88.2284 59.4028 88.2284 58.9842C88.2284 58.5637 88.3067 58.1961 88.4632 57.8812C88.6198 57.5663 88.8397 57.3218 89.1229 57.1477C89.4061 56.9735 89.7377 56.8864 90.1177 56.8864C90.4977 56.8864 90.8292 56.9735 91.1125 57.1477C91.3957 57.3218 91.6156 57.5663 91.7721 57.8812C91.9287 58.1961 92.007 58.5637 92.007 58.9842C92.007 59.4028 91.9287 59.7687 91.7721 60.0818C91.6156 60.395 91.3957 60.6386 91.1125 60.8128C90.8292 60.9869 90.4977 61.074 90.1177 61.074ZM90.1203 60.4117C90.3666 60.4117 90.5707 60.3466 90.7325 60.2164C90.8943 60.0862 91.014 59.913 91.0914 59.6966C91.1705 59.4802 91.2101 59.2419 91.2101 58.9815C91.2101 58.7229 91.1705 58.4855 91.0914 58.2691C91.014 58.051 90.8943 57.8759 90.7325 57.744C90.5707 57.6121 90.3666 57.5461 90.1203 57.5461C89.8723 57.5461 89.6665 57.6121 89.5029 57.744C89.341 57.8759 89.2205 58.051 89.1414 58.2691C89.064 58.4855 89.0253 58.7229 89.0253 58.9815C89.0253 59.2419 89.064 59.4802 89.1414 59.6966C89.2205 59.913 89.341 60.0862 89.5029 60.2164C89.6665 60.3466 89.8723 60.4117 90.1203 60.4117ZM93.6766 58.5857V60.9922H92.8876V56.9392H93.6449V57.5989H93.6951C93.7883 57.3843 93.9343 57.2119 94.1331 57.0817C94.3336 56.9515 94.586 56.8864 94.8904 56.8864C95.1666 56.8864 95.4084 56.9445 95.616 57.0606C95.8236 57.1749 95.9845 57.3456 96.0989 57.5725C96.2132 57.7994 96.2704 58.08 96.2704 58.4142V60.9922H95.4814V58.5092C95.4814 58.2154 95.4049 57.9859 95.2519 57.8205C95.0988 57.6534 94.8886 57.5698 94.6212 57.5698C94.4383 57.5698 94.2756 57.6094 94.1331 57.6886C93.9923 57.7677 93.8806 57.8838 93.798 58.0369C93.717 58.1882 93.6766 58.3711 93.6766 58.5857ZM99.0357 61.074C98.6434 61.074 98.3057 60.9852 98.0225 60.8075C97.741 60.6281 97.5246 60.3809 97.3734 60.066C97.2221 59.7511 97.1464 59.3905 97.1464 58.9842C97.1464 58.5725 97.2238 58.2093 97.3786 57.8944C97.5334 57.5778 97.7516 57.3306 98.033 57.1529C98.3145 56.9753 98.6461 56.8864 99.0278 56.8864C99.3356 56.8864 99.6101 56.9436 99.8511 57.0579C100.092 57.1705 100.286 57.3288 100.434 57.5329C100.584 57.737 100.673 57.9753 100.701 58.248H99.9329C99.8906 58.058 99.7939 57.8944 99.6426 57.7572C99.4931 57.62 99.2925 57.5514 99.041 57.5514C98.8211 57.5514 98.6285 57.6094 98.4631 57.7255C98.2995 57.8399 98.172 58.0035 98.0805 58.2163C97.989 58.4274 97.9433 58.6772 97.9433 58.9657C97.9433 59.2612 97.9882 59.5163 98.0779 59.7309C98.1676 59.9455 98.2943 60.1118 98.4579 60.2296C98.6232 60.3475 98.8176 60.4064 99.041 60.4064C99.1905 60.4064 99.326 60.3791 99.4473 60.3246C99.5705 60.2683 99.6734 60.1883 99.7561 60.0845C99.8405 59.9807 99.8994 59.8558 99.9329 59.7098H100.701C100.673 59.9719 100.587 60.2059 100.445 60.4117C100.302 60.6175 100.111 60.7793 99.8722 60.8972C99.6347 61.0151 99.3559 61.074 99.0357 61.074ZM98.479 55.2953L99.0225 56.0025L99.5635 55.2953H100.279V55.3349L99.3497 56.4537H98.6927L97.7665 55.3349V55.2953H98.479ZM103.291 61.074C102.892 61.074 102.548 60.9887 102.26 60.818C101.973 60.6456 101.751 60.4038 101.595 60.0924C101.44 59.7793 101.362 59.4125 101.362 58.9921C101.362 58.5769 101.44 58.211 101.595 57.8944C101.751 57.5778 101.969 57.3306 102.249 57.1529C102.53 56.9753 102.859 56.8864 103.236 56.8864C103.464 56.8864 103.686 56.9242 103.901 56.9999C104.115 57.0755 104.308 57.1943 104.479 57.3561C104.649 57.5179 104.784 57.7282 104.882 57.9867C104.981 58.2436 105.03 58.5558 105.03 58.9235V59.2032H101.808V58.6121H104.257C104.257 58.4045 104.215 58.2207 104.13 58.0606C104.046 57.8988 103.927 57.7713 103.774 57.678C103.623 57.5848 103.445 57.5382 103.241 57.5382C103.019 57.5382 102.826 57.5927 102.661 57.7018C102.497 57.8091 102.37 57.9498 102.281 58.124C102.193 58.2964 102.149 58.4837 102.149 58.686V59.1478C102.149 59.4187 102.196 59.6491 102.291 59.8391C102.388 60.0291 102.522 60.1742 102.695 60.2745C102.867 60.373 103.069 60.4222 103.299 60.4222C103.449 60.4222 103.585 60.4011 103.708 60.3589C103.831 60.3149 103.938 60.2498 104.027 60.1636C104.117 60.0775 104.186 59.971 104.233 59.8444L104.98 59.9789C104.92 60.1988 104.813 60.3915 104.658 60.5568C104.505 60.7204 104.312 60.8479 104.08 60.9394C103.85 61.0291 103.587 61.074 103.291 61.074ZM106.694 58.5857V60.9922H105.905V56.9392H106.663V57.5989H106.713C106.806 57.3843 106.952 57.2119 107.151 57.0817C107.351 56.9515 107.604 56.8864 107.908 56.8864C108.184 56.8864 108.426 56.9445 108.634 57.0606C108.841 57.1749 109.002 57.3456 109.117 57.5725C109.231 57.7994 109.288 58.08 109.288 58.4142V60.9922H108.499V58.5092C108.499 58.2154 108.423 57.9859 108.27 57.8205C108.117 57.6534 107.906 57.5698 107.639 57.5698C107.456 57.5698 107.293 57.6094 107.151 57.6886C107.01 57.7677 106.899 57.8838 106.816 58.0369C106.735 58.1882 106.694 58.3711 106.694 58.5857ZM110.346 60.9922V56.9392H111.135V60.9922H110.346ZM110.745 56.3138C110.608 56.3138 110.49 56.2681 110.391 56.1766C110.294 56.0834 110.246 55.9726 110.246 55.8442C110.246 55.714 110.294 55.6032 110.391 55.5117C110.49 55.4184 110.608 55.3718 110.745 55.3718C110.882 55.3718 110.999 55.4184 111.096 55.5117C111.194 55.6032 111.244 55.714 111.244 55.8442C111.244 55.9726 111.194 56.0834 111.096 56.1766C110.999 56.2681 110.882 56.3138 110.745 56.3138ZM113.944 61.074C113.544 61.074 113.2 60.9887 112.912 60.818C112.625 60.6456 112.403 60.4038 112.247 60.0924C112.092 59.7793 112.015 59.4125 112.015 58.9921C112.015 58.5769 112.092 58.211 112.247 57.8944C112.403 57.5778 112.622 57.3306 112.901 57.1529C113.183 56.9753 113.512 56.8864 113.888 56.8864C114.117 56.8864 114.338 56.9242 114.553 56.9999C114.768 57.0755 114.96 57.1943 115.131 57.3561C115.302 57.5179 115.436 57.7282 115.535 57.9867C115.633 58.2436 115.682 58.5558 115.682 58.9235V59.2032H112.461V58.6121H114.909C114.909 58.4045 114.867 58.2207 114.783 58.0606C114.698 57.8988 114.579 57.7713 114.426 57.678C114.275 57.5848 114.097 57.5382 113.893 57.5382C113.672 57.5382 113.478 57.5927 113.313 57.7018C113.149 57.8091 113.023 57.9498 112.933 58.124C112.845 58.2964 112.801 58.4837 112.801 58.686V59.1478C112.801 59.4187 112.848 59.6491 112.943 59.8391C113.04 60.0291 113.175 60.1742 113.347 60.2745C113.52 60.373 113.721 60.4222 113.951 60.4222C114.101 60.4222 114.237 60.4011 114.36 60.3589C114.484 60.3149 114.59 60.2498 114.68 60.1636C114.769 60.0775 114.838 59.971 114.886 59.8444L115.632 59.9789C115.572 60.1988 115.465 60.3915 115.31 60.5568C115.157 60.7204 114.965 60.8479 114.732 60.9394C114.502 61.0291 114.239 61.074 113.944 61.074ZM117.078 61.0423C116.933 61.0423 116.809 60.9913 116.706 60.8893C116.602 60.7855 116.55 60.6606 116.55 60.5146C116.55 60.3703 116.602 60.2472 116.706 60.1452C116.809 60.0414 116.933 59.9895 117.078 59.9895C117.222 59.9895 117.346 60.0414 117.45 60.1452C117.553 60.2472 117.605 60.3703 117.605 60.5146C117.605 60.6113 117.581 60.7002 117.531 60.7811C117.484 60.8603 117.421 60.9236 117.341 60.9711C117.262 61.0186 117.174 61.0423 117.078 61.0423ZM117.078 58.0923C116.933 58.0923 116.809 58.0404 116.706 57.9366C116.602 57.8328 116.55 57.7088 116.55 57.5646C116.55 57.4203 116.602 57.2972 116.706 57.1951C116.809 57.0914 116.933 57.0395 117.078 57.0395C117.222 57.0395 117.346 57.0914 117.45 57.1951C117.553 57.2972 117.605 57.4203 117.605 57.5646C117.605 57.6613 117.581 57.7501 117.531 57.8311C117.484 57.9102 117.421 57.9736 117.341 58.0211C117.262 58.0685 117.174 58.0923 117.078 58.0923ZM122.499 61.0661C122.137 61.0661 121.813 61.0036 121.528 60.8787C121.245 60.7538 121.021 60.5806 120.856 60.3589C120.692 60.1355 120.604 59.8769 120.592 59.5831H121.42C121.431 59.7432 121.484 59.8822 121.581 60C121.68 60.1162 121.808 60.2059 121.966 60.2692C122.125 60.3325 122.301 60.3642 122.494 60.3642C122.707 60.3642 122.895 60.3272 123.059 60.2534C123.224 60.1795 123.353 60.0766 123.447 59.9446C123.54 59.8109 123.587 59.657 123.587 59.4829C123.587 59.3017 123.54 59.1425 123.447 59.0053C123.355 58.8663 123.221 58.7572 123.043 58.6781C122.867 58.5989 122.654 58.5593 122.404 58.5593H121.948V57.8944H122.404C122.605 57.8944 122.781 57.8583 122.932 57.7862C123.085 57.7141 123.205 57.6138 123.291 57.4854C123.377 57.3552 123.42 57.2031 123.42 57.0289C123.42 56.8618 123.382 56.7167 123.307 56.5935C123.233 56.4686 123.127 56.371 122.99 56.3006C122.855 56.2303 122.695 56.1951 122.51 56.1951C122.334 56.1951 122.17 56.2276 122.017 56.2927C121.865 56.3561 121.742 56.4475 121.647 56.5671C121.552 56.685 121.501 56.8266 121.494 56.992H120.705C120.714 56.7 120.8 56.4431 120.964 56.2215C121.129 55.9998 121.347 55.8266 121.618 55.7017C121.889 55.5768 122.19 55.5143 122.521 55.5143C122.867 55.5143 123.166 55.582 123.418 55.7175C123.671 55.8512 123.866 56.0297 124.003 56.2531C124.142 56.4766 124.211 56.7211 124.209 56.9867C124.211 57.2893 124.127 57.5461 123.956 57.7572C123.787 57.9683 123.562 58.1099 123.28 58.182V58.2242C123.639 58.2788 123.917 58.4212 124.114 58.6517C124.313 58.8821 124.412 59.168 124.41 59.5093C124.412 59.8065 124.329 60.0731 124.162 60.3088C123.996 60.5445 123.77 60.7301 123.484 60.8655C123.197 60.9992 122.869 61.0661 122.499 61.0661ZM128.173 58.5857V60.9922H127.384V55.5882H128.163V57.5989H128.213C128.308 57.3807 128.453 57.2075 128.648 57.079C128.843 56.9506 129.098 56.8864 129.413 56.8864C129.691 56.8864 129.934 56.9436 130.142 57.0579C130.351 57.1723 130.513 57.3429 130.627 57.5698C130.743 57.795 130.801 58.0765 130.801 58.4142V60.9922H130.012V58.5092C130.012 58.2119 129.936 57.9815 129.783 57.8179C129.63 57.6525 129.417 57.5698 129.144 57.5698C128.958 57.5698 128.791 57.6094 128.643 57.6886C128.497 57.7677 128.382 57.8838 128.297 58.0369C128.215 58.1882 128.173 58.3711 128.173 58.5857ZM133.561 61.074C133.181 61.074 132.85 60.9869 132.567 60.8128C132.283 60.6386 132.063 60.395 131.907 60.0818C131.75 59.7687 131.672 59.4028 131.672 58.9842C131.672 58.5637 131.75 58.1961 131.907 57.8812C132.063 57.5663 132.283 57.3218 132.567 57.1477C132.85 56.9735 133.181 56.8864 133.561 56.8864C133.941 56.8864 134.273 56.9735 134.556 57.1477C134.839 57.3218 135.059 57.5663 135.216 57.8812C135.372 58.1961 135.451 58.5637 135.451 58.9842C135.451 59.4028 135.372 59.7687 135.216 60.0818C135.059 60.395 134.839 60.6386 134.556 60.8128C134.273 60.9869 133.941 61.074 133.561 61.074ZM133.564 60.4117C133.81 60.4117 134.014 60.3466 134.176 60.2164C134.338 60.0862 134.458 59.913 134.535 59.6966C134.614 59.4802 134.654 59.2419 134.654 58.9815C134.654 58.7229 134.614 58.4855 134.535 58.2691C134.458 58.051 134.338 57.8759 134.176 57.744C134.014 57.6121 133.81 57.5461 133.564 57.5461C133.316 57.5461 133.11 57.6121 132.947 57.744C132.785 57.8759 132.664 58.051 132.585 58.2691C132.508 58.4855 132.469 58.7229 132.469 58.9815C132.469 59.2419 132.508 59.4802 132.585 59.6966C132.664 59.913 132.785 60.0862 132.947 60.2164C133.11 60.3466 133.316 60.4117 133.564 60.4117ZM137.849 61.0713C137.521 61.0713 137.229 60.9878 136.972 60.8207C136.717 60.6518 136.517 60.4117 136.371 60.1003C136.227 59.7872 136.154 59.4116 136.154 58.9736C136.154 58.5356 136.227 58.1609 136.373 57.8495C136.521 57.5382 136.724 57.2998 136.98 57.1345C137.237 56.9691 137.528 56.8864 137.854 56.8864C138.105 56.8864 138.308 56.9286 138.461 57.0131C138.615 57.0958 138.735 57.1925 138.82 57.3033C138.906 57.4142 138.973 57.5118 139.02 57.5962H139.068V55.5882H139.857V60.9922H139.086V60.3615H139.02C138.973 60.4477 138.904 60.5463 138.814 60.6571C138.726 60.7679 138.605 60.8647 138.45 60.9473C138.295 61.03 138.095 61.0713 137.849 61.0713ZM138.023 60.3985C138.25 60.3985 138.441 60.3387 138.598 60.2191C138.756 60.0977 138.876 59.9297 138.957 59.7151C139.039 59.5005 139.081 59.2507 139.081 58.9657C139.081 58.6842 139.04 58.438 138.959 58.2269C138.878 58.0158 138.76 57.8513 138.603 57.7334C138.447 57.6156 138.253 57.5566 138.023 57.5566C137.785 57.5566 137.587 57.6182 137.429 57.7414C137.271 57.8645 137.151 58.0325 137.07 58.2453C136.991 58.4582 136.951 58.6983 136.951 58.9657C136.951 59.2366 136.992 59.4802 137.073 59.6966C137.154 59.913 137.273 60.0845 137.432 60.2111C137.592 60.336 137.789 60.3985 138.023 60.3985ZM140.983 60.9922V56.9392H141.772V60.9922H140.983ZM141.381 56.3138C141.244 56.3138 141.126 56.2681 141.027 56.1766C140.931 56.0834 140.882 55.9726 140.882 55.8442C140.882 55.714 140.931 55.6032 141.027 55.5117C141.126 55.4184 141.244 55.3718 141.381 55.3718C141.518 55.3718 141.635 55.4184 141.732 55.5117C141.83 55.6032 141.88 55.714 141.88 55.8442C141.88 55.9726 141.83 56.0834 141.732 56.1766C141.635 56.2681 141.518 56.3138 141.381 56.3138ZM143.622 58.5857V60.9922H142.833V56.9392H143.59V57.5989H143.64C143.734 57.3843 143.88 57.2119 144.078 57.0817C144.279 56.9515 144.531 56.8864 144.836 56.8864C145.112 56.8864 145.354 56.9445 145.561 57.0606C145.769 57.1749 145.93 57.3456 146.044 57.5725C146.159 57.7994 146.216 58.08 146.216 58.4142V60.9922H145.427V58.5092C145.427 58.2154 145.35 57.9859 145.197 57.8205C145.044 57.6534 144.834 57.5698 144.567 57.5698C144.384 57.5698 144.221 57.6094 144.078 57.6886C143.938 57.7677 143.826 57.8838 143.743 58.0369C143.662 58.1882 143.622 58.3711 143.622 58.5857ZM147.627 62.5121C147.51 62.5121 147.402 62.5024 147.305 62.483C147.209 62.4654 147.137 62.4461 147.089 62.425L147.279 61.7785C147.423 61.8172 147.552 61.8339 147.664 61.8286C147.777 61.8234 147.876 61.7811 147.963 61.702C148.05 61.6228 148.128 61.4935 148.195 61.3141L148.292 61.045L146.809 56.9392H147.654L148.68 60.0845H148.722L149.749 56.9392H150.596L148.926 61.5331C148.848 61.7442 148.75 61.9228 148.63 62.0688C148.51 62.2165 148.368 62.3274 148.203 62.4012C148.037 62.4751 147.846 62.5121 147.627 62.5121Z" fill="#1C1C1C"/>
<rect x="47.5625" y="71.2954" width="104.875" height="5.53853" rx="2.76927" fill="#DDDEF4"/>
<rect x="47.5625" y="71.2954" width="76.2457" height="5.53853" rx="2.76927" fill="#3CAD9A"/>
<rect x="71" y="86.625" width="57.5" height="57.5" rx="28.75" fill="#4B4FB3"/>
<path d="M99.0346 106.828C99.2651 106.361 99.3803 106.128 99.5368 106.053C99.6729 105.988 99.831 105.988 99.9672 106.053C100.124 106.128 100.239 106.361 100.469 106.828L102.656 111.258C102.724 111.396 102.758 111.465 102.808 111.519C102.852 111.566 102.905 111.604 102.963 111.632C103.03 111.662 103.106 111.674 103.258 111.696L108.149 112.411C108.664 112.486 108.922 112.524 109.041 112.649C109.144 112.759 109.193 112.909 109.173 113.059C109.151 113.231 108.964 113.412 108.591 113.775L105.053 117.221C104.943 117.329 104.888 117.383 104.852 117.446C104.821 117.503 104.801 117.565 104.793 117.63C104.784 117.702 104.797 117.778 104.823 117.93L105.658 122.797C105.746 123.31 105.79 123.567 105.707 123.719C105.635 123.852 105.507 123.945 105.359 123.972C105.189 124.004 104.958 123.883 104.497 123.64L100.124 121.341C99.9881 121.269 99.92 121.233 99.8482 121.219C99.7847 121.207 99.7193 121.207 99.6557 121.219C99.584 121.233 99.5159 121.269 99.3796 121.341L95.0069 123.64C94.5459 123.883 94.3154 124.004 94.1449 123.972C93.9966 123.945 93.8687 123.852 93.7967 123.719C93.714 123.567 93.758 123.31 93.846 122.797L94.6808 117.93C94.7069 117.778 94.7199 117.702 94.7111 117.63C94.7033 117.565 94.6831 117.503 94.6516 117.446C94.616 117.383 94.5608 117.329 94.4505 117.221L90.9125 113.775C90.5396 113.412 90.3532 113.231 90.3305 113.059C90.3107 112.909 90.3595 112.759 90.4632 112.649C90.5824 112.524 90.8399 112.486 91.355 112.411L96.2463 111.696C96.3984 111.674 96.4744 111.662 96.5407 111.632C96.5993 111.604 96.6521 111.566 96.6961 111.519C96.7459 111.465 96.7799 111.396 96.8479 111.258L99.0346 106.828Z" stroke="white" stroke-width="2" stroke-linecap="round" stroke-linejoin="round"/>
</svg>
