<svg width="200" height="199" viewBox="0 0 200 199" fill="none" xmlns="http://www.w3.org/2000/svg">
<mask id="mask0_775_19727" style="mask-type:alpha" maskUnits="userSpaceOnUse" x="0" y="0" width="200" height="199">
<circle cx="100.001" cy="99.5" r="99.4736" fill="#D9D9D9"/>
</mask>
<g mask="url(#mask0_775_19727)">
<path d="M26.259 87.6844C27.759 82.3544 31.189 77.7544 35.159 73.8944C43.389 65.8844 54.299 60.8044 65.649 59.2344C77.089 57.6644 87.049 59.7844 96.529 66.3844C101.999 70.1844 106.719 75.0644 110.289 80.6944C114.609 87.5044 117.259 95.9244 115.039 103.664C113.099 110.404 107.679 115.734 101.439 118.934C97.569 120.924 93.399 122.174 89.119 123.054C89.269 123.614 89.419 124.104 89.579 124.464C91.739 129.524 94.869 134.174 98.779 138.044C92.509 135.444 86.959 131.124 82.919 125.664C82.569 125.194 82.239 124.714 81.919 124.214C81.679 124.244 81.449 124.274 81.209 124.304C72.559 125.374 63.719 125.804 55.159 124.134C46.599 122.464 38.279 118.524 32.519 111.984C26.759 105.444 23.899 96.0844 26.259 87.6844Z" fill="#D9D9FF"/>
<path d="M147.166 210.87C147.566 218.55 146.576 224.8 141.176 230.21C135.786 235.63 125.796 239.69 118.856 236.56C112.756 233.81 108.786 227.41 107.626 220.75C106.466 214.09 107.796 207.22 110.006 200.84C111.586 196.28 113.676 191.8 116.916 188.25C120.166 184.71 124.716 182.17 129.486 182.21C135.656 182.26 138.826 186.21 141.176 191.34C144.086 197.69 146.796 203.72 147.166 210.86V210.87Z" fill="#5D5DC2"/>
<path d="M82.7963 178.83C84.3263 179.32 85.9363 179.7 87.5463 179.56C89.1663 179.42 90.8063 178.68 91.6563 177.36C92.4963 176.06 92.4463 174.38 91.8963 172.97C91.3363 171.56 90.3363 170.36 89.3163 169.21C83.9563 163.17 62.0263 151.62 59.5763 151.4C56.7363 151.15 56.1763 156.08 53.9863 157.86C53.9863 157.86 77.7963 177.22 82.7863 178.82L82.7963 178.83Z" fill="#FFBC91"/>
<path d="M109.015 162.54C105.905 166.18 89.7953 183.16 83.6353 178.92C77.7653 174.88 91.9453 156.56 93.7653 152.81C94.3353 151.62 94.9153 150.42 95.5153 149.21C100.245 153.33 105.615 156.74 111.685 159.25C110.815 160.37 109.925 161.48 109.015 162.55V162.54Z" fill="#FFBC91"/>
<path d="M95.2168 146.6C97.8468 142.79 100.227 139.46 100.697 138.94C102.997 136.37 110.997 129.33 114.867 132.62C115.437 133.1 115.547 133.93 115.577 134.68C115.787 141.24 111.947 146.85 110.567 153.06C110.117 155.1 108.547 164.99 107.197 169.47C102.347 168.49 92.0868 160.9 87.3368 159.23C86.8268 159.05 91.2968 152.28 95.2168 146.6Z" fill="#FFDA94"/>
<path d="M102.035 202.08C102.535 209.25 149.635 206.26 151.435 203.43C151.435 203.43 150.945 197.27 150.695 194.09C149.175 175.34 146.505 168.49 145.475 154.24C145.265 151.37 144.195 137.49 142.835 134.95C141.235 131.98 135.965 130.53 132.835 129.28C129.855 128.09 126.835 130.7 123.645 130.35C116.665 129.6 110.715 131.36 107.545 136.61C104.075 142.36 101.945 200.55 102.055 202.07L102.035 202.08Z" fill="#FFDA94"/>
<path d="M102.666 192.34C102.816 179.16 103.736 166 105.416 152.93" stroke="#E5B56A" stroke-width="1.08" stroke-miterlimit="10"/>
<path d="M132.227 148.83C133.457 154.37 135.197 159.79 137.417 165.01C137.637 165.52 137.907 166.08 138.427 166.28C138.757 166.41 139.137 166.37 139.487 166.31C145.477 165.41 151.147 162.47 155.317 158.09" stroke="#E5B56A" stroke-width="1.08" stroke-miterlimit="10"/>
<path d="M114.986 142.89C117.676 144.63 121.126 145.15 124.206 144.27C127.286 143.39 129.946 141.14 131.316 138.25" stroke="#E5B56A" stroke-width="1.08" stroke-miterlimit="10"/>
<path d="M88.0156 159.64C91.2556 161.43 94.5056 163.23 97.7456 165.02" stroke="#E5B56A" stroke-width="1.08" stroke-miterlimit="10"/>
<path d="M93.3965 156.61C96.0965 157.96 98.6565 159.6 101.016 161.48" stroke="#E5B56A" stroke-width="1.08" stroke-miterlimit="10"/>
<path d="M142.727 160.71C145.847 159.36 148.667 157.33 150.947 154.81" stroke="#E5B56A" stroke-width="1.08" stroke-miterlimit="10"/>
<path d="M116.896 128.76C115.766 133.07 116.896 135.24 118.606 136.75C120.456 138.39 123.856 143.3 129.426 135.75C130.356 134.49 131.456 133.3 131.936 131.8C132.476 130.11 132.266 128.28 132.046 126.52C131.696 123.71 131.336 120.86 130.156 118.29C128.976 115.72 126.826 113.44 124.066 112.83C121.416 112.24 117.346 113.79 117.406 116.93C117.446 118.8 118.026 120.57 117.946 122.48C117.856 124.6 117.436 126.7 116.896 128.76Z" fill="#FFBC91"/>
<path d="M117.465 126.92C117.555 125.01 116.935 123.24 116.895 121.37C116.825 118.23 121.135 116.68 123.955 117.27C126.875 117.88 129.365 117.49 130.615 120.05C131.375 121.62 131.605 125.98 131.915 127.69C126.655 130.68 119.735 131.96 117.125 129.83C117.295 128.87 117.425 127.9 117.465 126.92Z" fill="#FFA56B"/>
<path d="M159.456 165.56C160.906 175.29 160.586 185.18 160.086 195C160.016 196.34 159.936 197.71 159.446 198.96C158.956 200.21 157.956 201.34 156.646 201.64C155.176 201.97 153.626 201.18 152.646 200.03C151.666 198.88 151.136 197.42 150.636 196C147.976 188.54 145.316 181.09 142.656 173.63C140.836 168.53 139.006 163.39 138.236 158.03C137.466 152.67 137.826 147.01 140.236 142.16C141.086 140.45 142.236 138.79 143.916 137.88C148.426 135.41 150.146 140.47 152.016 143.59C154.556 147.85 156.416 152.49 157.726 157.26C158.476 159.99 159.046 162.76 159.466 165.56H159.456Z" fill="#FFBC91"/>
<path d="M153.206 189.7C154.946 190.61 156.676 191.83 157.726 193.81C158.776 195.79 158.916 198.69 157.616 200.42C156.276 202.2 154.046 202.12 152.116 201.82C147.776 201.15 122.936 202.11 122.486 200.91C121.716 198.84 119.096 196.5 119.566 194.11C119.566 194.11 148.046 186.98 153.206 189.69V189.7Z" fill="#FFBC91"/>
<path d="M134.607 137.02C135.117 135.9 135.787 134.86 136.637 133.94C139.107 131.26 142.027 132.15 144.487 134.35C150.487 139.72 156.267 146.4 158.697 154.21C158.947 155.01 159.167 155.81 159.387 156.62C153.747 159.98 144.937 165.09 138.807 166.41C137.167 166.76 133.597 151.51 133.387 149.96C132.847 145.86 132.787 140.95 134.597 137.02H134.607Z" fill="#FFDA94"/>
<path d="M125.386 82.7797C129.276 83.0897 133.166 84.5597 135.956 87.3697C139.876 91.3197 141.156 97.3097 141.236 102.96C141.296 107.16 137.686 107.65 136.866 111.75C133.946 126.36 124.096 127.86 120.036 127.41C116.116 126.97 111.666 124.27 109.686 120.62C106.916 115.52 107.406 107.02 107.876 101.19C108.206 97.1197 109.256 93.1397 111.146 89.5397C111.916 88.0697 112.796 86.4797 113.796 85.1497C114.756 83.8697 116.446 83.6797 117.896 83.3697C120.356 82.8397 122.886 82.5797 125.396 82.7797H125.386Z" fill="#FFBC91"/>
<path d="M128.625 104.48C128.435 103.89 128.115 103.34 127.695 102.88C127.175 102.31 126.515 101.87 125.785 101.62" stroke="#38386B" stroke-width="1.64" stroke-linecap="round" stroke-linejoin="round"/>
<path d="M113.936 102.31C112.886 102.54 111.976 103.32 111.586 104.32" stroke="#38386B" stroke-width="1.64" stroke-linecap="round" stroke-linejoin="round"/>
<path d="M124.456 110.23C125.351 110.23 126.076 109.504 126.076 108.61C126.076 107.715 125.351 106.99 124.456 106.99C123.561 106.99 122.836 107.715 122.836 108.61C122.836 109.504 123.561 110.23 124.456 110.23Z" fill="#32324D"/>
<path d="M114.155 110C115.05 110 115.775 109.274 115.775 108.38C115.775 107.485 115.05 106.76 114.155 106.76C113.26 106.76 112.535 107.485 112.535 108.38C112.535 109.274 113.26 110 114.155 110Z" fill="#32324D"/>
<path d="M131.915 122.76C134.965 118.54 136.915 112.01 134.825 107.38C134.605 106.89 132.675 103.94 132.345 102.02C131.715 98.3497 131.595 96.0697 131.595 96.0697C126.435 90.5097 106.245 99.7797 104.415 90.7797C103.985 88.6497 104.865 86.5197 106.455 85.0397C109.045 82.6397 112.435 81.7597 115.835 82.0497C119.445 82.3497 123.765 82.0297 126.345 81.0797C128.965 80.1297 132.715 79.8397 135.215 81.0797C138.535 82.7197 139.085 86.5297 139.085 86.5297C142.405 87.2597 143.005 91.5697 143.425 93.5497C143.845 95.5297 142.905 102.02 142.765 104.03C141.815 117.36 133.935 121.2 131.925 122.76H131.915Z" fill="#38386B"/>
<path d="M122.924 118.27C122.654 119.24 121.894 120.05 120.954 120.41C120.014 120.76 118.904 120.64 118.064 120.08" stroke="#FF9D5E" stroke-width="0.82" stroke-linecap="round" stroke-linejoin="round"/>
<path d="M118.345 104.04C119.245 107.19 118.835 110.69 117.245 113.55C117.045 113.9 116.835 114.25 116.735 114.64C116.635 115.03 116.685 115.48 116.955 115.78C117.225 116.08 119.625 116.13 119.885 115.82" stroke="#FF9D5E" stroke-width="0.82" stroke-linecap="round" stroke-linejoin="round"/>
<path d="M136.695 104.33C137.485 104.35 138.235 104.8 138.695 105.44C139.165 106.08 139.365 106.89 139.365 107.68C139.365 108.42 139.195 109.17 138.815 109.8C138.085 111.03 136.535 111.71 135.135 111.43C133.735 111.15 132.565 109.92 132.365 108.5C132.255 107.76 132.405 106.98 132.825 106.36C133.345 105.61 133.965 105.66 134.675 105.3C135.395 104.93 135.765 104.3 136.685 104.32L136.695 104.33Z" fill="#FFBC91"/>
<path d="M135.135 107.32C135.205 106.65 135.855 106.12 136.535 106.12C137.205 106.12 137.835 106.59 138.105 107.2C138.375 107.82 138.305 108.55 138.005 109.15" stroke="#FF9D5E" stroke-width="0.71" stroke-linecap="round" stroke-linejoin="round"/>
<path d="M107.314 93.2698C109.494 94.9898 112.424 95.4698 115.194 95.3298C117.964 95.1898 120.674 94.4998 123.424 94.1098C126.174 93.7198 129.064 93.6598 131.624 94.7298" stroke="#41417D" stroke-width="0.7" stroke-linecap="round" stroke-linejoin="round"/>
<path d="M138.865 88.1396C140.165 88.8296 141.055 90.1396 141.515 91.5396C141.975 92.9396 142.055 94.4297 142.075 95.8997C142.165 101.83 141.355 107.74 140.215 113.56" stroke="#41417D" stroke-width="0.7" stroke-linecap="round" stroke-linejoin="round"/>
<path d="M137.836 89.9597C139.276 93.3997 139.766 97.2297 139.216 100.92" stroke="#41417D" stroke-width="0.7" stroke-linecap="round" stroke-linejoin="round"/>
<path d="M136.076 92.9797C137.256 96.4997 137.826 100.22 137.756 103.93" stroke="#41417D" stroke-width="0.7" stroke-linecap="round" stroke-linejoin="round"/>
<path d="M133.576 96.3198C134.356 98.4298 134.636 100.74 134.366 102.98" stroke="#41417D" stroke-width="0.7" stroke-linecap="round" stroke-linejoin="round"/>
<path d="M136.745 86.6498C136.235 84.0198 133.935 81.8397 131.275 81.4697C127.595 80.9597 124.055 83.6097 120.365 83.2197C119.135 83.0897 117.945 82.6197 116.715 82.6297C115.275 82.6297 113.895 83.2997 112.775 84.2097C111.655 85.1197 110.765 86.2698 109.875 87.4098" stroke="#41417D" stroke-width="0.7" stroke-linecap="round" stroke-linejoin="round"/>
<path d="M134.215 88.0798C133.915 86.4898 132.485 85.2998 130.935 84.8598C129.385 84.4198 127.725 84.5998 126.135 84.9098C124.545 85.2198 122.975 85.6498 121.365 85.7098C119.515 85.7698 117.675 85.3198 115.825 85.4498C113.975 85.5798 111.985 86.5198 111.455 88.2998" stroke="#41417D" stroke-width="0.7" stroke-linecap="round" stroke-linejoin="round"/>
<path d="M132.415 89.8496C131.085 88.0696 128.645 87.4396 126.435 87.6196C124.225 87.7996 122.125 88.6496 120.005 89.3196C117.885 89.9896 115.605 90.4696 113.455 89.9096" stroke="#41417D" stroke-width="0.7" stroke-linecap="round" stroke-linejoin="round"/>
<path d="M108.346 90.6396C110.896 92.7996 114.556 93.0596 117.866 92.6296C121.176 92.1996 124.426 91.1896 127.756 91.1696C129.196 91.1696 130.806 91.4297 131.676 92.5897" stroke="#41417D" stroke-width="0.7" stroke-linecap="round" stroke-linejoin="round"/>
<path d="M138.264 112.01C138.494 113.94 137.794 115.04 137.314 116.92" stroke="#41417D" stroke-width="0.7" stroke-linecap="round" stroke-linejoin="round"/>
<path d="M132.946 198.9C133.456 196.85 131.316 194.89 129.456 194.52C127.516 194.13 125.206 194.4 123.226 194.27C118.936 193.98 114.306 193.76 110.666 196.06C108.546 197.39 104.596 199.56 105.496 200.86C105.986 201.58 110.206 198.82 111.586 198.29C111.586 198.29 108.656 200.27 106.896 202.13C106.006 203 105.766 204.69 106.346 204.89C107.386 205.26 112.226 201.12 112.666 200.45C112.396 201.27 107.956 205.08 108.996 206.07C110.166 207.17 112.136 205.28 112.836 204.47C114.176 202.92 116.146 202.22 118.216 202.07C122.556 200.61 127.036 200.69 131.526 200.8C132.186 200.31 132.746 199.69 132.936 198.91L132.946 198.9Z" fill="#FFBC91"/>
<path d="M106.087 196.16C105.727 196.32 105.297 196.59 105.367 196.92C105.417 197.16 105.717 197.27 105.987 197.34C107.637 197.74 116.647 198.18 117.307 195.57C118.047 192.7 107.337 195.61 106.087 196.16Z" fill="#FFBC91"/>
<path d="M59.9561 159.73C58.0061 159.45 55.9161 158.42 53.9961 157.88C49.8561 156.72 45.4261 155.37 42.7561 151.99C41.2061 150.02 38.2161 146.66 39.4861 145.73C40.1961 145.22 43.2461 149.23 44.3661 150.19C44.3661 150.19 42.2761 147.35 41.2361 145.01C40.6861 143.89 41.0261 142.22 41.6461 142.22C42.7461 142.22 45.9261 147.74 46.1161 148.52C46.1361 147.66 42.1461 140.81 43.4561 140.23C44.9261 139.58 47.0061 143.29 47.3961 144.29C48.1761 146.28 50.1361 148.18 52.1261 148.97C53.2461 149.41 49.6461 145.39 50.8761 144.52C52.6961 143.24 57.0761 148.16 58.6561 149.43C59.9061 150.43 60.4361 153.41 61.4761 154.62C62.1961 155.46 64.8161 155.66 64.7061 156.76C64.4961 158.86 61.8261 160 59.9561 159.72V159.73Z" fill="#FFBC91"/>
<path d="M161.656 201.44C159.396 216.3 155.656 230.93 150.516 245.05L123.906 244.19C118.006 229.89 114.266 214.74 112.836 199.39" stroke="#FFC75C" stroke-width="2.86" stroke-linecap="round" stroke-linejoin="round"/>
<path d="M154.826 198.77C156.506 198.44 158.236 198.07 159.896 198.46C161.566 198.84 163.146 200.22 163.196 201.98C163.236 203.26 162.446 204.44 161.426 205.18C160.406 205.92 159.186 206.28 157.986 206.61C144.326 210.29 129.706 210.12 116.126 206.12C114.146 205.54 111.956 204.66 111.186 202.7C110.136 200.02 112.506 197.31 115.196 197.63C116.116 197.74 116.786 198.31 117.606 198.7C118.976 199.36 120.456 199.5 121.946 199.7C128.926 200.65 136.006 200.86 143.026 200.34C146.976 200.05 150.916 199.52 154.816 198.76L154.826 198.77Z" fill="#D9D9FF"/>
</g>
</svg>
