<svg width="296" height="137" viewBox="0 0 296 137" fill="none" xmlns="http://www.w3.org/2000/svg">
<g opacity="0.8">
<g clip-path="url(#clip0_2101_22035)">
<rect x="16" y="0.5" width="264" height="136" rx="8" fill="white"/>
<path d="M42.4004 17.9999H30.6671M30.6671 17.9999L35.0671 13.5999M30.6671 17.9999L35.0671 22.3999" stroke="#C2C2C2" stroke-width="1.46667" stroke-linecap="round" stroke-linejoin="round"/>
<g clip-path="url(#clip1_2101_22035)">
<rect x="40.8438" y="47.9216" width="24.8432" height="24.8432" rx="12.4216" fill="#4B4FB3"/>
<g clip-path="url(#clip2_2101_22035)">
<path d="M52.9539 56.6503C53.0535 56.4486 53.1033 56.3477 53.1709 56.3155C53.2297 56.2874 53.298 56.2874 53.3568 56.3155C53.4244 56.3477 53.4742 56.4486 53.5738 56.6503L54.5186 58.5643C54.548 58.6239 54.5627 58.6536 54.5842 58.6768C54.6032 58.6972 54.626 58.7138 54.6513 58.7256C54.6799 58.7389 54.7128 58.7437 54.7785 58.7533L56.8918 59.0622C57.1144 59.0947 57.2256 59.111 57.2771 59.1654C57.3219 59.2126 57.343 59.2776 57.3345 59.3422C57.3247 59.4164 57.2441 59.4949 57.083 59.6518L55.5544 61.1407C55.5067 61.1871 55.4829 61.2103 55.4675 61.2379C55.4539 61.2624 55.4452 61.2892 55.4418 61.317C55.438 61.3484 55.4436 61.3812 55.4549 61.4467L55.8156 63.5497C55.8536 63.7715 55.8726 63.8824 55.8369 63.9482C55.8058 64.0055 55.7505 64.0456 55.6864 64.0575C55.6128 64.0712 55.5132 64.0188 55.314 63.9141L53.4247 62.9205C53.3659 62.8896 53.3365 62.8741 53.3054 62.868C53.278 62.8626 53.2497 62.8626 53.2223 62.868C53.1913 62.8741 53.1619 62.8896 53.103 62.9205L51.2137 63.9141C51.0145 64.0188 50.915 64.0712 50.8413 64.0575C50.7772 64.0456 50.722 64.0055 50.6909 63.9482C50.6551 63.8824 50.6741 63.7715 50.7122 63.5497L51.0729 61.4467C51.0841 61.3812 51.0897 61.3484 51.0859 61.317C51.0826 61.2892 51.0738 61.2624 51.0602 61.2379C51.0448 61.2103 51.021 61.1871 50.9734 61.1407L49.4447 59.6518C49.2836 59.4949 49.2031 59.4164 49.1933 59.3422C49.1847 59.2776 49.2058 59.2126 49.2506 59.1654C49.3021 59.111 49.4134 59.0947 49.6359 59.0622L51.7492 58.7533C51.8149 58.7437 51.8478 58.7389 51.8764 58.7256C51.9017 58.7138 51.9246 58.6972 51.9436 58.6768C51.9651 58.6536 51.9798 58.6239 52.0092 58.5643L52.9539 56.6503Z" stroke="white" stroke-width="0.86411" stroke-linecap="round" stroke-linejoin="round"/>
</g>
<path d="M72.269 51.1751V50.1462H77.6747V51.1751H75.5806V56.9216H74.3631V51.1751H72.269ZM78.826 58.8272C78.6628 58.8272 78.5117 58.814 78.3728 58.7875C78.236 58.7633 78.1269 58.7346 78.0453 58.7015L78.3232 57.7686C78.4974 57.8193 78.6529 57.8435 78.7896 57.8413C78.9264 57.8391 79.0466 57.7961 79.1502 57.7123C79.2561 57.6307 79.3454 57.494 79.4182 57.3021L79.5208 57.0275L77.678 51.8401H78.9484L80.1196 55.6777H80.1725L81.347 51.8401H82.6206L80.586 57.537C80.4912 57.8061 80.3655 58.0365 80.2089 58.2284C80.0523 58.4225 79.8604 58.5703 79.6333 58.6717C79.4083 58.7754 79.1392 58.8272 78.826 58.8272ZM79.6862 51.1718L80.4272 49.6599H81.5984L80.5827 51.1718H79.6862ZM83.3832 56.9216V56.1607L86.0034 52.8756V52.8326H83.4692V51.8401H87.469V52.6572L84.9745 55.8861V55.9291H87.555V56.9216H83.3832ZM84.7727 49.7558L85.4443 50.6028L86.1159 49.7558H87.1646V49.8022L85.9108 51.2313H84.9745L83.724 49.8022V49.7558H84.7727ZM90.4208 57.011C90.0216 57.011 89.6643 56.9084 89.3489 56.7033C89.0335 56.4982 88.7843 56.2004 88.6012 55.81C88.4182 55.4197 88.3266 54.9455 88.3266 54.3875C88.3266 53.8229 88.4193 53.3465 88.6045 52.9583C88.792 52.5679 89.0445 52.2735 89.3621 52.075C89.6797 51.8743 90.0337 51.7739 90.4241 51.7739C90.7219 51.7739 90.9667 51.8246 91.1586 51.9261C91.3504 52.0253 91.5026 52.1455 91.6151 52.2867C91.7276 52.4256 91.8147 52.5569 91.8765 52.6804H91.9261V50.1462H93.127V56.9216H91.9492V56.121H91.8765C91.8147 56.2445 91.7254 56.3758 91.6085 56.5147C91.4916 56.6515 91.3372 56.7683 91.1453 56.8654C90.9534 56.9624 90.7119 57.011 90.4208 57.011ZM90.7549 56.0284C91.0086 56.0284 91.2247 55.96 91.4034 55.8233C91.582 55.6843 91.7177 55.4913 91.8103 55.2443C91.9029 54.9973 91.9492 54.7095 91.9492 54.3809C91.9492 54.0522 91.9029 53.7666 91.8103 53.524C91.7199 53.2814 91.5853 53.0928 91.4067 52.9583C91.2302 52.8237 91.013 52.7565 90.7549 52.7565C90.4881 52.7565 90.2653 52.826 90.0867 52.9649C89.908 53.1038 89.7735 53.2957 89.6831 53.5405C89.5926 53.7854 89.5474 54.0655 89.5474 54.3809C89.5474 54.6985 89.5926 54.9819 89.6831 55.2311C89.7757 55.4781 89.9113 55.6733 90.09 55.8167C90.2708 55.9578 90.4925 56.0284 90.7549 56.0284ZM96.6528 57.0209C96.1433 57.0209 95.7033 56.915 95.3328 56.7033C94.9645 56.4893 94.6811 56.1872 94.4826 55.7968C94.2841 55.4042 94.1848 54.9422 94.1848 54.4106C94.1848 53.8879 94.2841 53.4292 94.4826 53.0344C94.6833 52.6374 94.9634 52.3286 95.3229 52.108C95.6824 51.8853 96.1047 51.7739 96.59 51.7739C96.9031 51.7739 97.1987 51.8246 97.4766 51.9261C97.7567 52.0253 98.0037 52.1797 98.2176 52.3893C98.4338 52.5988 98.6036 52.8657 98.7271 53.1899C98.8506 53.5119 98.9124 53.8956 98.9124 54.3412V54.7084H94.7472V53.9011H97.7644C97.7622 53.6718 97.7126 53.4678 97.6155 53.2891C97.5185 53.1083 97.3829 52.966 97.2086 52.8623C97.0366 52.7587 96.8359 52.7069 96.6065 52.7069C96.3617 52.7069 96.1466 52.7664 95.9614 52.8855C95.7761 53.0024 95.6317 53.1568 95.528 53.3487C95.4265 53.5383 95.3747 53.7468 95.3725 53.9739V54.6786C95.3725 54.9741 95.4265 55.2278 95.5346 55.4395C95.6427 55.649 95.7938 55.81 95.9879 55.9225C96.1819 56.0328 96.4091 56.0879 96.6694 56.0879C96.8436 56.0879 97.0013 56.0637 97.1424 56.0152C97.2836 55.9644 97.406 55.8905 97.5097 55.7935C97.6133 55.6965 97.6916 55.5763 97.7446 55.4329L98.8628 55.5586C98.7922 55.8542 98.6577 56.1122 98.4592 56.3328C98.2629 56.5511 98.0114 56.7209 97.7049 56.8422C97.3983 56.9613 97.0476 57.0209 96.6528 57.0209ZM101.123 53.9442V56.9216H99.9256V51.8401H101.07V52.7035H101.13C101.247 52.419 101.433 52.193 101.689 52.0253C101.947 51.8577 102.266 51.7739 102.645 51.7739C102.996 51.7739 103.301 51.8489 103.561 51.9989C103.824 52.1489 104.027 52.3661 104.17 52.6506C104.316 52.9351 104.387 53.2803 104.385 53.6861V56.9216H103.188V53.8714C103.188 53.5317 103.099 53.266 102.923 53.0741C102.749 52.8822 102.507 52.7863 102.198 52.7863C101.989 52.7863 101.802 52.8326 101.639 52.9252C101.478 53.0156 101.351 53.1469 101.259 53.3189C101.168 53.4909 101.123 53.6993 101.123 53.9442ZM106.8 53.9442V56.9216H105.603V51.8401H106.747V52.7035H106.807C106.924 52.419 107.11 52.193 107.366 52.0253C107.624 51.8577 107.943 51.7739 108.322 51.7739C108.673 51.7739 108.978 51.8489 109.238 51.9989C109.501 52.1489 109.704 52.3661 109.847 52.6506C109.993 52.9351 110.064 53.2803 110.062 53.6861V56.9216H108.865V53.8714C108.865 53.5317 108.776 53.266 108.6 53.0741C108.426 52.8822 108.184 52.7863 107.875 52.7863C107.666 52.7863 107.48 52.8326 107.316 52.9252C107.155 53.0156 107.028 53.1469 106.936 53.3189C106.845 53.4909 106.8 53.6993 106.8 53.9442ZM112.742 57.0242C112.42 57.0242 112.13 56.9668 111.872 56.8522C111.616 56.7353 111.413 56.5632 111.263 56.3361C111.115 56.1089 111.041 55.8288 111.041 55.4958C111.041 55.209 111.094 54.9719 111.2 54.7845C111.306 54.597 111.451 54.447 111.634 54.3345C111.817 54.2221 112.023 54.1371 112.252 54.0798C112.484 54.0202 112.723 53.9772 112.97 53.9508C113.268 53.9199 113.509 53.8923 113.695 53.8681C113.88 53.8416 114.015 53.8019 114.098 53.749C114.184 53.6938 114.227 53.6089 114.227 53.4942V53.4744C114.227 53.2252 114.153 53.0322 114.006 52.8954C113.858 52.7587 113.645 52.6903 113.367 52.6903C113.074 52.6903 112.841 52.7543 112.669 52.8822C112.499 53.0101 112.385 53.1612 112.325 53.3354L111.207 53.1766C111.295 52.8679 111.441 52.6098 111.644 52.4025C111.846 52.193 112.095 52.0364 112.388 51.9327C112.681 51.8268 113.005 51.7739 113.361 51.7739C113.605 51.7739 113.849 51.8026 114.092 51.8599C114.334 51.9173 114.556 52.0121 114.757 52.1444C114.957 52.2746 115.118 52.4521 115.24 52.6771C115.363 52.902 115.425 53.1832 115.425 53.5207V56.9216H114.274V56.2236H114.234C114.161 56.3647 114.059 56.4971 113.926 56.6206C113.796 56.7419 113.632 56.84 113.433 56.915C113.237 56.9878 113.007 57.0242 112.742 57.0242ZM113.053 56.1442C113.293 56.1442 113.502 56.0968 113.678 56.0019C113.855 55.9049 113.99 55.777 114.085 55.6182C114.182 55.4594 114.231 55.2862 114.231 55.0988V54.5C114.193 54.5308 114.129 54.5595 114.039 54.586C113.951 54.6124 113.851 54.6356 113.741 54.6554C113.631 54.6753 113.522 54.6929 113.414 54.7084C113.305 54.7238 113.212 54.737 113.132 54.7481C112.954 54.7723 112.794 54.812 112.653 54.8672C112.511 54.9223 112.4 54.9995 112.318 55.0988C112.237 55.1958 112.196 55.3215 112.196 55.4759C112.196 55.6965 112.277 55.863 112.438 55.9755C112.599 56.0879 112.804 56.1442 113.053 56.1442ZM112.954 51.1718L113.695 49.6599H114.866L113.85 51.1718H112.954ZM123.479 51.8401L121.669 56.9216H120.346L118.536 51.8401H119.813L120.981 55.6149H121.034L122.205 51.8401H123.479ZM125.052 58.8272C124.889 58.8272 124.738 58.814 124.599 58.7875C124.462 58.7633 124.353 58.7346 124.271 58.7015L124.549 57.7686C124.724 57.8193 124.879 57.8435 125.016 57.8413C125.152 57.8391 125.273 57.7961 125.376 57.7123C125.482 57.6307 125.572 57.494 125.644 57.3021L125.747 57.0275L123.904 51.8401H125.175L126.346 55.6777H126.399L127.573 51.8401H128.847L126.812 57.537C126.717 57.8061 126.592 58.0365 126.435 58.2284C126.278 58.4225 126.087 58.5703 125.859 58.6717C125.634 58.7754 125.365 58.8272 125.052 58.8272ZM125.912 51.1718L126.653 49.6599H127.824L126.809 51.1718H125.912ZM129.609 56.9216V56.1607L132.229 52.8756V52.8326H129.695V51.8401H133.695V52.6572L131.201 55.8861V55.9291H133.781V56.9216H129.609ZM139.446 51.8401L137.636 56.9216H136.313L134.503 51.8401H135.78L136.948 55.6149H137.001L138.172 51.8401H139.446ZM141.591 57.0242C141.269 57.0242 140.979 56.9668 140.721 56.8522C140.465 56.7353 140.262 56.5632 140.112 56.3361C139.965 56.1089 139.891 55.8288 139.891 55.4958C139.891 55.209 139.944 54.9719 140.049 54.7845C140.155 54.597 140.3 54.447 140.483 54.3345C140.666 54.2221 140.872 54.1371 141.102 54.0798C141.333 54.0202 141.572 53.9772 141.819 53.9508C142.117 53.9199 142.359 53.8923 142.544 53.8681C142.729 53.8416 142.864 53.8019 142.948 53.749C143.034 53.6938 143.077 53.6089 143.077 53.4942V53.4744C143.077 53.2252 143.003 53.0322 142.855 52.8954C142.707 52.7587 142.494 52.6903 142.216 52.6903C141.923 52.6903 141.69 52.7543 141.518 52.8822C141.349 53.0101 141.234 53.1612 141.174 53.3354L140.056 53.1766C140.144 52.8679 140.29 52.6098 140.493 52.4025C140.696 52.193 140.944 52.0364 141.237 51.9327C141.531 51.8268 141.855 51.7739 142.21 51.7739C142.455 51.7739 142.698 51.8026 142.941 51.8599C143.184 51.9173 143.405 52.0121 143.606 52.1444C143.807 52.2746 143.968 52.4521 144.089 52.6771C144.212 52.902 144.274 53.1832 144.274 53.5207V56.9216H143.123V56.2236H143.083C143.01 56.3647 142.908 56.4971 142.776 56.6206C142.645 56.7419 142.481 56.84 142.283 56.915C142.086 56.9878 141.856 57.0242 141.591 57.0242ZM141.902 56.1442C142.143 56.1442 142.351 56.0968 142.527 56.0019C142.704 55.9049 142.839 55.777 142.934 55.6182C143.031 55.4594 143.08 55.2862 143.08 55.0988V54.5C143.042 54.5308 142.978 54.5595 142.888 54.586C142.8 54.6124 142.701 54.6356 142.59 54.6554C142.48 54.6753 142.371 54.6929 142.263 54.7084C142.155 54.7238 142.061 54.737 141.982 54.7481C141.803 54.7723 141.643 54.812 141.502 54.8672C141.361 54.9223 141.249 54.9995 141.168 55.0988C141.086 55.1958 141.045 55.3215 141.045 55.4759C141.045 55.6965 141.126 55.863 141.287 55.9755C141.448 56.0879 141.653 56.1442 141.902 56.1442Z" fill="#161616"/>
<path d="M72.5998 69.7649V69.1694L74.8362 66.7213C75.0987 66.4345 75.3148 66.1853 75.4846 65.9736C75.6545 65.7596 75.7802 65.5589 75.8618 65.3715C75.9456 65.1818 75.9875 64.9833 75.9875 64.776C75.9875 64.5378 75.9302 64.3316 75.8155 64.1573C75.703 63.9831 75.5486 63.8485 75.3523 63.7537C75.156 63.6589 74.9355 63.6114 74.6906 63.6114C74.4304 63.6114 74.2032 63.6655 74.0091 63.7736C73.8173 63.8794 73.6684 64.0283 73.5625 64.2202C73.4589 64.4121 73.407 64.637 73.407 64.8951H72.6263C72.6263 64.4981 72.7178 64.1496 72.9009 63.8496C73.0839 63.5497 73.3331 63.3159 73.6485 63.1483C73.9661 62.9807 74.3223 62.8969 74.7171 62.8969C75.1141 62.8969 75.4659 62.9807 75.7725 63.1483C76.079 63.3159 76.3194 63.542 76.4937 63.8265C76.6679 64.111 76.755 64.4275 76.755 64.776C76.755 65.0252 76.7098 65.2689 76.6194 65.5071C76.5312 65.7431 76.3768 66.0067 76.1562 66.2978C75.9379 66.5867 75.6346 66.9396 75.2464 67.3564L73.7246 68.9841V69.0371H76.8741V69.7649H72.5998ZM80.3975 62.8969C80.6754 62.8991 80.9533 62.952 81.2312 63.0557C81.5091 63.1593 81.7627 63.3313 81.9921 63.5717C82.2214 63.8099 82.4056 64.1353 82.5446 64.5477C82.6835 64.9601 82.753 65.4773 82.753 66.0993C82.753 66.7014 82.6956 67.2362 82.581 67.7038C82.4685 68.1692 82.3053 68.5618 82.0913 68.8816C81.8796 69.2014 81.6215 69.444 81.3172 69.6094C81.015 69.7748 80.6732 69.8575 80.2916 69.8575C79.9123 69.8575 79.5737 69.7825 79.276 69.6326C78.9804 69.4804 78.7378 69.2697 78.5481 69.0007C78.3607 68.7294 78.2405 68.4151 78.1875 68.0578H78.9947C79.0675 68.3688 79.212 68.6257 79.4281 68.8286C79.6465 69.0293 79.9343 69.1297 80.2916 69.1297C80.8143 69.1297 81.2268 68.9014 81.5289 68.4449C81.8333 67.9883 81.9855 67.3432 81.9855 66.5095H81.9325C81.809 66.6948 81.6623 66.8547 81.4925 66.9892C81.3227 67.1238 81.1341 67.2274 80.9268 67.3002C80.7195 67.373 80.4989 67.4094 80.2651 67.4094C79.877 67.4094 79.5208 67.3134 79.1966 67.1216C78.8745 66.9275 78.6165 66.6617 78.4224 66.3243C78.2305 65.9846 78.1346 65.5964 78.1346 65.1597C78.1346 64.7451 78.2272 64.3657 78.4125 64.0217C78.6 63.6754 78.8624 63.3997 79.1999 63.1946C79.5395 62.9895 79.9387 62.8902 80.3975 62.8969ZM80.3975 63.6247C80.1196 63.6247 79.8692 63.6942 79.6465 63.8331C79.4259 63.9698 79.2506 64.1551 79.1205 64.3889C78.9925 64.6205 78.9286 64.8774 78.9286 65.1597C78.9286 65.442 78.9903 65.699 79.1138 65.9306C79.2396 66.1599 79.4105 66.343 79.6266 66.4797C79.845 66.6143 80.0931 66.6816 80.371 66.6816C80.5805 66.6816 80.7757 66.6408 80.9566 66.5591C81.1374 66.4753 81.2951 66.3618 81.4297 66.2184C81.5664 66.0728 81.6734 65.9085 81.7506 65.7255C81.8278 65.5402 81.8664 65.3472 81.8664 65.1465C81.8664 64.8818 81.8024 64.6337 81.6745 64.4021C81.5488 64.1706 81.3745 63.9831 81.1518 63.8397C80.9312 63.6964 80.6798 63.6247 80.3975 63.6247ZM84.3997 69.8178C84.2365 69.8178 84.0964 69.7594 83.9795 69.6425C83.8626 69.5256 83.8042 69.3855 83.8042 69.2223C83.8042 69.0591 83.8626 68.9191 83.9795 68.8022C84.0964 68.6853 84.2365 68.6268 84.3997 68.6268C84.5629 68.6268 84.703 68.6853 84.8198 68.8022C84.9367 68.9191 84.9952 69.0591 84.9952 69.2223C84.9952 69.3304 84.9676 69.4297 84.9125 69.5201C84.8595 69.6105 84.7879 69.6833 84.6974 69.7384C84.6092 69.7914 84.51 69.8178 84.3997 69.8178ZM88.3639 69.8575C87.9757 69.8575 87.6261 69.7803 87.3151 69.6259C87.0042 69.4716 86.7549 69.2598 86.5675 68.9907C86.38 68.7217 86.2774 68.4151 86.2598 68.071H87.0538C87.0847 68.3776 87.2236 68.6312 87.4706 68.832C87.7198 69.0304 88.0176 69.1297 88.3639 69.1297C88.6418 69.1297 88.8888 69.0646 89.1049 68.9345C89.3233 68.8044 89.4942 68.6257 89.6177 68.3986C89.7434 68.1692 89.8063 67.91 89.8063 67.6211C89.8063 67.3256 89.7412 67.062 89.6111 66.8304C89.4832 66.5966 89.3067 66.4125 89.0818 66.2779C88.8568 66.1434 88.5999 66.075 88.3109 66.0728C88.1036 66.0706 87.8908 66.1026 87.6724 66.1688C87.4541 66.2327 87.2743 66.3154 87.1332 66.4169L86.3657 66.3243L86.7759 62.9895H90.2959V63.7173H87.464L87.2258 65.7155H87.2655C87.4045 65.6053 87.5787 65.5137 87.7882 65.4409C87.9977 65.3682 88.2161 65.3318 88.4433 65.3318C88.8579 65.3318 89.2273 65.431 89.5515 65.6295C89.878 65.8258 90.1338 66.0949 90.3191 66.4367C90.5065 66.7786 90.6003 67.169 90.6003 67.6079C90.6003 68.0402 90.5032 68.4261 90.3091 68.7658C90.1173 69.1032 89.8526 69.3701 89.5152 69.5664C89.1777 69.7605 88.7939 69.8575 88.3639 69.8575ZM92.242 69.8178C92.0788 69.8178 91.9388 69.7594 91.8219 69.6425C91.705 69.5256 91.6465 69.3855 91.6465 69.2223C91.6465 69.0591 91.705 68.9191 91.8219 68.8022C91.9388 68.6853 92.0788 68.6268 92.242 68.6268C92.4052 68.6268 92.5453 68.6853 92.6622 68.8022C92.7791 68.9191 92.8375 69.0591 92.8375 69.2223C92.8375 69.3304 92.8099 69.4297 92.7548 69.5201C92.7019 69.6105 92.6302 69.6833 92.5398 69.7384C92.4516 69.7914 92.3523 69.8178 92.242 69.8178ZM95.4031 68.8386L95.3502 69.1959C95.3127 69.4473 95.2553 69.7164 95.1781 70.0031C95.1032 70.2898 95.0249 70.56 94.9433 70.8136C94.8616 71.0673 94.7944 71.2691 94.7414 71.419H94.146C94.1746 71.2779 94.2121 71.0915 94.2584 70.8599C94.3048 70.6284 94.3511 70.3692 94.3974 70.0825C94.4459 69.798 94.4856 69.5068 94.5165 69.2091L94.5562 68.8386H95.4031ZM101.839 62.9895V69.7649H101.018V63.8496H100.978L99.3243 64.948V64.1143L101.018 62.9895H101.839ZM103.787 69.7649V69.1694L106.024 66.7213C106.286 66.4345 106.502 66.1853 106.672 65.9736C106.842 65.7596 106.968 65.5589 107.049 65.3715C107.133 65.1818 107.175 64.9833 107.175 64.776C107.175 64.5378 107.118 64.3316 107.003 64.1573C106.89 63.9831 106.736 63.8485 106.54 63.7537C106.343 63.6589 106.123 63.6114 105.878 63.6114C105.618 63.6114 105.391 63.6655 105.197 63.7736C105.005 63.8794 104.856 64.0283 104.75 64.2202C104.646 64.4121 104.594 64.637 104.594 64.8951H103.814C103.814 64.4981 103.905 64.1496 104.088 63.8496C104.271 63.5497 104.521 63.3159 104.836 63.1483C105.154 62.9807 105.51 62.8969 105.904 62.8969C106.301 62.8969 106.653 62.9807 106.96 63.1483C107.266 63.3159 107.507 63.542 107.681 63.8265C107.855 64.111 107.942 64.4275 107.942 64.776C107.942 65.0252 107.897 65.2689 107.807 65.5071C107.719 65.7431 107.564 66.0067 107.344 66.2978C107.125 66.5867 106.822 66.9396 106.434 67.3564L104.912 68.9841V69.0371H108.062V69.7649H103.787ZM110.01 68.8981C109.847 68.8981 109.707 68.8397 109.59 68.7228C109.473 68.6059 109.415 68.4658 109.415 68.3026C109.415 68.1394 109.473 67.9994 109.59 67.8825C109.707 67.7656 109.847 67.7071 110.01 67.7071C110.173 67.7071 110.313 67.7656 110.43 67.8825C110.547 67.9994 110.606 68.1394 110.606 68.3026C110.606 68.4107 110.578 68.5099 110.523 68.6004C110.47 68.6908 110.398 68.7636 110.308 68.8187C110.22 68.8717 110.12 68.8981 110.01 68.8981ZM110.01 65.4707C109.847 65.4707 109.707 65.4123 109.59 65.2954C109.473 65.1785 109.415 65.0384 109.415 64.8752C109.415 64.712 109.473 64.572 109.59 64.4551C109.707 64.3382 109.847 64.2797 110.01 64.2797C110.173 64.2797 110.313 64.3382 110.43 64.4551C110.547 64.572 110.606 64.712 110.606 64.8752C110.606 64.9833 110.578 65.0825 110.523 65.173C110.47 65.2634 110.398 65.3362 110.308 65.3913C110.22 65.4442 110.12 65.4707 110.01 65.4707ZM114.203 69.8575C113.705 69.8575 113.28 69.7219 112.93 69.4506C112.579 69.1771 112.311 68.7812 112.126 68.2629C111.94 67.7424 111.848 67.1138 111.848 66.3772C111.848 65.645 111.94 65.0197 112.126 64.5014C112.313 63.9809 112.582 63.5839 112.933 63.3104C113.286 63.0347 113.709 62.8969 114.203 62.8969C114.697 62.8969 115.12 63.0347 115.47 63.3104C115.823 63.5839 116.092 63.9809 116.278 64.5014C116.465 65.0197 116.559 65.645 116.559 66.3772C116.559 67.1138 116.466 67.7424 116.281 68.2629C116.096 68.7812 115.828 69.1771 115.477 69.4506C115.126 69.7219 114.702 69.8575 114.203 69.8575ZM114.203 69.1297C114.697 69.1297 115.081 68.8915 115.355 68.4151C115.628 67.9387 115.765 67.2594 115.765 66.3772C115.765 65.7905 115.702 65.291 115.576 64.8785C115.453 64.4661 115.274 64.1518 115.04 63.9357C114.809 63.7195 114.53 63.6114 114.203 63.6114C113.714 63.6114 113.331 63.853 113.055 64.336C112.78 64.8168 112.642 65.4972 112.642 66.3772C112.642 66.9639 112.704 67.4623 112.827 67.8725C112.951 68.2828 113.128 68.5949 113.36 68.8088C113.594 69.0227 113.875 69.1297 114.203 69.1297ZM120.026 69.8575C119.528 69.8575 119.103 69.7219 118.752 69.4506C118.402 69.1771 118.134 68.7812 117.948 68.2629C117.763 67.7424 117.67 67.1138 117.67 66.3772C117.67 65.645 117.763 65.0197 117.948 64.5014C118.136 63.9809 118.405 63.5839 118.756 63.3104C119.108 63.0347 119.532 62.8969 120.026 62.8969C120.52 62.8969 120.942 63.0347 121.293 63.3104C121.646 63.5839 121.915 63.9809 122.1 64.5014C122.288 65.0197 122.381 65.645 122.381 66.3772C122.381 67.1138 122.289 67.7424 122.104 68.2629C121.918 68.7812 121.65 69.1771 121.3 69.4506C120.949 69.7219 120.524 69.8575 120.026 69.8575ZM120.026 69.1297C120.52 69.1297 120.904 68.8915 121.177 68.4151C121.451 67.9387 121.588 67.2594 121.588 66.3772C121.588 65.7905 121.525 65.291 121.399 64.8785C121.275 64.4661 121.097 64.1518 120.863 63.9357C120.631 63.7195 120.352 63.6114 120.026 63.6114C119.536 63.6114 119.154 63.853 118.878 64.336C118.602 64.8168 118.464 65.4972 118.464 66.3772C118.464 66.9639 118.526 67.4623 118.65 67.8725C118.773 68.2828 118.951 68.5949 119.182 68.8088C119.416 69.0227 119.697 69.1297 120.026 69.1297Z" fill="#747474"/>
<path d="M48.1617 85.5411H47.2045C47.1479 85.2658 47.0488 85.0239 46.9073 84.8155C46.7684 84.6071 46.5985 84.4321 46.3978 84.2906C46.1997 84.1465 45.9797 84.0384 45.7378 83.9664C45.496 83.8943 45.2438 83.8583 44.9813 83.8583C44.5027 83.8583 44.0692 83.9793 43.6806 84.2211C43.2947 84.463 42.9872 84.8194 42.7582 85.2903C42.5317 85.7611 42.4185 86.3388 42.4185 87.0233C42.4185 87.7077 42.5317 88.2854 42.7582 88.7563C42.9872 89.2271 43.2947 89.5835 43.6806 89.8254C44.0692 90.0673 44.5027 90.1882 44.9813 90.1882C45.2438 90.1882 45.496 90.1522 45.7378 90.0801C45.9797 90.0081 46.1997 89.9013 46.3978 89.7598C46.5985 89.6157 46.7684 89.4394 46.9073 89.231C47.0488 89.02 47.1479 88.7781 47.2045 88.5054H48.1617C48.0897 88.9094 47.9584 89.2709 47.768 89.59C47.5776 89.909 47.3409 90.1805 47.0578 90.4044C46.7748 90.6256 46.457 90.7942 46.1045 90.91C45.7546 91.0258 45.3802 91.0837 44.9813 91.0837C44.3072 91.0837 43.7076 90.919 43.1827 90.5896C42.6578 90.2603 42.2448 89.7919 41.9438 89.1847C41.6427 88.5774 41.4922 87.857 41.4922 87.0233C41.4922 86.1896 41.6427 85.4691 41.9438 84.8618C42.2448 84.2546 42.6578 83.7863 43.1827 83.4569C43.7076 83.1276 44.3072 82.9629 44.9813 82.9629C45.3802 82.9629 45.7546 83.0208 46.1045 83.1366C46.457 83.2524 46.7748 83.4222 47.0578 83.646C47.3409 83.8673 47.5776 84.1375 47.768 84.4566C47.9584 84.7731 48.0897 85.1346 48.1617 85.5411ZM44.1785 80.6934L44.9813 81.7741L45.7842 80.6934H46.6487V80.7551L45.3982 82.3608H44.5645L43.314 80.7551V80.6934H44.1785ZM51.3296 91.1145C50.9539 91.1145 50.6129 91.0438 50.3067 90.9023C50.0005 90.7582 49.7574 90.551 49.5773 90.2808C49.3971 90.0081 49.3071 89.6787 49.3071 89.2928C49.3071 88.9531 49.374 88.6778 49.5078 88.4668C49.6416 88.2532 49.8204 88.086 50.0443 87.965C50.2681 87.8441 50.5152 87.754 50.7853 87.6949C51.0581 87.6331 51.3321 87.5842 51.6075 87.5482C51.9677 87.5019 52.2597 87.4671 52.4836 87.444C52.71 87.4182 52.8747 87.3758 52.9776 87.3166C53.0831 87.2574 53.1359 87.1545 53.1359 87.0078V86.9769C53.1359 86.5961 53.0317 86.3002 52.8233 86.0892C52.6174 85.8782 52.3048 85.7727 51.8854 85.7727C51.4505 85.7727 51.1096 85.8679 50.8625 86.0583C50.6155 86.2488 50.4418 86.452 50.3415 86.6682L49.4769 86.3594C49.6313 85.9992 49.8371 85.7187 50.0945 85.518C50.3543 85.3147 50.6374 85.1732 50.9436 85.0934C51.2524 85.0111 51.556 84.9699 51.8545 84.9699C52.0449 84.9699 52.2636 84.9931 52.5106 85.0394C52.7602 85.0831 53.0008 85.1745 53.2324 85.3134C53.4665 85.4524 53.6608 85.6621 53.8152 85.9426C53.9696 86.223 54.0468 86.5987 54.0468 87.0696V90.9756H53.1359V90.1728H53.0896C53.0278 90.3014 52.9249 90.4391 52.7808 90.5858C52.6367 90.7324 52.445 90.8572 52.2057 90.9601C51.9664 91.0631 51.6744 91.1145 51.3296 91.1145ZM51.4685 90.2963C51.8287 90.2963 52.1324 90.2255 52.3794 90.084C52.629 89.9425 52.8168 89.7598 52.9429 89.5359C53.0716 89.3121 53.1359 89.0766 53.1359 88.8296V87.9959C53.0973 88.0422 53.0124 88.0847 52.8812 88.1233C52.7525 88.1593 52.6033 88.1915 52.4334 88.2198C52.2662 88.2455 52.1028 88.2687 51.9432 88.2892C51.7863 88.3073 51.6589 88.3227 51.5611 88.3356C51.3244 88.3664 51.1031 88.4166 50.8973 88.4861C50.694 88.553 50.5293 88.6546 50.4032 88.791C50.2797 88.9248 50.218 89.1075 50.218 89.3391C50.218 89.6556 50.335 89.8949 50.5692 90.057C50.8059 90.2165 51.1057 90.2963 51.4685 90.2963ZM56.5585 88.8142L56.543 87.6871H56.7283L59.322 85.0471H60.449L57.6855 87.8415H57.6083L56.5585 88.8142ZM55.7093 90.9756V83.0709H56.6202V90.9756H55.7093ZM59.4764 90.9756L57.1606 88.0422L57.809 87.4092L60.6343 90.9756H59.4764ZM63.366 91.1145C62.9903 91.1145 62.6494 91.0438 62.3432 90.9023C62.037 90.7582 61.7938 90.551 61.6137 90.2808C61.4336 90.0081 61.3435 89.6787 61.3435 89.2928C61.3435 88.9531 61.4104 88.6778 61.5442 88.4668C61.678 88.2532 61.8569 88.086 62.0807 87.965C62.3046 87.8441 62.5516 87.754 62.8218 87.6949C63.0945 87.6331 63.3686 87.5842 63.6439 87.5482C64.0041 87.5019 64.2962 87.4671 64.52 87.444C64.7465 87.4182 64.9112 87.3758 65.0141 87.3166C65.1196 87.2574 65.1723 87.1545 65.1723 87.0078V86.9769C65.1723 86.5961 65.0681 86.3002 64.8597 86.0892C64.6538 85.8782 64.3412 85.7727 63.9218 85.7727C63.4869 85.7727 63.146 85.8679 62.899 86.0583C62.6519 86.2488 62.4783 86.452 62.3779 86.6682L61.5133 86.3594C61.6677 85.9992 61.8736 85.7187 62.1309 85.518C62.3908 85.3147 62.6738 85.1732 62.98 85.0934C63.2888 85.0111 63.5924 84.9699 63.8909 84.9699C64.0813 84.9699 64.3 84.9931 64.5471 85.0394C64.7966 85.0831 65.0372 85.1745 65.2688 85.3134C65.503 85.4524 65.6972 85.6621 65.8516 85.9426C66.006 86.223 66.0832 86.5987 66.0832 87.0696V90.9756H65.1723V90.1728H65.126C65.0643 90.3014 64.9613 90.4391 64.8172 90.5858C64.6731 90.7324 64.4814 90.8572 64.2421 90.9601C64.0028 91.0631 63.7108 91.1145 63.366 91.1145ZM63.5049 90.2963C63.8652 90.2963 64.1688 90.2255 64.4158 90.084C64.6654 89.9425 64.8533 89.7598 64.9793 89.5359C65.108 89.3121 65.1723 89.0766 65.1723 88.8296V87.9959C65.1337 88.0422 65.0488 88.0847 64.9176 88.1233C64.7889 88.1593 64.6397 88.1915 64.4699 88.2198C64.3026 88.2455 64.1392 88.2687 63.9797 88.2892C63.8227 88.3073 63.6954 88.3227 63.5976 88.3356C63.3608 88.3664 63.1396 88.4166 62.9337 88.4861C62.7304 88.553 62.5657 88.6546 62.4397 88.791C62.3162 88.9248 62.2544 89.1075 62.2544 89.3391C62.2544 89.6556 62.3715 89.8949 62.6056 90.057C62.8424 90.2165 63.1421 90.2963 63.5049 90.2963ZM63.5358 84.2443L64.4776 82.4534H65.5429L64.3386 84.2443H63.5358ZM71.7135 87.4092V90.9756H70.8026V85.0471H71.6827V85.9734H71.7598C71.8988 85.6724 72.1098 85.4305 72.3928 85.2478C72.6759 85.0625 73.0413 84.9699 73.489 84.9699C73.8904 84.9699 74.2416 85.0523 74.5427 85.2169C74.8437 85.379 75.0779 85.6261 75.2451 85.958C75.4124 86.2874 75.496 86.7042 75.496 87.2085V90.9756H74.5851V87.2703C74.5851 86.8046 74.4642 86.4417 74.2223 86.1819C73.9805 85.9194 73.6485 85.7882 73.2265 85.7882C72.9358 85.7882 72.6759 85.8512 72.4469 85.9773C72.2204 86.1034 72.0416 86.2874 71.9104 86.5292C71.7791 86.7711 71.7135 87.0644 71.7135 87.4092ZM78.9051 91.1145C78.5294 91.1145 78.1885 91.0438 77.8823 90.9023C77.5761 90.7582 77.3329 90.551 77.1528 90.2808C76.9727 90.0081 76.8826 89.6787 76.8826 89.2928C76.8826 88.9531 76.9495 88.6778 77.0833 88.4668C77.2171 88.2532 77.396 88.086 77.6198 87.965C77.8437 87.8441 78.0907 87.754 78.3609 87.6949C78.6336 87.6331 78.9077 87.5842 79.183 87.5482C79.5432 87.5019 79.8353 87.4671 80.0591 87.444C80.2856 87.4182 80.4503 87.3758 80.5532 87.3166C80.6587 87.2574 80.7114 87.1545 80.7114 87.0078V86.9769C80.7114 86.5961 80.6072 86.3002 80.3988 86.0892C80.1929 85.8782 79.8803 85.7727 79.4609 85.7727C79.026 85.7727 78.6851 85.8679 78.4381 86.0583C78.1911 86.2488 78.0174 86.452 77.917 86.6682L77.0524 86.3594C77.2068 85.9992 77.4127 85.7187 77.67 85.518C77.9299 85.3147 78.2129 85.1732 78.5191 85.0934C78.8279 85.0111 79.1315 84.9699 79.43 84.9699C79.6204 84.9699 79.8391 84.9931 80.0862 85.0394C80.3358 85.0831 80.5763 85.1745 80.8079 85.3134C81.0421 85.4524 81.2363 85.6621 81.3907 85.9426C81.5451 86.223 81.6223 86.5987 81.6223 87.0696V90.9756H80.7114V90.1728H80.6651C80.6034 90.3014 80.5004 90.4391 80.3563 90.5858C80.2122 90.7324 80.0205 90.8572 79.7812 90.9601C79.5419 91.0631 79.2499 91.1145 78.9051 91.1145ZM79.044 90.2963C79.4043 90.2963 79.7079 90.2255 79.9549 90.084C80.2045 89.9425 80.3924 89.7598 80.5184 89.5359C80.6471 89.3121 80.7114 89.0766 80.7114 88.8296V87.9959C80.6728 88.0422 80.5879 88.0847 80.4567 88.1233C80.328 88.1593 80.1788 88.1915 80.009 88.2198C79.8417 88.2455 79.6783 88.2687 79.5188 88.2892C79.3618 88.3073 79.2345 88.3227 79.1367 88.3356C78.8999 88.3664 78.6787 88.4166 78.4728 88.4861C78.2695 88.553 78.1049 88.6546 77.9788 88.791C77.8553 88.9248 77.7935 89.1075 77.7935 89.3391C77.7935 89.6556 77.9106 89.8949 78.1447 90.057C78.3815 90.2165 78.6812 90.2963 79.044 90.2963ZM88.92 85.0471V85.819H85.8477V85.0471H88.92ZM86.7432 83.6267H87.654V89.2773C87.654 89.5346 87.6914 89.7276 87.766 89.8563C87.8432 89.9824 87.9409 90.0673 88.0593 90.111C88.1802 90.1522 88.3076 90.1728 88.4414 90.1728C88.5418 90.1728 88.6241 90.1676 88.6884 90.1573C88.7528 90.1445 88.8042 90.1342 88.8428 90.1265L89.0281 90.9447C88.9663 90.9679 88.8801 90.991 88.7695 91.0142C88.6588 91.0399 88.5186 91.0528 88.3488 91.0528C88.0915 91.0528 87.8393 90.9975 87.5923 90.8868C87.3478 90.7762 87.1446 90.6076 86.9825 90.3812C86.8229 90.1548 86.7432 89.8691 86.7432 89.5243V83.6267ZM92.7122 91.0991C92.1409 91.0991 91.6482 90.973 91.2339 90.7208C90.8222 90.4661 90.5044 90.111 90.2806 89.6556C90.0593 89.1976 89.9486 88.6649 89.9486 88.0577C89.9486 87.4504 90.0593 86.9152 90.2806 86.452C90.5044 85.9863 90.8158 85.6235 91.2146 85.3636C91.616 85.1011 92.0843 84.9699 92.6195 84.9699C92.9283 84.9699 93.2332 85.0214 93.5343 85.1243C93.8353 85.2272 94.1094 85.3945 94.3564 85.6261C94.6034 85.8551 94.8003 86.1587 94.9469 86.5369C95.0936 86.9152 95.1669 87.3809 95.1669 87.9342V88.3201H90.5971V87.5327H94.2406C94.2406 87.1982 94.1737 86.8998 94.0399 86.6373C93.9087 86.3748 93.7208 86.1677 93.4764 86.0159C93.2345 85.8641 92.9489 85.7882 92.6195 85.7882C92.2567 85.7882 91.9428 85.8782 91.6778 86.0583C91.4153 86.2359 91.2133 86.4675 91.0718 86.7531C90.9303 87.0387 90.8595 87.3449 90.8595 87.6717V88.1966C90.8595 88.6443 90.9367 89.0239 91.0911 89.3352C91.2481 89.644 91.4655 89.8794 91.7434 90.0415C92.0213 90.2011 92.3442 90.2808 92.7122 90.2808C92.9515 90.2808 93.1676 90.2474 93.3606 90.1805C93.5561 90.111 93.7247 90.0081 93.8662 89.8717C94.0077 89.7328 94.1171 89.5604 94.1943 89.3545L95.0743 89.6015C94.9817 89.9 94.826 90.1625 94.6073 90.3889C94.3886 90.6128 94.1184 90.7877 93.7967 90.9138C93.4751 91.0373 93.1136 91.0991 92.7122 91.0991ZM96.6761 90.9756V83.0709H97.5869V85.9889H97.6641C97.731 85.8859 97.8237 85.7547 97.942 85.5952C98.063 85.4331 98.2354 85.289 98.4592 85.1629C98.6857 85.0342 98.9919 84.9699 99.3778 84.9699C99.877 84.9699 100.317 85.0947 100.698 85.3443C101.079 85.5939 101.376 85.9477 101.589 86.4057C101.803 86.8637 101.91 87.4041 101.91 88.0268C101.91 88.6546 101.803 89.1988 101.589 89.6594C101.376 90.1174 101.08 90.4725 100.702 90.7247C100.323 90.9743 99.8873 91.0991 99.3933 91.0991C99.0125 91.0991 98.7075 91.0361 98.4785 90.91C98.2495 90.7813 98.0733 90.6359 97.9498 90.4738C97.8262 90.3091 97.731 90.1728 97.6641 90.0647H97.5561V90.9756H96.6761ZM97.5715 88.0113C97.5715 88.4591 97.6371 88.854 97.7684 89.1963C97.8996 89.5359 98.0913 89.8022 98.3434 89.9952C98.5956 90.1856 98.9044 90.2808 99.2698 90.2808C99.6506 90.2808 99.9684 90.1805 100.223 89.9798C100.48 89.7765 100.673 89.5038 100.802 89.1615C100.933 88.8167 100.999 88.4333 100.999 88.0113C100.999 87.5945 100.935 87.2188 100.806 86.8843C100.68 86.5472 100.488 86.2809 100.231 86.0854C99.9761 85.8872 99.6557 85.7882 99.2698 85.7882C98.8992 85.7882 98.5879 85.8821 98.3357 86.0699C98.0836 86.2552 97.8931 86.5151 97.7645 86.8496C97.6358 87.1815 97.5715 87.5688 97.5715 88.0113ZM105.048 91.1145C104.672 91.1145 104.331 91.0438 104.025 90.9023C103.719 90.7582 103.476 90.551 103.295 90.2808C103.115 90.0081 103.025 89.6787 103.025 89.2928C103.025 88.9531 103.092 88.6778 103.226 88.4668C103.36 88.2532 103.539 88.086 103.762 87.965C103.986 87.8441 104.233 87.754 104.504 87.6949C104.776 87.6331 105.05 87.5842 105.326 87.5482C105.686 87.5019 105.978 87.4671 106.202 87.444C106.428 87.4182 106.593 87.3758 106.696 87.3166C106.801 87.2574 106.854 87.1545 106.854 87.0078V86.9769C106.854 86.5961 106.75 86.3002 106.541 86.0892C106.336 85.8782 106.023 85.7727 105.604 85.7727C105.169 85.7727 104.828 85.8679 104.581 86.0583C104.334 86.2488 104.16 86.452 104.06 86.6682L103.195 86.3594C103.349 85.9992 103.555 85.7187 103.813 85.518C104.073 85.3147 104.356 85.1732 104.662 85.0934C104.971 85.0111 105.274 84.9699 105.573 84.9699C105.763 84.9699 105.982 84.9931 106.229 85.0394C106.478 85.0831 106.719 85.1745 106.951 85.3134C107.185 85.4524 107.379 85.6621 107.533 85.9426C107.688 86.223 107.765 86.5987 107.765 87.0696V90.9756H106.854V90.1728H106.808C106.746 90.3014 106.643 90.4391 106.499 90.5858C106.355 90.7324 106.163 90.8572 105.924 90.9601C105.685 91.0631 105.393 91.1145 105.048 91.1145ZM105.187 90.2963C105.547 90.2963 105.851 90.2255 106.098 90.084C106.347 89.9425 106.535 89.7598 106.661 89.5359C106.79 89.3121 106.854 89.0766 106.854 88.8296V87.9959C106.815 88.0422 106.731 88.0847 106.599 88.1233C106.471 88.1593 106.321 88.1915 106.152 88.2198C105.984 88.2455 105.821 88.2687 105.661 88.2892C105.504 88.3073 105.377 88.3227 105.279 88.3356C105.043 88.3664 104.821 88.4166 104.615 88.4861C104.412 88.553 104.247 88.6546 104.121 88.791C103.998 88.9248 103.936 89.1075 103.936 89.3391C103.936 89.6556 104.053 89.8949 104.287 90.057C104.524 90.2165 104.824 90.2963 105.187 90.2963ZM113.395 87.4092V90.9756H112.484V85.0471H113.364V85.9734H113.442C113.581 85.6724 113.792 85.4305 114.075 85.2478C114.358 85.0625 114.723 84.9699 115.171 84.9699C115.572 84.9699 115.923 85.0523 116.224 85.2169C116.525 85.379 116.76 85.6261 116.927 85.958C117.094 86.2874 117.178 86.7042 117.178 87.2085V90.9756H116.267V87.2703C116.267 86.8046 116.146 86.4417 115.904 86.1819C115.662 85.9194 115.33 85.7882 114.908 85.7882C114.617 85.7882 114.358 85.8512 114.129 85.9773C113.902 86.1034 113.723 86.2874 113.592 86.5292C113.461 86.7711 113.395 87.0644 113.395 87.4092ZM121.251 91.0991C120.715 91.0991 120.246 90.9717 119.842 90.717C119.44 90.4622 119.127 90.1059 118.9 89.6479C118.676 89.1898 118.564 88.6546 118.564 88.0422C118.564 87.4247 118.676 86.8856 118.9 86.425C119.127 85.9644 119.44 85.6068 119.842 85.352C120.246 85.0973 120.715 84.9699 121.251 84.9699C121.786 84.9699 122.254 85.0973 122.656 85.352C123.06 85.6068 123.374 85.9644 123.597 86.425C123.824 86.8856 123.937 87.4247 123.937 88.0422C123.937 88.6546 123.824 89.1898 123.597 89.6479C123.374 90.1059 123.06 90.4622 122.656 90.717C122.254 90.9717 121.786 91.0991 121.251 91.0991ZM121.251 90.2808C121.657 90.2808 121.992 90.1766 122.254 89.9682C122.517 89.7598 122.711 89.4857 122.837 89.1461C122.963 88.8064 123.026 88.4385 123.026 88.0422C123.026 87.646 122.963 87.2767 122.837 86.9345C122.711 86.5923 122.517 86.3157 122.254 86.1047C121.992 85.8937 121.657 85.7882 121.251 85.7882C120.844 85.7882 120.51 85.8937 120.247 86.1047C119.985 86.3157 119.79 86.5923 119.664 86.9345C119.538 87.2767 119.475 87.646 119.475 88.0422C119.475 88.4385 119.538 88.8064 119.664 89.1461C119.79 89.4857 119.985 89.7598 120.247 89.9682C120.51 90.1766 120.844 90.2808 121.251 90.2808ZM129.963 85.0471L127.771 90.9756H126.844L124.652 85.0471H125.64L127.277 89.7714H127.338L128.975 85.0471H129.963ZM132.729 91.1145C132.354 91.1145 132.013 91.0438 131.707 90.9023C131.4 90.7582 131.157 90.551 130.977 90.2808C130.797 90.0081 130.707 89.6787 130.707 89.2928C130.707 88.9531 130.774 88.6778 130.908 88.4668C131.041 88.2532 131.22 88.086 131.444 87.965C131.668 87.8441 131.915 87.754 132.185 87.6949C132.458 87.6331 132.732 87.5842 133.007 87.5482C133.368 87.5019 133.66 87.4671 133.883 87.444C134.11 87.4182 134.275 87.3758 134.377 87.3166C134.483 87.2574 134.536 87.1545 134.536 87.0078V86.9769C134.536 86.5961 134.432 86.3002 134.223 86.0892C134.017 85.8782 133.705 85.7727 133.285 85.7727C132.85 85.7727 132.509 85.8679 132.262 86.0583C132.015 86.2488 131.842 86.452 131.741 86.6682L130.877 86.3594C131.031 85.9992 131.237 85.7187 131.494 85.518C131.754 85.3147 132.037 85.1732 132.343 85.0934C132.652 85.0111 132.956 84.9699 133.254 84.9699C133.445 84.9699 133.663 84.9931 133.91 85.0394C134.16 85.0831 134.401 85.1745 134.632 85.3134C134.866 85.4524 135.061 85.6621 135.215 85.9426C135.369 86.223 135.447 86.5987 135.447 87.0696V90.9756H134.536V90.1728H134.489C134.428 90.3014 134.325 90.4391 134.181 90.5858C134.037 90.7324 133.845 90.8572 133.606 90.9601C133.366 91.0631 133.074 91.1145 132.729 91.1145ZM132.868 90.2963C133.229 90.2963 133.532 90.2255 133.779 90.084C134.029 89.9425 134.217 89.7598 134.343 89.5359C134.471 89.3121 134.536 89.0766 134.536 88.8296V87.9959C134.497 88.0422 134.412 88.0847 134.281 88.1233C134.152 88.1593 134.003 88.1915 133.833 88.2198C133.666 88.2455 133.503 88.2687 133.343 88.2892C133.186 88.3073 133.059 88.3227 132.961 88.3356C132.724 88.3664 132.503 88.4166 132.297 88.4861C132.094 88.553 131.929 88.6546 131.803 88.791C131.68 88.9248 131.618 89.1075 131.618 89.3391C131.618 89.6556 131.735 89.8949 131.969 90.057C132.206 90.2165 132.506 90.2963 132.868 90.2963ZM132.899 84.2443L133.841 82.4534H134.906L133.702 84.2443H132.899ZM142.744 85.0471V85.819H139.672V85.0471H142.744ZM140.567 83.6267H141.478V89.2773C141.478 89.5346 141.516 89.7276 141.59 89.8563C141.667 89.9824 141.765 90.0673 141.884 90.111C142.005 90.1522 142.132 90.1728 142.266 90.1728C142.366 90.1728 142.448 90.1676 142.513 90.1573C142.577 90.1445 142.629 90.1342 142.667 90.1265L142.852 90.9447C142.791 90.9679 142.704 90.991 142.594 91.0142C142.483 91.0399 142.343 91.0528 142.173 91.0528C141.916 91.0528 141.664 90.9975 141.417 90.8868C141.172 90.7762 140.969 90.6076 140.807 90.3812C140.647 90.1548 140.567 89.8691 140.567 89.5243V83.6267ZM144.701 93.1988C144.547 93.1988 144.409 93.1859 144.288 93.1602C144.167 93.137 144.084 93.1139 144.037 93.0907L144.269 92.2879C144.49 92.3445 144.686 92.3651 144.856 92.3496C145.025 92.3342 145.176 92.2583 145.307 92.1219C145.441 91.9881 145.563 91.7707 145.674 91.4696L145.844 91.0065L143.651 85.0471H144.639L146.276 89.7714H146.338L147.974 85.0471H148.962L146.446 91.8402C146.333 92.1464 146.192 92.3998 146.025 92.6005C145.858 92.8038 145.664 92.9543 145.442 93.0521C145.224 93.1499 144.977 93.1988 144.701 93.1988ZM145.89 84.2443L146.832 82.4534H147.897L146.693 84.2443H145.89ZM149.995 90.9756V90.2808L153.36 85.958V85.8962H150.103V85.0471H154.534V85.7727L151.261 90.0647V90.1265H154.642V90.9756H149.995ZM151.461 82.6695L152.264 83.7503L153.067 82.6695H153.932V82.7313L152.681 84.3369H151.847L150.597 82.7313V82.6695H151.461ZM158.114 91.0991C157.62 91.0991 157.183 90.9743 156.805 90.7247C156.427 90.4725 156.131 90.1174 155.917 89.6594C155.704 89.1988 155.597 88.6546 155.597 88.0268C155.597 87.4041 155.704 86.8637 155.917 86.4057C156.131 85.9477 156.428 85.5939 156.809 85.3443C157.19 85.0947 157.63 84.9699 158.129 84.9699C158.515 84.9699 158.82 85.0342 159.044 85.1629C159.27 85.289 159.443 85.4331 159.561 85.5952C159.682 85.7547 159.776 85.8859 159.843 85.9889H159.92V83.0709H160.831V90.9756H159.951V90.0647H159.843C159.776 90.1728 159.681 90.3091 159.557 90.4738C159.434 90.6359 159.257 90.7813 159.028 90.91C158.799 91.0361 158.494 91.0991 158.114 91.0991ZM158.237 90.2808C158.602 90.2808 158.911 90.1856 159.163 89.9952C159.416 89.8022 159.607 89.5359 159.739 89.1963C159.87 88.854 159.935 88.4591 159.935 88.0113C159.935 87.5688 159.871 87.1815 159.742 86.8496C159.614 86.5151 159.423 86.2552 159.171 86.0699C158.919 85.8821 158.608 85.7882 158.237 85.7882C157.851 85.7882 157.53 85.8872 157.272 86.0854C157.017 86.2809 156.826 86.5472 156.697 86.8843C156.571 87.2188 156.508 87.5945 156.508 88.0113C156.508 88.4333 156.572 88.8167 156.701 89.1615C156.832 89.5038 157.025 89.7765 157.28 89.9798C157.537 90.1805 157.856 90.2808 158.237 90.2808ZM165.111 91.0991C164.54 91.0991 164.047 90.973 163.633 90.7208C163.221 90.4661 162.903 90.111 162.68 89.6556C162.458 89.1976 162.348 88.6649 162.348 88.0577C162.348 87.4504 162.458 86.9152 162.68 86.452C162.903 85.9863 163.215 85.6235 163.614 85.3636C164.015 85.1011 164.483 84.9699 165.019 84.9699C165.327 84.9699 165.632 85.0214 165.933 85.1243C166.234 85.2272 166.508 85.3945 166.755 85.6261C167.002 85.8551 167.199 86.1587 167.346 86.5369C167.493 86.9152 167.566 87.3809 167.566 87.9342V88.3201H162.996V87.5327H166.64C166.64 87.1982 166.573 86.8998 166.439 86.6373C166.308 86.3748 166.12 86.1677 165.875 86.0159C165.634 85.8641 165.348 85.7882 165.019 85.7882C164.656 85.7882 164.342 85.8782 164.077 86.0583C163.814 86.2359 163.612 86.4675 163.471 86.7531C163.329 87.0387 163.259 87.3449 163.259 87.6717V88.1966C163.259 88.6443 163.336 89.0239 163.49 89.3352C163.647 89.644 163.865 89.8794 164.142 90.0415C164.42 90.2011 164.743 90.2808 165.111 90.2808C165.351 90.2808 165.567 90.2474 165.76 90.1805C165.955 90.111 166.124 90.0081 166.265 89.8717C166.407 89.7328 166.516 89.5604 166.593 89.3545L167.473 89.6015C167.381 89.9 167.225 90.1625 167.006 90.3889C166.788 90.6128 166.517 90.7877 166.196 90.9138C165.874 91.0373 165.513 91.0991 165.111 91.0991ZM169.862 87.4092V90.9756H168.952V85.0471H169.832V85.9734H169.909C170.048 85.6724 170.259 85.4305 170.542 85.2478C170.825 85.0625 171.19 84.9699 171.638 84.9699C172.039 84.9699 172.391 85.0523 172.692 85.2169C172.993 85.379 173.227 85.6261 173.394 85.958C173.561 86.2874 173.645 86.7042 173.645 87.2085V90.9756H172.734V87.2703C172.734 86.8046 172.613 86.4417 172.371 86.1819C172.129 85.9194 171.797 85.7882 171.375 85.7882C171.085 85.7882 170.825 85.8512 170.596 85.9773C170.369 86.1034 170.191 86.2874 170.059 86.5292C169.928 86.7711 169.862 87.0644 169.862 87.4092ZM176.22 87.4092V90.9756H175.309V85.0471H176.189V85.9734H176.267C176.406 85.6724 176.617 85.4305 176.9 85.2478C177.183 85.0625 177.548 84.9699 177.996 84.9699C178.397 84.9699 178.748 85.0523 179.05 85.2169C179.351 85.379 179.585 85.6261 179.752 85.958C179.919 86.2874 180.003 86.7042 180.003 87.2085V90.9756H179.092V87.2703C179.092 86.8046 178.971 86.4417 178.729 86.1819C178.487 85.9194 178.155 85.7882 177.733 85.7882C177.443 85.7882 177.183 85.8512 176.954 85.9773C176.727 86.1034 176.548 86.2874 176.417 86.5292C176.286 86.7711 176.22 87.0644 176.22 87.4092ZM183.412 91.1145C183.036 91.1145 182.695 91.0438 182.389 90.9023C182.083 90.7582 181.84 90.551 181.66 90.2808C181.48 90.0081 181.389 89.6787 181.389 89.2928C181.389 88.9531 181.456 88.6778 181.59 88.4668C181.724 88.2532 181.903 88.086 182.127 87.965C182.351 87.8441 182.598 87.754 182.868 87.6949C183.14 87.6331 183.414 87.5842 183.69 87.5482C184.05 87.5019 184.342 87.4671 184.566 87.444C184.792 87.4182 184.957 87.3758 185.06 87.3166C185.166 87.2574 185.218 87.1545 185.218 87.0078V86.9769C185.218 86.5961 185.114 86.3002 184.906 86.0892C184.7 85.8782 184.387 85.7727 183.968 85.7727C183.533 85.7727 183.192 85.8679 182.945 86.0583C182.698 86.2488 182.524 86.452 182.424 86.6682L181.559 86.3594C181.714 85.9992 181.92 85.7187 182.177 85.518C182.437 85.3147 182.72 85.1732 183.026 85.0934C183.335 85.0111 183.638 84.9699 183.937 84.9699C184.127 84.9699 184.346 84.9931 184.593 85.0394C184.843 85.0831 185.083 85.1745 185.315 85.3134C185.549 85.4524 185.743 85.6621 185.898 85.9426C186.052 86.223 186.129 86.5987 186.129 87.0696V90.9756H185.218V90.1728H185.172C185.11 90.3014 185.007 90.4391 184.863 90.5858C184.719 90.7324 184.527 90.8572 184.288 90.9601C184.049 91.0631 183.757 91.1145 183.412 91.1145ZM183.551 90.2963C183.911 90.2963 184.215 90.2255 184.462 90.084C184.711 89.9425 184.899 89.7598 185.025 89.5359C185.154 89.3121 185.218 89.0766 185.218 88.8296V87.9959C185.18 88.0422 185.095 88.0847 184.964 88.1233C184.835 88.1593 184.686 88.1915 184.516 88.2198C184.349 88.2455 184.185 88.2687 184.026 88.2892C183.869 88.3073 183.741 88.3227 183.644 88.3356C183.407 88.3664 183.185 88.4166 182.98 88.4861C182.776 88.553 182.612 88.6546 182.486 88.791C182.362 88.9248 182.3 89.1075 182.3 89.3391C182.3 89.6556 182.417 89.8949 182.652 90.057C182.888 90.2165 183.188 90.2963 183.551 90.2963ZM183.582 84.2443L184.524 82.4534H185.589L184.385 84.2443H183.582ZM195.696 85.0471L193.504 90.9756H192.578L190.385 85.0471H191.374L193.01 89.7714H193.072L194.708 85.0471H195.696ZM197.485 93.1988C197.331 93.1988 197.193 93.1859 197.072 93.1602C196.951 93.137 196.868 93.1139 196.821 93.0907L197.053 92.2879C197.274 92.3445 197.47 92.3651 197.64 92.3496C197.81 92.3342 197.96 92.2583 198.091 92.1219C198.225 91.9881 198.347 91.7707 198.458 91.4696L198.628 91.0065L196.435 85.0471H197.424L199.06 89.7714H199.122L200.758 85.0471H201.746L199.23 91.8402C199.117 92.1464 198.976 92.3998 198.809 92.6005C198.642 92.8038 198.448 92.9543 198.226 93.0521C198.008 93.1499 197.761 93.1988 197.485 93.1988ZM198.674 84.2443L199.616 82.4534H200.681L199.477 84.2443H198.674ZM202.779 90.9756V90.2808L206.145 85.958V85.8962H202.887V85.0471H207.318V85.7727L204.045 90.0647V90.1265H207.426V90.9756H202.779ZM213.677 85.0471L211.484 90.9756H210.558L208.366 85.0471H209.354L210.99 89.7714H211.052L212.689 85.0471H213.677ZM216.443 91.1145C216.067 91.1145 215.727 91.0438 215.42 90.9023C215.114 90.7582 214.871 90.551 214.691 90.2808C214.511 90.0081 214.421 89.6787 214.421 89.2928C214.421 88.9531 214.488 88.6778 214.621 88.4668C214.755 88.2532 214.934 88.086 215.158 87.965C215.382 87.8441 215.629 87.754 215.899 87.6949C216.172 87.6331 216.446 87.5842 216.721 87.5482C217.081 87.5019 217.373 87.4671 217.597 87.444C217.824 87.4182 217.988 87.3758 218.091 87.3166C218.197 87.2574 218.249 87.1545 218.249 87.0078V86.9769C218.249 86.5961 218.145 86.3002 217.937 86.0892C217.731 85.8782 217.418 85.7727 216.999 85.7727C216.564 85.7727 216.223 85.8679 215.976 86.0583C215.729 86.2488 215.555 86.452 215.455 86.6682L214.59 86.3594C214.745 85.9992 214.951 85.7187 215.208 85.518C215.468 85.3147 215.751 85.1732 216.057 85.0934C216.366 85.0111 216.67 84.9699 216.968 84.9699C217.158 84.9699 217.377 84.9931 217.624 85.0394C217.874 85.0831 218.114 85.1745 218.346 85.3134C218.58 85.4524 218.774 85.6621 218.929 85.9426C219.083 86.223 219.16 86.5987 219.16 87.0696V90.9756H218.249V90.1728H218.203C218.141 90.3014 218.038 90.4391 217.894 90.5858C217.75 90.7324 217.559 90.8572 217.319 90.9601C217.08 91.0631 216.788 91.1145 216.443 91.1145ZM216.582 90.2963C216.942 90.2963 217.246 90.2255 217.493 90.084C217.743 89.9425 217.93 89.7598 218.056 89.5359C218.185 89.3121 218.249 89.0766 218.249 88.8296V87.9959C218.211 88.0422 218.126 88.0847 217.995 88.1233C217.866 88.1593 217.717 88.1915 217.547 88.2198C217.38 88.2455 217.216 88.2687 217.057 88.2892C216.9 88.3073 216.772 88.3227 216.675 88.3356C216.438 88.3664 216.217 88.4166 216.011 88.4861C215.808 88.553 215.643 88.6546 215.517 88.791C215.393 88.9248 215.332 89.1075 215.332 89.3391C215.332 89.6556 215.449 89.8949 215.683 90.057C215.92 90.2165 216.219 90.2963 216.582 90.2963ZM222.027 83.0709L221.95 88.7524H221.055L220.977 83.0709H222.027ZM221.502 91.0373C221.312 91.0373 221.148 90.9692 221.012 90.8328C220.876 90.6964 220.807 90.533 220.807 90.3426C220.807 90.1522 220.876 89.9888 221.012 89.8524C221.148 89.716 221.312 89.6479 221.502 89.6479C221.693 89.6479 221.856 89.716 221.992 89.8524C222.129 89.9888 222.197 90.1522 222.197 90.3426C222.197 90.4687 222.165 90.5845 222.1 90.69C222.039 90.7955 221.955 90.8804 221.85 90.9447C221.747 91.0065 221.631 91.0373 221.502 91.0373ZM227.028 90.9756V83.0709H229.792C230.343 83.0709 230.797 83.1662 231.154 83.3566C231.512 83.5444 231.778 83.7979 231.953 84.1169C232.128 84.4334 232.216 84.7846 232.216 85.1706C232.216 85.5103 232.155 85.7907 232.034 86.012C231.916 86.2333 231.759 86.4083 231.563 86.5369C231.37 86.6656 231.161 86.7608 230.934 86.8226V86.8998C231.176 86.9152 231.419 87.0001 231.664 87.1545C231.908 87.3089 232.113 87.5302 232.277 87.8184C232.442 88.1066 232.525 88.4591 232.525 88.8759C232.525 89.2722 232.434 89.6286 232.254 89.945C232.074 90.2615 231.79 90.5124 231.401 90.6977C231.013 90.883 230.507 90.9756 229.884 90.9756H227.028ZM227.986 90.1265H229.884C230.51 90.1265 230.954 90.0055 231.216 89.7636C231.481 89.5192 231.614 89.2233 231.614 88.8759C231.614 88.6083 231.545 88.3613 231.409 88.1349C231.273 87.9058 231.078 87.7232 230.826 87.5868C230.574 87.4478 230.276 87.3784 229.931 87.3784H227.986V90.1265ZM227.986 86.5447H229.761C230.049 86.5447 230.309 86.4881 230.541 86.3748C230.775 86.2616 230.96 86.1021 231.096 85.8962C231.235 85.6904 231.305 85.4485 231.305 85.1706C231.305 84.8232 231.184 84.5286 230.942 84.2867C230.7 84.0423 230.317 83.9201 229.792 83.9201H227.986V86.5447ZM237.71 88.5517V85.0471H238.621V90.9756H237.71V89.9721H237.648C237.509 90.2731 237.293 90.5291 237 90.7401C236.706 90.9486 236.336 91.0528 235.888 91.0528C235.518 91.0528 235.188 90.9717 234.9 90.8096C234.612 90.6449 234.386 90.3979 234.221 90.0686C234.056 89.7366 233.974 89.3185 233.974 88.8142V85.0471H234.885V88.7524C234.885 89.1847 235.006 89.5295 235.248 89.7868C235.492 90.0441 235.803 90.1728 236.182 90.1728C236.408 90.1728 236.638 90.1149 236.872 89.9991C237.109 89.8833 237.307 89.7057 237.467 89.4664C237.629 89.2271 237.71 88.9222 237.71 88.5517ZM242.528 91.0991C242.034 91.0991 241.598 90.9743 241.219 90.7247C240.841 90.4725 240.545 90.1174 240.332 89.6594C240.118 89.1988 240.011 88.6546 240.011 88.0268C240.011 87.4041 240.118 86.8637 240.332 86.4057C240.545 85.9477 240.842 85.5939 241.223 85.3443C241.604 85.0947 242.044 84.9699 242.543 84.9699C242.929 84.9699 243.234 85.0342 243.458 85.1629C243.684 85.289 243.857 85.4331 243.975 85.5952C244.096 85.7547 244.19 85.8859 244.257 85.9889H244.334V83.0709H245.245V90.9756H244.365V90.0647H244.257C244.19 90.1728 244.095 90.3091 243.971 90.4738C243.848 90.6359 243.672 90.7813 243.443 90.91C243.214 91.0361 242.909 91.0991 242.528 91.0991ZM242.651 90.2808C243.017 90.2808 243.326 90.1856 243.578 89.9952C243.83 89.8022 244.022 89.5359 244.153 89.1963C244.284 88.854 244.35 88.4591 244.35 88.0113C244.35 87.5688 244.285 87.1815 244.157 86.8496C244.028 86.5151 243.838 86.2552 243.585 86.0699C243.333 85.8821 243.022 85.7882 242.651 85.7882C242.265 85.7882 241.944 85.8872 241.686 86.0854C241.432 86.2809 241.24 86.5472 241.111 86.8843C240.985 87.2188 240.922 87.5945 240.922 88.0113C240.922 88.4333 240.987 88.8167 241.115 89.1615C241.246 89.5038 241.439 89.7765 241.694 89.9798C241.951 90.1805 242.271 90.2808 242.651 90.2808ZM246.002 84.6997V82.7004H246.936L246.665 84.6997H246.002ZM41.6774 108.199V100.047H42.5575V100.989H42.6655C42.7324 100.886 42.8251 100.755 42.9434 100.595C43.0644 100.433 43.2368 100.289 43.4606 100.163C43.6871 100.034 43.9933 99.9699 44.3792 99.9699C44.8784 99.9699 45.3184 100.095 45.6992 100.344C46.0801 100.594 46.3773 100.948 46.5908 101.406C46.8044 101.864 46.9112 102.404 46.9112 103.027C46.9112 103.655 46.8044 104.199 46.5908 104.659C46.3773 105.117 46.0813 105.473 45.7031 105.725C45.3248 105.974 44.8887 106.099 44.3947 106.099C44.0138 106.099 43.7089 106.036 43.4799 105.91C43.2509 105.781 43.0746 105.636 42.9511 105.474C42.8276 105.309 42.7324 105.173 42.6655 105.065H42.5883V108.199H41.6774ZM42.5729 103.011C42.5729 103.459 42.6385 103.854 42.7697 104.196C42.901 104.536 43.0927 104.802 43.3448 104.995C43.597 105.186 43.9058 105.281 44.2712 105.281C44.652 105.281 44.9698 105.18 45.2245 104.98C45.4818 104.777 45.6748 104.504 45.8034 104.162C45.9347 103.817 46.0003 103.433 46.0003 103.011C46.0003 102.594 45.936 102.219 45.8073 101.884C45.6812 101.547 45.4895 101.281 45.2322 101.085C44.9775 100.887 44.6571 100.788 44.2712 100.788C43.9006 100.788 43.5893 100.882 43.3371 101.07C43.0849 101.255 42.8945 101.515 42.7659 101.85C42.6372 102.182 42.5729 102.569 42.5729 103.011ZM48.3007 105.976V100.047H49.1807V100.943H49.2424C49.3505 100.649 49.5461 100.411 49.8291 100.229C50.1121 100.046 50.4312 99.9545 50.7863 99.9545C50.8532 99.9545 50.9368 99.9558 51.0372 99.9583C51.1375 99.9609 51.2134 99.9648 51.2649 99.9699V100.896C51.234 100.889 51.1633 100.877 51.0526 100.861C50.9446 100.843 50.83 100.834 50.7091 100.834C50.4209 100.834 50.1636 100.895 49.9372 101.016C49.7133 101.134 49.5358 101.299 49.4045 101.51C49.2759 101.718 49.2116 101.956 49.2116 102.224V105.976H48.3007ZM57.3729 100.047L55.1806 105.976H54.2542L52.0619 100.047H53.05L54.6865 104.771H54.7483L56.3848 100.047H57.3729ZM59.1618 108.199C59.0074 108.199 58.8698 108.186 58.7488 108.16C58.6279 108.137 58.5443 108.114 58.498 108.091L58.7295 107.288C58.9508 107.344 59.1464 107.365 59.3162 107.35C59.486 107.334 59.6366 107.258 59.7678 107.122C59.9016 106.988 60.0238 106.771 60.1345 106.47L60.3043 106.006L58.112 100.047H59.1001L60.7366 104.771H60.7983L62.4348 100.047H63.4229L60.9064 106.84C60.7932 107.146 60.653 107.4 60.4857 107.601C60.3184 107.804 60.1242 107.954 59.9029 108.052C59.6842 108.15 59.4372 108.199 59.1618 108.199ZM60.3506 99.2443L61.2924 97.4534H62.3576L61.1534 99.2443H60.3506ZM65.6123 104.895L65.5506 105.312C65.5068 105.605 65.4399 105.919 65.3499 106.253C65.2624 106.588 65.171 106.903 65.0758 107.199C64.9806 107.495 64.9021 107.73 64.8404 107.905H64.1456C64.1791 107.741 64.2228 107.523 64.2769 107.253C64.3309 106.983 64.385 106.681 64.439 106.346C64.4956 106.014 64.5419 105.675 64.5779 105.327L64.6243 104.895H65.6123ZM72.7653 106.099C72.2095 106.099 71.7309 105.968 71.3295 105.705C70.9281 105.443 70.6193 105.081 70.4032 104.621C70.187 104.16 70.079 103.634 70.079 103.042C70.079 102.44 70.1896 101.909 70.4109 101.448C70.6347 100.985 70.9461 100.623 71.3449 100.364C71.7463 100.101 72.2146 99.9699 72.7499 99.9699C73.1667 99.9699 73.5424 100.047 73.8769 100.201C74.2114 100.356 74.4854 100.572 74.699 100.85C74.9126 101.128 75.0451 101.452 75.0965 101.823H74.1857C74.1162 101.552 73.9618 101.313 73.7225 101.105C73.4858 100.894 73.1667 100.788 72.7653 100.788C72.4102 100.788 72.0989 100.881 71.8313 101.066C71.5662 101.249 71.3591 101.507 71.2098 101.842C71.0632 102.174 70.9898 102.564 70.9898 103.011C70.9898 103.469 71.0619 103.868 71.206 104.208C71.3527 104.548 71.5585 104.811 71.8235 104.999C72.0911 105.187 72.4051 105.281 72.7653 105.281C73.002 105.281 73.2169 105.24 73.4099 105.157C73.6028 105.075 73.7662 104.957 73.9 104.802C74.0338 104.648 74.1291 104.463 74.1857 104.246H75.0965C75.0451 104.596 74.9177 104.912 74.7144 105.192C74.5137 105.47 74.2474 105.691 73.9155 105.856C73.5861 106.018 73.2027 106.099 72.7653 106.099ZM71.9316 97.6695L72.7344 98.7503L73.5372 97.6695H74.4018V97.7313L73.1513 99.3369H72.3176L71.067 97.7313V97.6695H71.9316ZM78.8366 106.099C78.3014 106.099 77.8318 105.972 77.4278 105.717C77.0264 105.462 76.7125 105.106 76.486 104.648C76.2622 104.19 76.1502 103.655 76.1502 103.042C76.1502 102.425 76.2622 101.886 76.486 101.425C76.7125 100.964 77.0264 100.607 77.4278 100.352C77.8318 100.097 78.3014 99.9699 78.8366 99.9699C79.3718 99.9699 79.8401 100.097 80.2415 100.352C80.6455 100.607 80.9594 100.964 81.1833 101.425C81.4097 101.886 81.5229 102.425 81.5229 103.042C81.5229 103.655 81.4097 104.19 81.1833 104.648C80.9594 105.106 80.6455 105.462 80.2415 105.717C79.8401 105.972 79.3718 106.099 78.8366 106.099ZM78.8366 105.281C79.2431 105.281 79.5776 105.177 79.8401 104.968C80.1026 104.76 80.2968 104.486 80.4229 104.146C80.549 103.806 80.612 103.438 80.612 103.042C80.612 102.646 80.549 102.277 80.4229 101.934C80.2968 101.592 80.1026 101.316 79.8401 101.105C79.5776 100.894 79.2431 100.788 78.8366 100.788C78.43 100.788 78.0955 100.894 77.8331 101.105C77.5706 101.316 77.3763 101.592 77.2503 101.934C77.1242 102.277 77.0611 102.646 77.0611 103.042C77.0611 103.438 77.1242 103.806 77.2503 104.146C77.3763 104.486 77.5706 104.76 77.8331 104.968C78.0955 105.177 78.43 105.281 78.8366 105.281ZM85.9703 100.047H86.8811V106.408C86.8811 106.773 86.8181 107.09 86.692 107.357C86.5685 107.625 86.3807 107.832 86.1285 107.979C85.8789 108.125 85.5637 108.199 85.1829 108.199C85.152 108.199 85.1211 108.199 85.0902 108.199C85.0594 108.199 85.0285 108.199 84.9976 108.199V107.35C85.0285 107.35 85.0568 107.35 85.0825 107.35C85.1083 107.35 85.1366 107.35 85.1674 107.35C85.4453 107.35 85.6486 107.267 85.7773 107.103C85.9059 106.941 85.9703 106.709 85.9703 106.408V100.047ZM86.418 99.059C86.2404 99.059 86.0873 98.9986 85.9587 98.8776C85.8326 98.7567 85.7695 98.6113 85.7695 98.4415C85.7695 98.2716 85.8326 98.1263 85.9587 98.0053C86.0873 97.8844 86.2404 97.8239 86.418 97.8239C86.5955 97.8239 86.7473 97.8844 86.8734 98.0053C87.0021 98.1263 87.0664 98.2716 87.0664 98.4415C87.0664 98.6113 87.0021 98.7567 86.8734 98.8776C86.7473 98.9986 86.5955 99.059 86.418 99.059ZM92.2857 103.552V100.047H93.1966V105.976H92.2857V104.972H92.2239C92.085 105.273 91.8688 105.529 91.5755 105.74C91.2821 105.949 90.9116 106.053 90.4639 106.053C90.0934 106.053 89.764 105.972 89.4758 105.81C89.1876 105.645 88.9612 105.398 88.7965 105.069C88.6318 104.737 88.5495 104.318 88.5495 103.814V100.047H89.4604V103.752C89.4604 104.185 89.5813 104.529 89.8232 104.787C90.0676 105.044 90.379 105.173 90.7572 105.173C90.9837 105.173 91.214 105.115 91.4481 104.999C91.6848 104.883 91.883 104.706 92.0425 104.466C92.2046 104.227 92.2857 103.922 92.2857 103.552ZM102.121 101.375L101.303 101.606C101.251 101.47 101.175 101.338 101.075 101.209C100.977 101.078 100.844 100.97 100.674 100.885C100.504 100.8 100.286 100.757 100.021 100.757C99.6586 100.757 99.3563 100.841 99.1144 101.008C98.8751 101.173 98.7555 101.383 98.7555 101.637C98.7555 101.864 98.8378 102.043 99.0025 102.174C99.1672 102.305 99.4245 102.414 99.7744 102.502L100.654 102.718C101.184 102.847 101.579 103.044 101.839 103.309C102.099 103.571 102.229 103.909 102.229 104.324C102.229 104.663 102.131 104.967 101.936 105.235C101.743 105.502 101.473 105.713 101.125 105.868C100.778 106.022 100.374 106.099 99.9134 106.099C99.3087 106.099 98.8082 105.968 98.412 105.705C98.0157 105.443 97.7648 105.06 97.6593 104.555L98.5239 104.339C98.6062 104.658 98.7619 104.897 98.9909 105.057C99.2225 105.217 99.5248 105.296 99.8979 105.296C100.322 105.296 100.66 105.206 100.909 105.026C101.161 104.843 101.287 104.625 101.287 104.37C101.287 104.164 101.215 103.992 101.071 103.853C100.927 103.711 100.706 103.606 100.407 103.536L99.4193 103.305C98.8764 103.176 98.4776 102.977 98.2228 102.706C97.9707 102.434 97.8446 102.093 97.8446 101.684C97.8446 101.349 97.9385 101.053 98.1263 100.796C98.3167 100.539 98.5753 100.337 98.9021 100.19C99.2315 100.043 99.6046 99.9699 100.021 99.9699C100.608 99.9699 101.069 100.099 101.403 100.356C101.74 100.613 101.98 100.953 102.121 101.375ZM103.6 108.199V100.047H104.48V100.989H104.588C104.655 100.886 104.748 100.755 104.866 100.595C104.987 100.433 105.16 100.289 105.384 100.163C105.61 100.034 105.916 99.9699 106.302 99.9699C106.801 99.9699 107.241 100.095 107.622 100.344C108.003 100.594 108.3 100.948 108.514 101.406C108.727 101.864 108.834 102.404 108.834 103.027C108.834 103.655 108.727 104.199 108.514 104.659C108.3 105.117 108.004 105.473 107.626 105.725C107.248 105.974 106.812 106.099 106.318 106.099C105.937 106.099 105.632 106.036 105.403 105.91C105.174 105.781 104.998 105.636 104.874 105.474C104.751 105.309 104.655 105.173 104.588 105.065H104.511V108.199H103.6ZM104.496 103.011C104.496 103.459 104.561 103.854 104.693 104.196C104.824 104.536 105.016 104.802 105.268 104.995C105.52 105.186 105.829 105.281 106.194 105.281C106.575 105.281 106.893 105.18 107.147 104.98C107.405 104.777 107.598 104.504 107.726 104.162C107.858 103.817 107.923 103.433 107.923 103.011C107.923 102.594 107.859 102.219 107.73 101.884C107.604 101.547 107.412 101.281 107.155 101.085C106.9 100.887 106.58 100.788 106.194 100.788C105.824 100.788 105.512 100.882 105.26 101.07C105.008 101.255 104.817 101.515 104.689 101.85C104.56 102.182 104.496 102.569 104.496 103.011ZM110.224 105.976V100.047H111.104V100.943H111.165C111.273 100.649 111.469 100.411 111.752 100.229C112.035 100.046 112.354 99.9545 112.709 99.9545C112.776 99.9545 112.86 99.9558 112.96 99.9583C113.06 99.9609 113.136 99.9648 113.188 99.9699V100.896C113.157 100.889 113.086 100.877 112.976 100.861C112.867 100.843 112.753 100.834 112.632 100.834C112.344 100.834 112.087 100.895 111.86 101.016C111.636 101.134 111.459 101.299 111.327 101.51C111.199 101.718 111.134 101.956 111.134 102.224V105.976H110.224ZM116.012 106.115C115.636 106.115 115.296 106.044 114.989 105.902C114.683 105.758 114.44 105.551 114.26 105.281C114.08 105.008 113.99 104.679 113.99 104.293C113.99 103.953 114.057 103.678 114.19 103.467C114.324 103.253 114.503 103.086 114.727 102.965C114.951 102.844 115.198 102.754 115.468 102.695C115.741 102.633 116.015 102.584 116.29 102.548C116.65 102.502 116.942 102.467 117.166 102.444C117.393 102.418 117.557 102.376 117.66 102.317C117.766 102.257 117.818 102.154 117.818 102.008V101.977C117.818 101.596 117.714 101.3 117.506 101.089C117.3 100.878 116.987 100.773 116.568 100.773C116.133 100.773 115.792 100.868 115.545 101.058C115.298 101.249 115.124 101.452 115.024 101.668L114.159 101.359C114.314 100.999 114.52 100.719 114.777 100.518C115.037 100.315 115.32 100.173 115.626 100.093C115.935 100.011 116.239 99.9699 116.537 99.9699C116.727 99.9699 116.946 99.9931 117.193 100.039C117.443 100.083 117.683 100.174 117.915 100.313C118.149 100.452 118.343 100.662 118.498 100.943C118.652 101.223 118.729 101.599 118.729 102.07V105.976H117.818V105.173H117.772C117.71 105.301 117.607 105.439 117.463 105.586C117.319 105.732 117.128 105.857 116.888 105.96C116.649 106.063 116.357 106.115 116.012 106.115ZM116.151 105.296C116.511 105.296 116.815 105.226 117.062 105.084C117.312 104.942 117.499 104.76 117.625 104.536C117.754 104.312 117.818 104.077 117.818 103.83V102.996C117.78 103.042 117.695 103.085 117.564 103.123C117.435 103.159 117.286 103.191 117.116 103.22C116.949 103.246 116.785 103.269 116.626 103.289C116.469 103.307 116.341 103.323 116.244 103.336C116.007 103.366 115.786 103.417 115.58 103.486C115.377 103.553 115.212 103.655 115.086 103.791C114.962 103.925 114.901 104.107 114.901 104.339C114.901 104.656 115.018 104.895 115.252 105.057C115.489 105.217 115.788 105.296 116.151 105.296ZM125.027 100.047L122.835 105.976H121.909L119.716 100.047H120.705L122.341 104.771H122.403L124.039 100.047H125.027ZM126.23 105.976V100.047H127.141V105.976H126.23ZM126.276 99.2443L127.218 97.4534H128.283L127.079 99.2443H126.276ZM130.013 98.0709L129.936 103.752H129.041L128.963 98.0709H130.013ZM129.488 106.037C129.298 106.037 129.134 105.969 128.998 105.833C128.862 105.696 128.793 105.533 128.793 105.343C128.793 105.152 128.862 104.989 128.998 104.852C129.134 104.716 129.298 104.648 129.488 104.648C129.679 104.648 129.842 104.716 129.978 104.852C130.115 104.989 130.183 105.152 130.183 105.343C130.183 105.469 130.151 105.584 130.086 105.69C130.025 105.795 129.941 105.88 129.836 105.945C129.733 106.006 129.617 106.037 129.488 106.037Z" fill="#161616"/>
<path d="M267.579 222.939H28.4219V224.492H267.579V222.939Z" fill="#E9E9E9" mask="url(#path-9-inside-1_2101_22035)"/>
</g>
</g>
</g>
<g filter="url(#filter0_d_2101_22035)">
<rect x="174" y="10.4561" width="97.5771" height="37.4655" rx="7" fill="white" shape-rendering="crispEdges"/>
<path d="M192.514 31.9232V30.5527L196.551 24.1737H197.694V26.125H196.997L194.279 30.4319V30.5062H199.915V31.9232H192.514ZM197.053 33.6887V31.5051L197.071 30.8918V24.1737H198.697V33.6887H197.053ZM204.707 33.8188C204.088 33.8188 203.533 33.7027 203.044 33.4704C202.554 33.235 202.166 32.9128 201.878 32.504C201.593 32.0951 201.441 31.6274 201.422 31.1009H203.095C203.126 31.4912 203.295 31.8102 203.601 32.058C203.908 32.3027 204.276 32.425 204.707 32.425C205.045 32.425 205.345 32.3476 205.608 32.1927C205.872 32.0378 206.079 31.8226 206.231 31.5469C206.383 31.2712 206.457 30.9569 206.454 30.6038C206.457 30.2445 206.381 29.9254 206.226 29.6467C206.071 29.3679 205.859 29.1496 205.59 28.9916C205.32 28.8305 205.011 28.75 204.661 28.75C204.376 28.7469 204.095 28.7996 203.82 28.908C203.544 29.0164 203.326 29.1588 203.165 29.3354L201.608 29.0799L202.105 24.1737H207.625V25.6139H203.532L203.257 28.1367H203.313C203.49 27.9292 203.739 27.7573 204.061 27.621C204.383 27.4816 204.736 27.4119 205.12 27.4119C205.697 27.4119 206.211 27.5482 206.663 27.8208C207.115 28.0903 207.471 28.4619 207.732 28.9358C207.992 29.4097 208.122 29.9518 208.122 30.5619C208.122 31.1907 207.976 31.7513 207.685 32.2438C207.397 32.7332 206.996 33.1188 206.482 33.4007C205.971 33.6794 205.379 33.8188 204.707 33.8188ZM213.581 23.7276L210.515 35.1197H209.042L212.108 23.7276H213.581ZM217.944 33.8188C217.324 33.8188 216.77 33.7027 216.28 33.4704C215.791 33.235 215.402 32.9128 215.114 32.504C214.829 32.0951 214.677 31.6274 214.659 31.1009H216.331C216.362 31.4912 216.531 31.8102 216.838 32.058C217.144 32.3027 217.513 32.425 217.944 32.425C218.281 32.425 218.582 32.3476 218.845 32.1927C219.108 32.0378 219.316 31.8226 219.467 31.5469C219.619 31.2712 219.694 30.9569 219.69 30.6038C219.694 30.2445 219.618 29.9254 219.463 29.6467C219.308 29.3679 219.096 29.1496 218.826 28.9916C218.557 28.8305 218.247 28.75 217.897 28.75C217.612 28.7469 217.332 28.7996 217.056 28.908C216.78 29.0164 216.562 29.1588 216.401 29.3354L214.845 29.0799L215.342 24.1737H220.861V25.6139H216.768L216.494 28.1367H216.55C216.726 27.9292 216.976 27.7573 217.298 27.621C217.62 27.4816 217.973 27.4119 218.357 27.4119C218.933 27.4119 219.447 27.5482 219.899 27.8208C220.352 28.0903 220.708 28.4619 220.968 28.9358C221.228 29.4097 221.358 29.9518 221.358 30.5619C221.358 31.1907 221.213 31.7513 220.922 32.2438C220.634 32.7332 220.232 33.1188 219.718 33.4007C219.207 33.6794 218.616 33.8188 217.944 33.8188ZM226.432 33.8699C225.667 33.8699 225.01 33.6763 224.462 33.2892C223.917 32.8989 223.497 32.3367 223.203 31.6027C222.912 30.8655 222.766 29.9781 222.766 28.9405C222.769 27.9029 222.916 27.0201 223.207 26.2923C223.502 25.5613 223.921 25.0038 224.467 24.6197C225.015 24.2356 225.67 24.0436 226.432 24.0436C227.194 24.0436 227.849 24.2356 228.397 24.6197C228.945 25.0038 229.365 25.5613 229.656 26.2923C229.95 27.0232 230.098 27.906 230.098 28.9405C230.098 29.9812 229.95 30.8701 229.656 31.6073C229.365 32.3414 228.945 32.902 228.397 33.2892C227.852 33.6763 227.197 33.8699 226.432 33.8699ZM226.432 32.4157C227.026 32.4157 227.496 32.123 227.84 31.5376C228.186 30.9491 228.36 30.0834 228.36 28.9405C228.36 28.1847 228.281 27.5498 228.123 27.0356C227.965 26.5215 227.742 26.1343 227.454 25.8741C227.166 25.6108 226.825 25.4792 226.432 25.4792C225.84 25.4792 225.373 25.7734 225.029 26.3619C224.685 26.9473 224.511 27.8069 224.508 28.9405C224.505 29.6993 224.581 30.3374 224.736 30.8546C224.894 31.3719 225.117 31.7622 225.405 32.0254C225.693 32.2856 226.035 32.4157 226.432 32.4157Z" fill="#F9BB00"/>
<path d="M243.098 22.0148C243.442 21.3396 244.407 21.3396 244.752 22.0148L246.499 25.4385C246.634 25.7028 246.887 25.8867 247.18 25.9334L250.976 26.5371C251.725 26.6561 252.023 27.5738 251.487 28.1102L248.771 30.8298C248.561 31.0398 248.464 31.3374 248.511 31.6306L249.11 35.4273C249.228 36.1761 248.447 36.7433 247.771 36.3995L244.346 34.6567C244.081 34.5222 243.768 34.5222 243.504 34.6567L240.078 36.3995C239.402 36.7433 238.621 36.1761 238.74 35.4273L239.338 31.6306C239.385 31.3374 239.288 31.0398 239.078 30.8298L236.362 28.1102C235.826 27.5738 236.125 26.6561 236.873 26.5371L240.669 25.9334C240.962 25.8867 241.215 25.7028 241.35 25.4385L243.098 22.0148Z" fill="#F9BB00"/>
</g>
<defs>
<filter id="filter0_d_2101_22035" x="168.425" y="5.65074" width="113.187" height="53.0762" filterUnits="userSpaceOnUse" color-interpolation-filters="sRGB">
<feFlood flood-opacity="0" result="BackgroundImageFix"/>
<feColorMatrix in="SourceAlpha" type="matrix" values="0 0 0 0 0 0 0 0 0 0 0 0 0 0 0 0 0 0 127 0" result="hardAlpha"/>
<feOffset dx="2.23009" dy="3"/>
<feGaussianBlur stdDeviation="3.90266"/>
<feComposite in2="hardAlpha" operator="out"/>
<feColorMatrix type="matrix" values="0 0 0 0 0 0 0 0 0 0 0 0 0 0 0 0 0 0 0.25 0"/>
<feBlend mode="normal" in2="BackgroundImageFix" result="effect1_dropShadow_2101_22035"/>
<feBlend mode="normal" in="SourceGraphic" in2="effect1_dropShadow_2101_22035" result="shape"/>
</filter>
<clipPath id="clip0_2101_22035">
<rect x="16" y="0.5" width="264" height="136" rx="8" fill="white"/>
</clipPath>
<clipPath id="clip1_2101_22035">
<rect width="264" height="604.426" fill="white" transform="translate(16 35.5)"/>
</clipPath>
<clipPath id="clip2_2101_22035">
<rect x="48.0801" y="55.1584" width="10.3693" height="10.3693" rx="5.18466" fill="white"/>
</clipPath>
</defs>
</svg>
