<svg width="32" height="32" viewBox="0 0 32 32" fill="none" xmlns="http://www.w3.org/2000/svg">
<rect width="32" height="32" rx="16" fill="#4B4FB3"/>
<path d="M15.6003 11.2436C15.7286 10.9837 15.7927 10.8538 15.8798 10.8122C15.9556 10.7761 16.0436 10.7761 16.1193 10.8122C16.2064 10.8538 16.2705 10.9837 16.3988 11.2436L17.6157 13.7089C17.6536 13.7856 17.6725 13.824 17.7002 13.8538C17.7247 13.8802 17.7541 13.9015 17.7867 13.9167C17.8236 13.9338 17.8659 13.94 17.9506 13.9524L20.6727 14.3503C20.9593 14.3922 21.1026 14.4131 21.169 14.4831C21.2267 14.544 21.2538 14.6277 21.2428 14.7109C21.2302 14.8065 21.1264 14.9076 20.9189 15.1097L18.9499 17.0275C18.8886 17.0873 18.8579 17.1172 18.8381 17.1528C18.8205 17.1843 18.8093 17.2189 18.8049 17.2546C18.8 17.2951 18.8073 17.3373 18.8218 17.4217L19.2864 20.1305C19.3354 20.4162 19.3599 20.5591 19.3138 20.6439C19.2737 20.7176 19.2025 20.7693 19.12 20.7846C19.0252 20.8022 18.8969 20.7348 18.6403 20.5998L16.2068 19.3201C16.131 19.2802 16.0931 19.2603 16.0531 19.2524C16.0178 19.2455 15.9814 19.2455 15.946 19.2524C15.9061 19.2603 15.8682 19.2802 15.7923 19.3201L13.3588 20.5998C13.1023 20.7348 12.974 20.8022 12.8791 20.7846C12.7966 20.7693 12.7254 20.7176 12.6853 20.6439C12.6393 20.5591 12.6638 20.4162 12.7128 20.1305L13.1774 17.4217C13.1919 17.3373 13.1991 17.2951 13.1942 17.2546C13.1899 17.2189 13.1786 17.1843 13.1611 17.1528C13.1413 17.1172 13.1106 17.0873 13.0492 17.0275L11.0802 15.1097C10.8727 14.9076 10.7689 14.8065 10.7563 14.7109C10.7453 14.6277 10.7725 14.544 10.8302 14.4831C10.8965 14.4131 11.0398 14.3922 11.3265 14.3503L14.0486 13.9524C14.1332 13.94 14.1755 13.9338 14.2124 13.9167C14.245 13.9015 14.2744 13.8802 14.2989 13.8538C14.3266 13.824 14.3455 13.7856 14.3834 13.7089L15.6003 11.2436Z" stroke="white" stroke-width="1.11304" stroke-linecap="round" stroke-linejoin="round"/>
</svg>
