<svg width="32" height="32" viewBox="0 0 32 32" fill="none" xmlns="http://www.w3.org/2000/svg">
<rect width="32" height="32" rx="16" fill="#4B4FB3"/>
<path d="M16.0008 21.0086L15.9451 20.9251C15.5585 20.3452 15.3652 20.0553 15.1098 19.8454C14.8837 19.6595 14.6232 19.5201 14.3432 19.4351C14.0269 19.339 13.6785 19.339 12.9815 19.339H12.2164C11.5931 19.339 11.2814 19.339 11.0433 19.2177C10.8338 19.111 10.6636 18.9407 10.5569 18.7313C10.4355 18.4932 10.4355 18.1815 10.4355 17.5582V12.7721C10.4355 12.1487 10.4355 11.837 10.5569 11.5989C10.6636 11.3895 10.8338 11.2192 11.0433 11.1125C11.2814 10.9912 11.5931 10.9912 12.2164 10.9912H12.439C13.6858 10.9912 14.3091 10.9912 14.7853 11.2338C15.2042 11.4473 15.5447 11.7878 15.7581 12.2067C16.0008 12.6829 16.0008 13.3062 16.0008 14.5529M16.0008 21.0086V14.5529M16.0008 21.0086L16.0564 20.9251C16.443 20.3452 16.6363 20.0553 16.8917 19.8454C17.1178 19.6595 17.3783 19.5201 17.6583 19.4351C17.9746 19.339 18.3231 19.339 19.02 19.339H19.7851C20.4085 19.339 20.7202 19.339 20.9582 19.2177C21.1677 19.111 21.338 18.9407 21.4447 18.7313C21.566 18.4932 21.566 18.1815 21.566 17.5582V12.7721C21.566 12.1487 21.566 11.837 21.4447 11.5989C21.338 11.3895 21.1677 11.2192 20.9582 11.1125C20.7202 10.9912 20.4085 10.9912 19.7851 10.9912H19.5625C18.3158 10.9912 17.6924 10.9912 17.2162 11.2338C16.7974 11.4473 16.4568 11.7878 16.2434 12.2067C16.0008 12.6829 16.0008 13.3062 16.0008 14.5529" stroke="white" stroke-width="1.11304" stroke-linecap="round" stroke-linejoin="round"/>
</svg>
