<svg width="361" height="777" viewBox="0 0 361 777" fill="none" xmlns="http://www.w3.org/2000/svg">
<g clip-path="url(#clip0_452_10152)">
<circle cx="180.042" cy="351.178" r="123.557" stroke="white" stroke-opacity="0.06" stroke-width="40"/>
<circle cx="180.043" cy="351.178" r="208.504" stroke="white" stroke-opacity="0.06" stroke-width="40"/>
<circle cx="180.042" cy="351.178" r="296.307" stroke="white" stroke-opacity="0.06" stroke-width="40"/>
<path d="M267.834 233.243C268.156 232.372 269.387 232.372 269.709 233.243L271.686 238.584C271.787 238.858 272.003 239.074 272.277 239.175L277.618 241.151C278.489 241.474 278.489 242.705 277.618 243.027L272.277 245.004C272.003 245.105 271.787 245.321 271.686 245.594L269.709 250.936C269.387 251.806 268.156 251.806 267.834 250.936L265.857 245.594C265.756 245.321 265.54 245.105 265.266 245.004L259.925 243.027C259.055 242.705 259.055 241.474 259.925 241.151L265.266 239.175C265.54 239.074 265.756 238.858 265.857 238.584L267.834 233.243Z" fill="white"/>
<path d="M35.5447 520.841C35.8669 519.97 37.0983 519.97 37.4204 520.841L39.3969 526.182C39.4982 526.456 39.714 526.672 39.9877 526.773L45.3291 528.75C46.1997 529.072 46.1997 530.303 45.3291 530.625L39.9877 532.602C39.714 532.703 39.4982 532.919 39.3969 533.193L37.4204 538.534C37.0983 539.405 35.8669 539.405 35.5447 538.534L33.5682 533.193C33.4669 532.919 33.2511 532.703 32.9774 532.602L27.6361 530.625C26.7655 530.303 26.7655 529.072 27.6361 528.75L32.9774 526.773C33.2511 526.672 33.4669 526.456 33.5682 526.182L35.5447 520.841Z" fill="white"/>
<path d="M40.0518 54.6651C40.3739 53.7945 41.6053 53.7945 41.9275 54.6651L45.1213 63.2962C45.2225 63.5699 45.4383 63.7857 45.7121 63.887L54.3432 67.0808C55.2138 67.403 55.2138 68.6344 54.3432 68.9565L45.7121 72.1503C45.4383 72.2516 45.2225 72.4674 45.1213 72.7411L41.9275 81.3722C41.6053 82.2428 40.3739 82.2428 40.0518 81.3722L36.858 72.7411C36.7567 72.4674 36.5409 72.2516 36.2672 72.1503L27.6361 68.9565C26.7654 68.6344 26.7655 67.403 27.6361 67.0808L36.2672 63.887C36.5409 63.7857 36.7567 63.5699 36.858 63.2962L40.0518 54.6651Z" fill="white"/>
<path d="M68.0827 197.759C68.4048 196.888 69.6362 196.888 69.9584 197.759L70.8373 200.134C70.9386 200.408 71.1544 200.624 71.4281 200.725L73.8034 201.604C74.674 201.926 74.674 203.157 73.8034 203.48L71.4281 204.359C71.1544 204.46 70.9386 204.676 70.8373 204.949L69.9584 207.325C69.6362 208.195 68.4048 208.195 68.0827 207.325L67.2037 204.949C67.1024 204.676 66.8866 204.46 66.6129 204.359L64.2376 203.48C63.367 203.157 63.367 201.926 64.2376 201.604L66.6129 200.725C66.8866 200.624 67.1024 200.408 67.2037 200.134L68.0827 197.759Z" fill="white"/>
<path d="M329.973 574.899C330.295 574.029 331.527 574.029 331.849 574.899L332.728 577.275C332.829 577.548 333.045 577.764 333.319 577.865L335.694 578.744C336.565 579.066 336.565 580.298 335.694 580.62L333.319 581.499C333.045 581.6 332.829 581.816 332.728 582.09L331.849 584.465C331.527 585.336 330.295 585.336 329.973 584.465L329.094 582.09C328.993 581.816 328.777 581.6 328.504 581.499L326.128 580.62C325.258 580.298 325.258 579.066 326.128 578.744L328.504 577.865C328.777 577.764 328.993 577.548 329.094 577.275L329.973 574.899Z" fill="white"/>
</g>
<defs>
<clipPath id="clip0_452_10152">
<rect width="360" height="776" fill="white" transform="translate(0.65625 0.463867)"/>
</clipPath>
</defs>
</svg>
