<svg width="535" height="127" viewBox="0 0 535 127" fill="none" xmlns="http://www.w3.org/2000/svg">
<rect x="63.8828" y="110.94" width="35.0899" height="9.23418" rx="4.61709" transform="rotate(-180 63.8828 110.94)" fill="white"/>
<rect x="58.3359" y="126.33" width="23.3933" height="9.23418" rx="4.61709" transform="rotate(-180 58.3359 126.33)" fill="white"/>
<circle cx="47.5679" cy="47.8394" r="42.1694" stroke="white" stroke-width="9.8498"/>
<path d="M34.9414 68.4627C34.9414 66.7627 36.3195 65.3846 38.0195 65.3846H41.4053H42.3288C43.6887 65.3846 44.7912 64.2821 44.7912 62.9222C44.7912 60.6526 50.9473 60.6526 50.9473 62.9222C50.9473 64.2821 52.0498 65.3846 53.4098 65.3846H57.7191C59.419 65.3846 60.7971 66.7627 60.7971 68.4627C60.7971 70.1626 59.419 71.5407 57.7191 71.5407H38.0195C36.3195 71.5407 34.9414 70.1626 34.9414 68.4627Z" fill="white" stroke="white" stroke-width="1.84684"/>
<rect x="50.9492" y="43.2222" width="25.8557" height="6.15612" transform="rotate(90 50.9492 43.2222)" fill="white" stroke="white" stroke-width="1.84684"/>
<path d="M50.9492 42.6067C50.9492 44.3066 49.5711 45.6847 47.8712 45.6847C46.9213 45.6847 46.0632 46.2119 45.5323 46.9996C45.1579 47.5551 44.7931 47.9811 44.7931 47.5315C44.7931 46.6082 44.1775 45.6847 42.9463 45.6847L41.715 45.6847C40.0151 45.6847 38.637 44.3066 38.637 42.6067C38.637 40.9067 40.0151 39.5286 41.715 39.5286L47.8712 39.5286C49.5711 39.5286 50.9492 40.9067 50.9492 42.6067Z" fill="white" stroke="white" stroke-width="1.84684"/>
<circle cx="46.6343" cy="27.832" r="5.54051" fill="white"/>
<path d="M131.488 38.6715V93.3972H120.559V38.6715H131.488ZM164.243 49.8337C169.204 49.8337 173.157 51.4615 176.102 54.7172C179.048 57.9728 180.521 62.5462 180.521 68.4373V93.3972H169.669V69.6776C169.669 66.2669 168.79 63.6314 167.033 61.771C165.276 59.859 162.873 58.903 159.824 58.903C156.724 58.903 154.243 59.9107 152.383 61.9261C150.522 63.9415 149.592 66.8354 149.592 70.6078V93.3972H138.663V50.4538H149.592V59.058C150.729 56.1641 152.59 53.9162 155.173 52.3142C157.809 50.6605 160.832 49.8337 164.243 49.8337ZM208.664 43.0124C205.46 42.8057 203.212 43.2708 201.92 44.4076C200.628 45.5445 199.982 47.5341 199.982 50.3763V50.4538H208.664V59.6781H199.982V93.3972H189.052V59.6781H183.549V50.4538H189.052V49.4461C189.052 44.3301 190.499 40.4027 193.393 37.6638C196.339 34.8733 200.68 33.478 206.416 33.478C207.398 33.478 208.147 33.5038 208.664 33.5555V43.0124ZM232.337 49.9112C236.522 49.9112 240.269 50.7897 243.576 52.5467C246.935 54.3037 249.571 56.8617 251.483 60.2207C253.395 63.528 254.351 67.4296 254.351 71.9255C254.351 76.4214 253.395 80.323 251.483 83.6303C249.571 86.9376 246.935 89.4956 243.576 91.3043C240.269 93.0613 236.522 93.9398 232.337 93.9398C228.151 93.9398 224.378 93.0613 221.019 91.3043C217.712 89.4956 215.102 86.9376 213.19 83.6303C211.278 80.323 210.322 76.4214 210.322 71.9255C210.322 67.4296 211.278 63.528 213.19 60.2207C215.102 56.8617 217.712 54.3037 221.019 52.5467C224.378 50.7897 228.151 49.9112 232.337 49.9112ZM232.337 59.3681C229.288 59.3681 226.704 60.4533 224.585 62.6237C222.466 64.7425 221.407 67.8431 221.407 71.9255C221.407 76.008 222.466 79.1344 224.585 81.3049C226.704 83.4236 229.288 84.483 232.337 84.483C235.386 84.483 237.969 83.4236 240.088 81.3049C242.207 79.1344 243.266 76.008 243.266 71.9255C243.266 67.8431 242.207 64.7425 240.088 62.6237C237.969 60.4533 235.386 59.3681 232.337 59.3681ZM314.01 49.8337C319.23 49.8337 323.338 51.4615 326.335 54.7172C329.384 57.9211 330.909 62.4945 330.909 68.4373V93.3972H320.057V69.6776C320.057 66.3703 319.204 63.8381 317.499 62.0811C315.845 60.2724 313.545 59.3681 310.6 59.3681C307.551 59.3681 305.122 60.3241 303.313 62.2361C301.505 64.1482 300.6 66.9387 300.6 70.6078V93.3972H289.748V69.6776C289.748 66.3703 288.895 63.8381 287.19 62.0811C285.536 60.2724 283.237 59.3681 280.291 59.3681C277.242 59.3681 274.814 60.3241 273.005 62.2361C271.196 64.1482 270.292 66.9387 270.292 70.6078V93.3972H259.362V50.4538H270.292V58.5929C271.429 55.8024 273.212 53.6578 275.64 52.1592C278.121 50.6089 280.989 49.8337 284.245 49.8337C287.707 49.8337 290.704 50.6605 293.236 52.3142C295.82 53.9678 297.758 56.345 299.05 59.4456C300.394 56.5 302.383 54.1746 305.019 52.4692C307.706 50.7122 310.703 49.8337 314.01 49.8337ZM378.183 70.2977C378.183 71.3829 378.054 72.6232 377.796 74.0184H346.325C346.48 77.8425 347.513 80.6589 349.425 82.4676C351.337 84.2763 353.714 85.1806 356.557 85.1806C359.089 85.1806 361.182 84.5605 362.835 83.3202C364.541 82.08 365.626 80.4005 366.091 78.2818H377.641C377.072 81.279 375.858 83.9662 373.997 86.3433C372.137 88.7205 369.734 90.5808 366.789 91.9244C363.895 93.268 360.665 93.9398 357.099 93.9398C352.913 93.9398 349.193 93.0613 345.937 91.3043C342.681 89.4956 340.149 86.9376 338.34 83.6303C336.532 80.323 335.627 76.4214 335.627 71.9255C335.627 67.4296 336.532 63.528 338.34 60.2207C340.149 56.8617 342.681 54.3037 345.937 52.5467C349.193 50.7897 352.913 49.9112 357.099 49.9112C361.337 49.9112 365.031 50.7897 368.184 52.5467C371.388 54.3037 373.842 56.7326 375.548 59.8332C377.305 62.8821 378.183 66.3703 378.183 70.2977ZM367.176 69.2125C367.331 65.6985 366.401 63.0371 364.386 61.2284C362.422 59.4197 359.993 58.5154 357.099 58.5154C354.154 58.5154 351.673 59.4197 349.658 61.2284C347.642 63.0371 346.531 65.6985 346.325 69.2125H367.176ZM408.809 49.8337C413.77 49.8337 417.723 51.4615 420.669 54.7172C423.614 57.9728 425.087 62.5462 425.087 68.4373V93.3972H414.235V69.6776C414.235 66.2669 413.357 63.6314 411.6 61.771C409.843 59.859 407.44 58.903 404.391 58.903C401.29 58.903 398.81 59.9107 396.949 61.9261C395.089 63.9415 394.159 66.8354 394.159 70.6078V93.3972H383.229V50.4538H394.159V59.058C395.295 56.1641 397.156 53.9162 399.74 52.3142C402.375 50.6605 405.398 49.8337 408.809 49.8337ZM454.935 84.0179V93.3972H449.199C444.393 93.3972 440.698 92.2345 438.115 89.909C435.582 87.5836 434.316 83.7078 434.316 78.2818V59.6781H428.348V50.4538H434.316V39.8342H445.246V50.4538H454.858V59.6781H445.246V78.4368C445.246 80.5039 445.659 81.9508 446.486 82.7776C447.313 83.6045 448.708 84.0179 450.672 84.0179H454.935ZM479.931 49.9112C484.117 49.9112 487.863 50.7897 491.171 52.5467C494.53 54.3037 497.165 56.8617 499.077 60.2207C500.989 63.528 501.945 67.4296 501.945 71.9255C501.945 76.4214 500.989 80.323 499.077 83.6303C497.165 86.9376 494.53 89.4956 491.171 91.3043C487.863 93.0613 484.117 93.9398 479.931 93.9398C475.745 93.9398 471.973 93.0613 468.614 91.3043C465.306 89.4956 462.697 86.9376 460.785 83.6303C458.873 80.323 457.917 76.4214 457.917 71.9255C457.917 67.4296 458.873 63.528 460.785 60.2207C462.697 56.8617 465.306 54.3037 468.614 52.5467C471.973 50.7897 475.745 49.9112 479.931 49.9112ZM479.931 59.3681C476.882 59.3681 474.298 60.4533 472.179 62.6237C470.061 64.7425 469.001 67.8431 469.001 71.9255C469.001 76.008 470.061 79.1344 472.179 81.3049C474.298 83.4236 476.882 84.483 479.931 84.483C482.98 84.483 485.564 83.4236 487.682 81.3049C489.801 79.1344 490.861 76.008 490.861 71.9255C490.861 67.8431 489.801 64.7425 487.682 62.6237C485.564 60.4533 482.98 59.3681 479.931 59.3681ZM517.886 58.6704C519.488 55.9316 521.607 53.787 524.242 52.2367C526.878 50.6347 529.823 49.8337 533.079 49.8337V61.5385H529.901C521.891 61.5385 517.886 65.2592 517.886 72.7007V93.3972H506.956V50.4538H517.886V58.6704Z" fill="white"/>
</svg>
