<svg width="145" height="35" viewBox="0 0 145 35" fill="none" xmlns="http://www.w3.org/2000/svg">
<rect x="17.9141" y="30.1296" width="9.4711" height="2.49239" rx="1.2462" transform="rotate(-180 17.9141 30.1296)" fill="#5358C7"/>
<rect x="16.418" y="34.2837" width="6.31406" height="2.49239" rx="1.2462" transform="rotate(-180 16.418 34.2837)" fill="#5358C7"/>
<circle cx="13.5108" cy="13.0982" r="11.3819" stroke="#5358C7" stroke-width="2.65855"/>
<path d="M10.1055 18.6646C10.1055 18.2057 10.4774 17.8338 10.9363 17.8338H11.8501H12.0994C12.4665 17.8338 12.764 17.5362 12.764 17.1691C12.764 16.5566 14.4256 16.5566 14.4256 17.1691C14.4256 17.5362 14.7232 17.8338 15.0903 17.8338H16.2534C16.7122 17.8338 17.0842 18.2057 17.0842 18.6646C17.0842 19.1234 16.7122 19.4954 16.2534 19.4954H10.9363C10.4774 19.4954 10.1055 19.1234 10.1055 18.6646Z" fill="#5358C7" stroke="#5358C7" stroke-width="0.498479"/>
<rect x="14.4258" y="11.8521" width="6.9787" height="1.6616" transform="rotate(90 14.4258 11.8521)" fill="#5358C7" stroke="#5358C7" stroke-width="0.498479"/>
<path d="M14.4258 11.6858C14.4258 12.1446 14.0538 12.5166 13.595 12.5166C13.3386 12.5166 13.107 12.6589 12.9637 12.8715C12.8627 13.0214 12.7642 13.1364 12.7642 13.0151C12.7642 12.7658 12.598 12.5166 12.2657 12.5166L11.9334 12.5166C11.4746 12.5166 11.1026 12.1446 11.1026 11.6858C11.1026 11.2269 11.4746 10.855 11.9334 10.855L13.595 10.855C14.0538 10.855 14.4258 11.2269 14.4258 11.6858Z" fill="#5358C7" stroke="#5358C7" stroke-width="0.498479"/>
<circle cx="13.2611" cy="7.69807" r="1.49544" fill="#5358C7"/>
<path d="M36.1601 10.6814V25.4524H33.2101V10.6814H36.1601ZM45.0008 13.6942C46.3398 13.6942 47.4069 14.1336 48.2019 15.0123C48.997 15.891 49.3945 17.1254 49.3945 18.7155V25.4524H46.4654V19.0502C46.4654 18.1297 46.2283 17.4183 45.754 16.9162C45.2798 16.4001 44.6312 16.1421 43.8083 16.1421C42.9714 16.1421 42.3019 16.4141 41.7998 16.958C41.2976 17.502 41.0466 18.2831 41.0466 19.3013V25.4524H38.0966V13.8616H41.0466V16.1839C41.3534 15.4028 41.8556 14.7961 42.553 14.3637C43.2643 13.9174 44.0803 13.6942 45.0008 13.6942ZM56.9905 11.853C56.1257 11.7973 55.519 11.9228 55.1703 12.2296C54.8216 12.5365 54.6472 13.0735 54.6472 13.8406V13.8616H56.9905V16.3513H54.6472V25.4524H51.6972V16.3513H50.2117V13.8616H51.6972V13.5896C51.6972 12.2087 52.0878 11.1487 52.8688 10.4094C53.6639 9.65623 54.8355 9.27963 56.3838 9.27963C56.6488 9.27963 56.851 9.28661 56.9905 9.30055V11.853ZM63.3801 13.7151C64.5099 13.7151 65.5211 13.9522 66.4138 14.4265C67.3204 14.9007 68.0317 15.5911 68.5478 16.4977C69.0639 17.3904 69.3219 18.4435 69.3219 19.657C69.3219 20.8705 69.0639 21.9235 68.5478 22.8162C68.0317 23.7089 67.3204 24.3993 66.4138 24.8875C65.5211 25.3617 64.5099 25.5988 63.3801 25.5988C62.2503 25.5988 61.2321 25.3617 60.3254 24.8875C59.4328 24.3993 58.7284 23.7089 58.2123 22.8162C57.6962 21.9235 57.4382 20.8705 57.4382 19.657C57.4382 18.4435 57.6962 17.3904 58.2123 16.4977C58.7284 15.5911 59.4328 14.9007 60.3254 14.4265C61.2321 13.9522 62.2503 13.7151 63.3801 13.7151ZM63.3801 16.2676C62.5571 16.2676 61.8597 16.5605 61.2879 17.1463C60.716 17.7182 60.43 18.5551 60.43 19.657C60.43 20.7589 60.716 21.6027 61.2879 22.1885C61.8597 22.7604 62.5571 23.0464 63.3801 23.0464C64.203 23.0464 64.9004 22.7604 65.4723 22.1885C66.0441 21.6027 66.3301 20.7589 66.3301 19.657C66.3301 18.5551 66.0441 17.7182 65.4723 17.1463C64.9004 16.5605 64.203 16.2676 63.3801 16.2676ZM85.4246 13.6942C86.8333 13.6942 87.9422 14.1336 88.7512 15.0123C89.5741 15.8771 89.9856 17.1115 89.9856 18.7155V25.4524H87.0565V19.0502C87.0565 18.1576 86.8263 17.4741 86.3661 16.9999C85.9197 16.5117 85.299 16.2676 84.504 16.2676C83.6811 16.2676 83.0255 16.5256 82.5373 17.0417C82.0491 17.5578 81.805 18.311 81.805 19.3013V25.4524H78.876V19.0502C78.876 18.1576 78.6458 17.4741 78.1855 16.9999C77.7392 16.5117 77.1185 16.2676 76.3235 16.2676C75.5005 16.2676 74.845 16.5256 74.3568 17.0417C73.8686 17.5578 73.6245 18.311 73.6245 19.3013V25.4524H70.6745V13.8616H73.6245V16.0584C73.9314 15.3052 74.4126 14.7263 75.0681 14.3219C75.7376 13.9034 76.5118 13.6942 77.3905 13.6942C78.325 13.6942 79.134 13.9174 79.8174 14.3637C80.5149 14.81 81.0379 15.4516 81.3866 16.2885C81.7493 15.4935 82.2863 14.8658 82.9976 14.4055C83.7229 13.9313 84.5319 13.6942 85.4246 13.6942ZM102.745 19.2176C102.745 19.5105 102.711 19.8453 102.641 20.2219H94.1465C94.1883 21.254 94.4673 22.0142 94.9833 22.5024C95.4994 22.9906 96.141 23.2347 96.9082 23.2347C97.5916 23.2347 98.1565 23.0673 98.6029 22.7325C99.0631 22.3978 99.356 21.9445 99.4816 21.3726H102.599C102.446 22.1816 102.118 22.9069 101.616 23.5485C101.114 24.1901 100.465 24.6922 99.6699 25.0549C98.8888 25.4175 98.017 25.5988 97.0546 25.5988C95.9248 25.5988 94.9206 25.3617 94.0418 24.8875C93.1631 24.3993 92.4797 23.7089 91.9915 22.8162C91.5033 21.9235 91.2592 20.8705 91.2592 19.657C91.2592 18.4435 91.5033 17.3904 91.9915 16.4977C92.4797 15.5911 93.1631 14.9007 94.0418 14.4265C94.9206 13.9522 95.9248 13.7151 97.0546 13.7151C98.1984 13.7151 99.1956 13.9522 100.046 14.4265C100.911 14.9007 101.574 15.5563 102.034 16.3931C102.508 17.2161 102.745 18.1576 102.745 19.2176ZM99.7745 18.9247C99.8163 17.9762 99.5653 17.2579 99.0213 16.7697C98.4913 16.2816 97.8357 16.0375 97.0546 16.0375C96.2596 16.0375 95.5901 16.2816 95.0461 16.7697C94.5021 17.2579 94.2022 17.9762 94.1465 18.9247H99.7745ZM111.012 13.6942C112.351 13.6942 113.418 14.1336 114.213 15.0123C115.008 15.891 115.405 17.1254 115.405 18.7155V25.4524H112.476V19.0502C112.476 18.1297 112.239 17.4183 111.765 16.9162C111.291 16.4001 110.642 16.1421 109.819 16.1421C108.982 16.1421 108.313 16.4141 107.811 16.958C107.308 17.502 107.057 18.2831 107.057 19.3013V25.4524H104.107V13.8616H107.057V16.1839C107.364 15.4028 107.866 14.7961 108.564 14.3637C109.275 13.9174 110.091 13.6942 111.012 13.6942ZM123.462 22.9208V25.4524H121.913C120.616 25.4524 119.619 25.1386 118.921 24.5109C118.238 23.8832 117.896 22.8371 117.896 21.3726V16.3513H116.285V13.8616H117.896V10.9952H120.846V13.8616H123.441V16.3513H120.846V21.4144C120.846 21.9724 120.958 22.3629 121.181 22.5861C121.404 22.8092 121.781 22.9208 122.311 22.9208H123.462ZM130.208 13.7151C131.338 13.7151 132.349 13.9522 133.242 14.4265C134.148 14.9007 134.86 15.5911 135.376 16.4977C135.892 17.3904 136.15 18.4435 136.15 19.657C136.15 20.8705 135.892 21.9235 135.376 22.8162C134.86 23.7089 134.148 24.3993 133.242 24.8875C132.349 25.3617 131.338 25.5988 130.208 25.5988C129.078 25.5988 128.06 25.3617 127.153 24.8875C126.261 24.3993 125.556 23.7089 125.04 22.8162C124.524 21.9235 124.266 20.8705 124.266 19.657C124.266 18.4435 124.524 17.3904 125.04 16.4977C125.556 15.5911 126.261 14.9007 127.153 14.4265C128.06 13.9522 129.078 13.7151 130.208 13.7151ZM130.208 16.2676C129.385 16.2676 128.688 16.5605 128.116 17.1463C127.544 17.7182 127.258 18.5551 127.258 19.657C127.258 20.7589 127.544 21.6027 128.116 22.1885C128.688 22.7604 129.385 23.0464 130.208 23.0464C131.031 23.0464 131.728 22.7604 132.3 22.1885C132.872 21.6027 133.158 20.7589 133.158 19.657C133.158 18.5551 132.872 17.7182 132.3 17.1463C131.728 16.5605 131.031 16.2676 130.208 16.2676ZM140.453 16.0793C140.885 15.3401 141.457 14.7612 142.168 14.3428C142.88 13.9104 143.675 13.6942 144.553 13.6942V16.8534H143.695C141.534 16.8534 140.453 17.8577 140.453 19.8662V25.4524H137.503V13.8616H140.453V16.0793Z" fill="#5358C7"/>
</svg>
