<svg width="32" height="32" viewBox="0 0 32 32" fill="none" xmlns="http://www.w3.org/2000/svg">
<rect width="32" height="32" rx="16" fill="white"/>
<path d="M16.0314 21.098C15.3781 21.098 14.7901 20.986 14.2674 20.762C13.7447 20.5287 13.3341 20.202 13.0354 19.782C12.7367 19.362 12.5874 18.872 12.5874 18.312H14.2954C14.3327 18.732 14.4961 19.0773 14.7854 19.348C15.0841 19.6187 15.4994 19.754 16.0314 19.754C16.5821 19.754 17.0114 19.6233 17.3194 19.362C17.6274 19.0913 17.7814 18.746 17.7814 18.326C17.7814 17.9993 17.6834 17.7333 17.4874 17.528C17.3007 17.3227 17.0627 17.164 16.7734 17.052C16.4934 16.94 16.1014 16.8187 15.5974 16.688C14.9627 16.52 14.4447 16.352 14.0434 16.184C13.6514 16.0067 13.3154 15.736 13.0354 15.372C12.7554 15.008 12.6154 14.5227 12.6154 13.916C12.6154 13.356 12.7554 12.866 13.0354 12.446C13.3154 12.026 13.7074 11.704 14.2114 11.48C14.7154 11.256 15.2987 11.144 15.9614 11.144C16.9041 11.144 17.6741 11.382 18.2714 11.858C18.8781 12.3247 19.2141 12.9687 19.2794 13.79H17.5154C17.4874 13.4353 17.3194 13.132 17.0114 12.88C16.7034 12.628 16.2974 12.502 15.7934 12.502C15.3361 12.502 14.9627 12.6187 14.6734 12.852C14.3841 13.0853 14.2394 13.4213 14.2394 13.86C14.2394 14.1587 14.3281 14.406 14.5054 14.602C14.6921 14.7887 14.9254 14.938 15.2054 15.05C15.4854 15.162 15.8681 15.2833 16.3534 15.414C16.9974 15.5913 17.5201 15.7687 17.9214 15.946C18.3321 16.1233 18.6774 16.3987 18.9574 16.772C19.2467 17.136 19.3914 17.626 19.3914 18.242C19.3914 18.7367 19.2561 19.2033 18.9854 19.642C18.7241 20.0807 18.3367 20.4353 17.8234 20.706C17.3194 20.9673 16.7221 21.098 16.0314 21.098Z" fill="#1660B8"/>
</svg>
