<svg width="92" height="93" viewBox="0 0 92 93" fill="none" xmlns="http://www.w3.org/2000/svg">
<circle cx="28.6734" cy="28.6734" r="28.6734" transform="matrix(-1 0 0 1 74.8945 17.8379)" fill="#F9BB00"/>
<mask id="mask0_781_22131" style="mask-type:alpha" maskUnits="userSpaceOnUse" x="17" y="17" width="58" height="59">
<circle cx="28.6734" cy="28.6734" r="28.6734" transform="matrix(-1 0 0 1 74.8945 17.8379)" fill="#F9BB00"/>
</mask>
<g mask="url(#mask0_781_22131)">
<path d="M47.5511 31.5488C46.9169 30.495 45.3891 30.495 44.7549 31.5488L40.887 37.9759C40.6591 38.3545 40.2875 38.6245 39.857 38.7242L32.5492 40.4167C31.351 40.6943 30.8788 42.1473 31.6851 43.0762L36.6024 48.7408C36.8921 49.0745 37.034 49.5114 36.9958 49.9516L36.3473 57.4247C36.2409 58.6501 37.477 59.5482 38.6095 59.0684L45.5164 56.1422C45.9233 55.9698 46.3827 55.9698 46.7895 56.1422L53.6965 59.0684C54.829 59.5482 56.0651 58.6501 55.9587 57.4247L55.3102 49.9516C55.272 49.5114 55.4139 49.0745 55.7036 48.7408L60.6209 43.0762C61.4272 42.1473 60.955 40.6943 59.7568 40.4167L52.449 38.7242C52.0185 38.6245 51.6469 38.3545 51.419 37.9759L47.5511 31.5488Z" fill="#FEF1CC"/>
<rect width="14.1276" height="69" transform="matrix(-0.683677 -0.729785 -0.729785 0.683677 72.9766 22.6841)" fill="white" fill-opacity="0.24"/>
<rect width="7.72301" height="69" transform="matrix(-0.683677 -0.729785 -0.729785 0.683677 83.293 31.0552)" fill="white" fill-opacity="0.24"/>
<circle cx="1.24756" cy="1.24756" r="1.24756" transform="matrix(-1 0 0 1 61.5586 15.3657)" fill="white"/>
<circle cx="1.24756" cy="1.24756" r="1.24756" transform="matrix(0.965926 -0.258819 -0.258819 -0.965926 65.2344 42.5449)" fill="white"/>
<path d="M55.8634 26.4298C55.7346 26.0816 55.242 26.0816 55.1131 26.4298L54.4717 28.1632C54.4312 28.2726 54.3449 28.359 54.2354 28.3995L52.5021 29.0409C52.1538 29.1697 52.1538 29.6623 52.5021 29.7912L54.2354 30.4325C54.3449 30.4731 54.4312 30.5594 54.4717 30.6689L55.1131 32.4022C55.242 32.7505 55.7346 32.7505 55.8634 32.4022L56.5048 30.6689C56.5453 30.5594 56.6317 30.4731 56.7411 30.4325L58.4745 29.7912C58.8227 29.6623 58.8227 29.1697 58.4745 29.0409L56.7411 28.3995C56.6317 28.359 56.5453 28.2726 56.5048 28.1632L55.8634 26.4298Z" fill="white"/>
</g>
<path d="M45.7638 4.54474C40.2768 4.54474 34.8435 5.62549 29.7741 7.72529C24.7048 9.82508 20.0987 12.9028 16.2188 16.7827C12.3388 20.6626 9.26112 25.2688 7.16133 30.3381C5.06153 35.4075 3.98078 40.8408 3.98078 46.3278C3.98078 51.8148 5.06153 57.2481 7.16133 62.3175C9.26112 67.3868 12.3388 71.993 16.2188 75.8729C20.0987 79.7528 24.7048 82.8305 29.7741 84.9303C34.8435 87.0301 40.2768 88.1108 45.7638 88.1108C51.2509 88.1108 56.6842 87.0301 61.7535 84.9303C66.8229 82.8305 71.429 79.7528 75.3089 75.8729C79.1888 71.9929 82.2665 67.3868 84.3663 62.3175C86.4661 57.2481 87.5469 51.8148 87.5469 46.3278C87.5469 40.8408 86.4661 35.4075 84.3663 30.3381C82.2665 25.2688 79.1888 20.6626 75.3089 16.7827C71.429 12.9028 66.8229 9.82508 61.7535 7.72529C56.6842 5.62549 51.2509 4.54474 45.7638 4.54474L45.7638 4.54474Z" stroke="#E9E9E9" stroke-width="3"/>
<path d="M38.3512 4.50587C32.8302 5.47936 27.5551 7.53076 22.8269 10.5429C18.0987 13.5551 14.0102 17.4691 10.7946 22.0613C7.57908 26.6536 5.29954 31.8343 4.08615 37.3075C2.87276 42.7807 2.74929 48.4394 3.72278 53.9603C4.69627 59.4813 6.74767 64.7565 9.75984 69.4846C12.772 74.2128 16.686 78.3014 21.2782 81.5169C25.8705 84.7325 31.0512 87.012 36.5244 88.2254C41.9977 89.4388 47.6563 89.5622 53.1773 88.5888C58.6982 87.6153 63.9734 85.5639 68.7015 82.5517C73.4297 79.5395 77.5183 75.6256 80.7338 71.0333C83.9494 66.441 86.2289 61.2604 87.4423 55.7871C88.6557 50.3139 88.7792 44.6552 87.8057 39.1343C86.8322 33.6133 84.7808 28.3381 81.7686 23.61C78.7564 18.8818 74.8425 14.7932 70.2502 11.5777C65.6579 8.36216 60.4773 6.08262 55.004 4.86923C49.5308 3.65584 43.8721 3.53237 38.3512 4.50587L38.3512 4.50587Z" stroke="#F9BB00" stroke-width="6" stroke-linecap="round"/>
</svg>
