<svg width="28" height="37" viewBox="0 0 28 37" fill="none" xmlns="http://www.w3.org/2000/svg">
<g id="Group 6">
<g id="Group 4">
<rect id="Rectangle 4" x="18.9629" y="31.7861" width="9.9837" height="2.62729" rx="1.31364" transform="rotate(-180 18.9629 31.7861)" fill="white"/>
<rect id="Rectangle 5" x="17.3846" y="36.165" width="6.6558" height="2.62729" rx="1.31365" transform="rotate(-180 17.3846 36.165)" fill="white"/>
<circle id="Ellipse 22" cx="14.321" cy="13.8329" r="11.998" stroke="white" stroke-width="2.80244"/>
</g>
<g id="Group 8">
<path id="Rectangle 1" d="M10.7287 19.7006C10.7287 19.2169 11.1208 18.8248 11.6045 18.8248H12.5678H12.8305C13.2175 18.8248 13.5311 18.5112 13.5311 18.1242V18.1242V18.1242C13.5311 17.4785 15.2827 17.4785 15.2827 18.1242V18.1242V18.1242C15.2827 18.5112 15.5963 18.8248 15.9833 18.8248H17.2093C17.693 18.8248 18.0851 19.2169 18.0851 19.7006V19.7006C18.0851 20.1843 17.693 20.5764 17.2093 20.5764H11.6045C11.1208 20.5764 10.7287 20.1843 10.7287 19.7006V19.7006Z" fill="white" stroke="white" stroke-width="0.525458"/>
<rect id="Rectangle 2" x="15.2832" y="12.5193" width="7.35641" height="1.75153" transform="rotate(90 15.2832 12.5193)" fill="white" stroke="white" stroke-width="0.525458"/>
<path id="Rectangle 3" d="M15.2832 12.3442C15.2832 12.8279 14.8911 13.22 14.4075 13.22V13.22V13.22C14.1372 13.22 13.8931 13.37 13.742 13.5941C13.6355 13.7522 13.5317 13.8734 13.5317 13.7455C13.5317 13.4827 13.3566 13.22 13.0062 13.22L12.6559 13.22V13.22C12.1723 13.22 11.7802 12.8279 11.7802 12.3442V12.3442C11.7802 11.8606 12.1723 11.4685 12.6559 11.4685L14.4075 11.4685C14.8911 11.4685 15.2832 11.8606 15.2832 12.3442V12.3442Z" fill="white" stroke="white" stroke-width="0.525458"/>
<circle id="Ellipse 23" cx="14.0558" cy="8.14058" r="1.57637" fill="white"/>
</g>
</g>
</svg>
