<?xml version="1.0" encoding="UTF-8"?>
<svg id="Layer_2" data-name="Layer 2" xmlns="http://www.w3.org/2000/svg" viewBox="0 0 1766.35 401.46">
  <defs>
    <style>
      .cls-1, .cls-2 {
        fill: #fff;
      }

      .cls-2 {
        stroke: #fff;
        stroke-miterlimit: 10;
      }
    </style>
  </defs>
  <g id="Layer_1-2" data-name="Layer 1">
    <path class="cls-2" d="m910.17,98.17H265.69v-9.23h644.48v9.23Z"/>
    <polygon class="cls-1" points="327.8 62.05 327.8 21.2 306.68 62.05 298.33 62.05 277.84 21.91 277.84 62.05 268.46 62.05 268.46 .77 278.59 .77 302.76 49.83 327.8 .77 337.17 .77 337.17 62.05 327.8 62.05"/>
    <rect class="cls-1" x="357.43" y=".77" width="9.37" height="61.28"/>
    <polygon class="cls-1" points="447.81 .77 447.81 62.04 440.24 62.04 396.42 16.45 396.42 62.04 387.07 62.04 387.07 .77 394.71 .77 438.45 46.46 438.45 .77 447.81 .77"/>
    <rect class="cls-1" x="468.07" y=".77" width="9.37" height="61.28"/>
    <path class="cls-1" d="m496.69,47.71c2.73,3.12,8.74,6.55,13.64,6.55,5.7,0,9.82-3.27,9.82-8.89,0-10.61-25.57-9.12-25.57-27.84,0-10.91,9.07-17.54,17.95-17.54,5.75,0,10.13,2.1,12.54,4.21v11.92c-2.17-3.2-6.84-7.49-12.47-7.49-5.23,0-8.58,3.53-8.58,8.5,0,11.48,25.81,9.53,25.81,27.85,0,11.47-9.59,18.17-19.79,18.17-5.71,0-10.46-2.2-13.34-4.77v-10.68Z"/>
    <polygon class="cls-1" points="534.1 .77 583.39 .77 583.39 9.51 563.43 9.51 563.43 62.04 554.06 62.04 554.06 9.51 534.1 9.51 534.1 .77"/>
    <polygon class="cls-1" points="621.76 62.05 593.13 62.05 593.13 .77 621.76 .77 621.76 9.5 602.51 9.5 602.51 27.04 616.14 27.04 616.14 35.71 602.51 35.71 602.51 53.41 621.76 53.41 621.76 62.05"/>
    <path class="cls-1" d="m657.08,38.67c-1.71.24-3.52.38-5.38.38h-3.2v23.01h-9.37V.77h12.88c14.12,0,23.32,5.78,23.32,19.11,0,7.08-3.36,12.33-8.74,15.5l24.24,26.67h-13.17l-20.58-23.38Zm-8.58-8.2h3.58c8.12,0,13.18-3.34,13.18-10.76s-4.92-10.22-12.93-10.22h-3.83v20.97Z"/>
    <path class="cls-1" d="m695.28,47.71c2.72,3.12,8.72,6.55,13.64,6.55,5.7,0,9.83-3.27,9.83-8.89,0-10.61-25.58-9.12-25.58-27.84,0-10.91,9.04-17.54,17.95-17.54,5.76,0,10.13,2.1,12.55,4.21v11.92c-2.18-3.2-6.87-7.49-12.47-7.49-5.24,0-8.58,3.53-8.58,8.5,0,11.48,25.8,9.53,25.8,27.85,0,11.47-9.59,18.17-19.8,18.17-5.7,0-10.45-2.2-13.33-4.77v-10.68Z"/>
    <polygon class="cls-1" points="732.32 .77 781.6 .77 781.6 9.51 761.63 9.51 761.63 62.04 752.28 62.04 752.28 9.51 732.32 9.51 732.32 .77"/>
    <polygon class="cls-1" points="812.07 51.29 830.39 .77 840.46 .77 816.68 62.04 806.85 62.04 784.7 .77 794.76 .77 812.07 51.29"/>
    <path class="cls-1" d="m878.91.39c18.01.16,30.85,11.62,31.25,30.09.32,18.11-12.65,32.45-31.74,32.76-21.75-.24-31.1-16.93-30.89-31.51-.07-12.62,9.39-31.26,31.38-31.33m-.33,54.2c13.74-.25,22.16-10.7,21.92-23.71-.32-13.34-8.67-21.75-21.59-21.83-15.84.08-21.72,13.62-21.64,22.67-.2,10.53,5.64,22.7,21.31,22.86"/>
    <path class="cls-1" d="m267.46,366.7c2.71,3.1,8.72,6.55,13.63,6.55,5.71,0,9.83-3.28,9.83-8.9,0-10.59-25.58-9.12-25.58-27.84,0-10.91,9.04-17.54,17.95-17.54,5.76,0,10.13,2.12,12.55,4.21v11.95c-2.17-3.21-6.87-7.5-12.49-7.5-5.22,0-8.55,3.5-8.55,8.5,0,11.46,25.8,9.5,25.8,27.83,0,11.46-9.59,18.16-19.79,18.16-5.71,0-10.45-2.17-13.33-4.75v-10.68Z"/>
    <polygon class="cls-1" points="348.54 381.04 316.18 381.04 316.18 319.76 325.54 319.76 325.54 372.38 348.54 372.38 348.54 381.04"/>
    <path class="cls-1" d="m385.2,319.38c18.01.14,30.88,11.59,31.25,30.08.33,18.09-12.62,32.44-31.73,32.75-21.75-.24-31.1-16.91-30.88-31.51-.08-12.62,9.37-31.28,31.36-31.33m-.33,54.17c13.74-.22,22.16-10.67,21.91-23.71-.3-13.34-8.66-21.76-21.58-21.83-15.84.07-21.7,13.66-21.61,22.69-.23,10.54,5.61,22.69,21.27,22.85"/>
    <polygon class="cls-1" points="449.36 370.29 467.69 319.76 477.73 319.76 453.95 381.04 444.14 381.04 421.99 319.76 432.05 319.76 449.36 370.29"/>
    <polygon class="cls-1" points="517.65 381.04 489.05 381.04 489.05 319.76 517.65 319.76 517.65 328.49 498.4 328.49 498.4 346.05 512.06 346.05 512.06 354.68 498.4 354.68 498.4 372.38 517.65 372.38 517.65 381.04"/>
    <polygon class="cls-1" points="595.01 319.76 595.01 381.04 587.43 381.04 543.64 335.42 543.64 381.04 534.27 381.04 534.27 319.76 541.9 319.76 585.64 365.45 585.64 319.76 595.01 319.76"/>
    <path class="cls-1" d="m612.71,366.7c2.72,3.1,8.72,6.55,13.63,6.55,5.71,0,9.83-3.28,9.83-8.9,0-10.59-25.58-9.12-25.58-27.84,0-10.91,9.05-17.54,17.95-17.54,5.76,0,10.13,2.12,12.55,4.21v11.95c-2.18-3.21-6.87-7.5-12.47-7.5-5.23,0-8.58,3.5-8.58,8.5,0,11.46,25.81,9.5,25.81,27.83,0,11.46-9.59,18.16-19.8,18.16-5.7,0-10.45-2.17-13.33-4.75v-10.68Z"/>
    <polygon class="cls-1" points="670.78 319.76 670.78 349.93 697.54 319.76 710.02 319.76 681.62 350.55 709.78 381.04 697.16 381.04 670.78 351.8 670.78 381.04 661.45 381.04 661.45 319.76 670.78 319.76"/>
    <polygon class="cls-1" points="750.7 381.04 722.11 381.04 722.11 319.76 750.7 319.76 750.7 328.49 731.45 328.49 731.45 346.05 745.1 346.05 745.1 354.68 731.45 354.68 731.45 372.38 750.7 372.38 750.7 381.04"/>
    <path class="cls-1" d="m761.23,394.45c5.46-4.66,8.12-11.23,8.2-18.94v-55.75h9.42v55.66c0,11-4.12,19.88-11.62,26.04l-6-7.01Z"/>
    <path class="cls-1" d="m843.58,357.64c-1.73.24-3.52.4-5.39.4h-3.19v23h-9.37v-61.28h12.87c14.11,0,23.33,5.75,23.33,19.09,0,7.11-3.38,12.33-8.74,15.52l24.25,26.67h-13.17l-20.59-23.4Zm-8.57-8.18h3.58c8.1,0,13.17-3.37,13.17-10.76s-4.91-10.21-12.94-10.21h-3.81v20.97Z"/>
    <polygon class="cls-1" points="911.82 381.04 883.18 381.04 883.18 319.76 911.82 319.76 911.82 328.49 892.51 328.49 892.51 346.05 906.18 346.05 906.18 354.68 892.51 354.68 892.51 372.38 911.82 372.38 911.82 381.04"/>
    <path class="cls-1" d="m936.98,358.04v23h-9.38v-61.28h12.89c14.1,0,23.33,5.75,23.33,19.09,0,12.4-10.49,19.19-23.65,19.19h-3.19Zm0-8.58h3.59c8.09,0,13.18-3.37,13.18-10.76s-4.92-10.21-12.92-10.21h-3.84v20.97Z"/>
    <path class="cls-1" d="m984.08,319.76v29.33c0,12.62,5.67,24.63,19.82,24.63,11.67,0,19.69-9.28,19.69-24.58v-29.37h9.38v29.33c0,19.87-12,33.13-29.07,33.13-20.31,0-29.17-13.8-29.17-33.08v-29.37h9.35Z"/>
    <path class="cls-1" d="m1050.14,381.04v-61.28h8.7c13.73,0,24.16,4.29,24.16,16.68,0,6.08-3.26,9.61-8.94,11.32,8.83,1.63,14.67,6.38,14.67,15.35,0,15.07-14.42,17.94-27,17.94h-11.59Zm11.92-35.95c7.24,0,11.43-2.5,11.43-8.17,0-6.96-6.85-8.51-12.69-8.51h-1.32v16.68h2.58Zm1.16,8.66h-3.75v18.63h3.42c9.76,0,16.08-1.25,16.08-9.12s-6.73-9.51-15.75-9.51"/>
    <polygon class="cls-1" points="1136.64 381.04 1104.3 381.04 1104.3 319.76 1113.65 319.76 1113.65 372.38 1136.64 372.38 1136.64 381.04"/>
    <rect class="cls-1" x="1147.34" y="319.76" width="9.38" height="61.28"/>
    <polygon class="cls-1" points="1187.13 319.76 1187.13 349.93 1213.87 319.76 1226.31 319.76 1197.96 350.55 1226.12 381.04 1213.46 381.04 1187.13 351.8 1187.13 381.04 1177.73 381.04 1177.73 319.76 1187.13 319.76"/>
    <polygon class="cls-1" points="1259.01 381.04 1249.63 381.04 1249.63 356.71 1229.45 319.76 1240.21 319.76 1254.87 347.42 1268.88 319.76 1279.64 319.76 1259.01 356.88 1259.01 381.04"/>
    <g>
      <path class="cls-1" d="m274.78,138.28v61.78h-9.43v-61.78h9.43Z"/>
      <path class="cls-1" d="m348.57,138.28v61.78h-7.62l-44.17-45.99v45.99h-9.43v-61.78h7.7l44.09,46.05v-46.05h9.43Z"/>
      <path class="cls-1" d="m383.23,189.21l18.47-50.93h10.14l-23.97,61.78h-9.91l-22.31-61.78h10.14l17.45,50.93Z"/>
      <path class="cls-1" d="m447.37,200.06h-28.85v-61.78h28.85v8.8h-19.42v17.68h13.75v8.72h-13.75v17.84h19.42v8.72Z"/>
      <path class="cls-1" d="m456.01,185.59c2.75,3.15,8.8,6.6,13.75,6.6,5.74,0,9.91-3.29,9.91-8.95,0-10.7-25.78-9.2-25.78-28.06,0-11,9.11-17.69,18.07-17.69,5.81,0,10.22,2.12,12.66,4.24v12.03c-2.2-3.23-6.92-7.55-12.58-7.55-5.27,0-8.64,3.53-8.64,8.56,0,11.56,26.01,9.59,26.01,28.06,0,11.55-9.67,18.31-19.96,18.31-5.74,0-10.53-2.2-13.44-4.79v-10.78Z"/>
      <path class="cls-1" d="m492.55,138.28h49.67v8.8h-20.11v52.98h-9.43v-52.98h-20.12v-8.8Z"/>
      <path class="cls-1" d="m552.28,135.45l-5.03-4.8,11.32-11.71,5.27,5.51-11.56,11Zm5.66,2.83v61.78h-9.43v-61.78h9.43Z"/>
      <path class="cls-1" d="m567.45,169.48c-.08-12.72,9.43-31.98,31.6-31.98,8.72,0,15.32,2.44,19.65,5.9v11.16c-4.48-4.48-9.98-8.34-19.65-8.34-15.96,0-21.85,14.15-21.78,23.26,0,9.99,5.82,22.87,21.78,22.87,8.25,0,15.24-2.91,19.65-7.07v9.9c-4.87,3.61-10.3,5.89-19.65,5.89-22.17-.08-31.6-17.6-31.6-31.52v-.08Z"/>
      <path class="cls-1" d="m637.55,138.28v61.78h-9.43v-61.78h9.43Z"/>
      <path class="cls-1" d="m653.9,135.45l-5.03-4.8,11.31-11.71,5.27,5.51-11.55,11Zm5.65,2.83v61.78h-9.43v-61.78h9.43Z"/>
      <path class="cls-1" d="m682.81,190.47c.24,6.99-1.17,14.22-5.57,18.15h-9.43c4.08-5.43,5.57-11,5.57-18.15h9.43Z"/>
      <path class="cls-1" d="m725.73,176.48c-1.73.24-3.54.39-5.43.39h-3.21v23.19h-9.44v-61.78h12.97c14.22,0,23.5,5.81,23.5,19.26,0,7.15-3.39,12.42-8.8,15.63l24.45,26.89h-13.29l-20.75-23.58Zm-8.64-8.26h3.62c8.18,0,13.28-3.37,13.28-10.84s-4.96-10.3-13.06-10.3h-3.84v21.14Z"/>
      <path class="cls-1" d="m791.35,200.06h-28.84v-61.78h28.84v8.8h-19.42v17.68h13.76v8.72h-13.76v17.84h19.42v8.72Z"/>
      <path class="cls-1" d="m797.88,169.48c0-12.72,9.26-31.98,32.38-31.98,6.91,0,14.54,1.49,18.86,4.16v11.16c-4.48-3.77-10.62-6.6-18.86-6.6-16.83,0-22.57,14.15-22.57,23.26,0,9.99,5.81,22.87,21.77,22.87,5.98,0,9.44-.94,13.36-2.51v-18.08h9.44v22.49c-5.82,4-13.45,6.83-22.81,6.83-22.17-.08-31.58-17.6-31.58-31.52v-.08Z"/>
      <path class="cls-1" d="m872.7,138.28v61.78h-9.44v-61.78h9.44Z"/>
      <path class="cls-1" d="m913.81,137.89c18.14.15,31.1,11.71,31.5,30.33.32,18.23-12.72,32.7-31.98,33.01-21.93-.24-31.37-17.06-31.13-31.76-.08-12.72,9.44-31.52,31.61-31.58Zm-.32,54.62c13.82-.24,22.33-10.76,22.09-23.89-.32-13.44-8.72-21.93-21.77-22.01-15.97.08-21.85,13.75-21.79,22.86-.21,10.62,5.68,22.87,21.47,23.03Z"/>
      <path class="cls-1" d="m1016.05,138.28v61.78h-7.63l-44.17-45.99v45.99h-9.42v-61.78h7.68l44.09,46.05v-46.05h9.44Z"/>
      <path class="cls-1" d="m1055.98,138.28l22.86,61.78h-10.14l-7.31-20.99h-20.75l-7.39,20.99h-10.14l23.66-61.78h9.2Zm-12.27,32.06h14.62l-7.23-20.82-7.39,20.82Zm5.49-34.89l-5.02-4.8,11.31-11.71,5.26,5.51-11.55,11Z"/>
      <path class="cls-1" d="m1118.53,200.06h-32.62v-61.78h9.44v53.05h23.18v8.72Z"/>
      <path class="cls-1" d="m1187.37,138.28v61.78h-7.63l-44.17-45.99v45.99h-9.42v-61.78h7.7l44.07,46.05v-46.05h9.44Z"/>
      <path class="cls-1" d="m1228.4,200.06h-28.84v-61.78h28.84v8.8h-19.42v17.68h13.76v8.72h-13.76v17.84h19.42v8.72Z"/>
      <path class="cls-1" d="m1278.86,138.28h9.42v61.78h-9.42v-26.49h-31.37v26.49h-9.44v-61.78h9.44v26.57h31.37v-26.57Z"/>
      <path class="cls-1" d="m1329.38,137.89c18.17.15,31.13,11.71,31.52,30.33.3,18.23-12.74,32.7-32,33.01-21.93-.24-31.34-17.06-31.1-31.76-.08-12.72,9.42-31.52,31.58-31.58Zm-.32,54.62c13.84-.24,22.33-10.76,22.09-23.89-.3-13.44-8.72-21.93-21.77-22.01-15.95.08-21.85,13.75-21.77,22.86-.24,10.62,5.65,22.87,21.45,23.03Z"/>
      <path class="cls-1" d="m1412.07,176.48c-1.73.24-3.55.39-5.43.39h-3.21v23.19h-9.44v-61.78h12.96c14.24,0,23.5,5.81,23.5,19.26,0,7.15-3.37,12.42-8.8,15.63l24.44,26.89h-13.26l-20.75-23.58Zm-8.64-8.26h3.6c8.19,0,13.29-3.37,13.29-10.84s-4.95-10.3-13.04-10.3h-3.84v21.14Z"/>
      <path class="cls-1" d="m1477.77,137.89c18.14.15,31.13,11.71,31.51,30.33.31,18.23-12.73,32.7-31.99,33.01-21.93-.24-31.36-17.06-31.13-31.76-.08-12.72,9.44-31.52,31.61-31.58Zm-.32,54.62c13.84-.24,22.33-10.76,22.09-23.89-.32-13.44-8.72-21.93-21.77-22.01-15.95.08-21.85,13.75-21.77,22.86-.24,10.62,5.65,22.87,21.45,23.03Z"/>
      <path class="cls-1" d="m1515.72,138.28h40.25v6.99l-28.62,46.06h28.38v8.72h-40.09v-7l28.22-45.97h-28.14v-8.8Z"/>
      <path class="cls-1" d="m1587.47,189.21l18.47-50.93h10.12l-23.96,61.78h-9.9l-22.33-61.78h10.14l17.45,50.93Z"/>
      <path class="cls-1" d="m1651.68,137.89c18.16.15,31.13,11.71,31.53,30.33.29,18.23-12.74,32.7-32,33.01-21.91-.24-31.35-17.06-31.11-31.76-.08-12.72,9.42-31.52,31.58-31.58Zm-.32,54.62c13.84-.24,22.33-10.76,22.09-23.89-.3-13.44-8.73-21.93-21.77-22.01-15.95.08-21.85,13.75-21.77,22.86-.24,10.62,5.66,22.87,21.45,23.03Z"/>
      <path class="cls-1" d="m1685.79,213.57c5.49-4.71,8.17-11.31,8.24-19.1v-56.19h9.52v56.11c0,11.08-4.16,20.04-11.71,26.26l-6.05-7.08Z"/>
      <path class="cls-1" d="m1743.49,138.28l22.86,61.78h-10.14l-7.31-20.99h-20.75l-7.39,20.99h-10.14l23.66-61.78h9.2Zm-12.27,32.06h14.62l-7.23-20.82-7.39,20.82Z"/>
    </g>
    <g>
      <path class="cls-1" d="m295.7,228.89l22.76,61.48h-10.09l-7.28-20.88h-20.65l-7.35,20.88h-10.09l23.55-61.48h9.15Zm-12.2,31.92h14.55l-7.2-20.73-7.35,20.73Z"/>
      <path class="cls-1" d="m358.35,228.89v61.48h-9.38v-61.48h9.38Z"/>
      <path class="cls-1" d="m431.79,228.89v61.48h-7.59l-43.96-45.76v45.76h-9.38v-61.48h7.66l43.88,45.84v-45.84h9.39Z"/>
      <path class="cls-1" d="m443.91,290.37v-61.48h28.71v8.76h-19.32v17.75h13.61v8.68h-13.61v26.28h-9.39Z"/>
      <path class="cls-1" d="m507.5,228.5c18.06.16,30.98,11.66,31.37,30.19.31,18.14-12.67,32.54-31.84,32.85-21.82-.24-31.21-16.98-30.97-31.6-.08-12.67,9.38-31.37,31.44-31.45Zm-.31,54.36c13.77-.23,22.21-10.71,21.98-23.78-.31-13.37-8.69-21.82-21.67-21.9-15.88.08-21.74,13.69-21.67,22.76-.23,10.55,5.63,22.76,21.36,22.91Z"/>
      <path class="cls-1" d="m566.32,266.91c-1.73.23-3.52.39-5.4.39h-3.2v23.07h-9.39v-61.48h12.9c14.16,0,23.39,5.79,23.39,19.17,0,7.12-3.36,12.36-8.76,15.56l24.33,26.75h-13.22l-20.64-23.47Zm-8.6-8.21h3.6c8.13,0,13.22-3.36,13.22-10.79s-4.93-10.24-12.98-10.24h-3.83v21.04Z"/>
      <path class="cls-1" d="m662.83,290.37v-40.99l-21.2,40.99h-8.36l-20.57-40.28v40.28h-9.39v-61.48h10.17l24.25,49.2,25.1-49.2h9.39v61.48h-9.39Z"/>
      <path class="cls-1" d="m711.95,228.89l22.76,61.48h-10.09l-7.28-20.88h-20.64l-7.35,20.88h-10.09l23.54-61.48h9.16Zm-12.2,31.92h14.55l-7.2-20.73-7.35,20.73Z"/>
      <path class="cls-1" d="m735.48,228.89h49.44v8.76h-20.03v52.72h-9.38v-52.72h-20.03v-8.76Z"/>
      <path class="cls-1" d="m800.56,228.89v61.48h-9.4v-61.48h9.4Z"/>
      <path class="cls-1" d="m810.02,228.89h40.04v6.97l-28.48,45.83h28.24v8.69h-39.88v-6.96l28.08-45.76h-28v-8.76Z"/>
      <path class="cls-1" d="m886.67,228.89l22.75,61.48h-10.08l-7.27-20.88h-20.66l-7.35,20.88h-10.08l23.54-61.48h9.16Zm-12.21,31.92h14.56l-7.21-20.73-7.35,20.73Zm5.48-34.73l-5-4.77,11.25-11.66,5.24,5.47-11.49,10.95Z"/>
      <path class="cls-1" d="m913.42,259.95c-.08-12.67,9.38-31.84,31.43-31.84,8.69,0,15.26,2.43,19.56,5.87v11.11c-4.46-4.46-9.92-8.29-19.56-8.29-15.87,0-21.73,14.08-21.65,23.15,0,9.93,5.78,22.76,21.65,22.76,8.22,0,15.18-2.9,19.56-7.04v9.85c-4.84,3.59-10.24,5.86-19.56,5.86-22.05-.08-31.43-17.52-31.43-31.36v-.08Z"/>
      <path class="cls-1" d="m983.18,228.89v61.48h-9.38v-61.48h9.38Z"/>
      <path class="cls-1" d="m1024.01,290.37h-28.7v-61.48h28.7v8.76h-19.32v17.59h13.69v8.68h-13.69v17.75h19.32v8.69Z"/>
    </g>
    <path class="cls-1" d="m206.65,5.05l-.23-4.18H4l-.41,4c-.06.53-5.49,56.74-2.89,119.42,2.83,68.02,55.2,120.41,102.68,140.35l1.66.67,1.66-.64c48.33-18.72,100.43-74.12,101.78-139.89,1.28-62.06-1.81-119.18-1.84-119.74Zm-7.04,119.56c-.47,22.14-6.98,43.98-19.33,64.8l-.44.79-.38-.82c-3.01-6.72-8.73-15.36-18.75-18.22-8.24-2.39-16.44-.2-23.95,6.28l-.53.47-.23-.64c-1.84-4.91-6.54-14.37-16.3-19.45-1.66-.96-3.48-1.66-5.26-2.16v-28.85c13.26-.18,36.48-.03,55.22,6.05,0,0-.53-7.1-.53-15.36s.53-15.39.53-15.39c-20.47,6.66-43.46,6.22-55.22,6.02v-27.69c10.72-.09,26.23.41,43.72,6.1,0,0-.55-7.1-.55-15.39s.55-15.36.55-15.36c-17.49,5.67-32.94,6.16-43.69,6.07.55-17.52,5.84-39.6,5.84-39.6,0,0-10.83.82-15.19.82s-15.16-.82-15.16-.82c0,0,5.26,22.08,5.81,39.6-10.75.09-26.2-.41-43.66-6.07,0,0,.53,7.1.53,15.36s-.53,15.39-.53,15.39c17.49-5.69,32.97-6.19,43.72-6.1v27.69c-11.8.2-34.81.64-55.25-6.02,0,0,.53,7.13.53,15.39s-.53,15.36-.53,15.36c18.78-6.07,41.97-6.22,55.25-6.05v28.68c-1.96.5-4.06,1.26-6.07,2.39-9.9,5.05-14.72,14.28-16.62,19.04l-.26.61-.5-.41c-3.68-3.18-9.67-7.01-17.11-7.01-2.8,0-5.64.53-8.44,1.64-7.83,2.98-13.49,10.57-16.88,16.38l-.41.7-.41-.67c-12.03-20.33-18.6-41.97-19.54-64.25-.47-11.27-.7-23.13-.7-35.19,0-37.23,2.22-67.32,3.15-78.53l.06-.41h185.85v.44c.58,12.12,1.93,44.57,1.93,83.2,0,10.78-.09,21.26-.29,31.19Z"/>
  </g>
</svg>