<svg width="154" height="37" viewBox="0 0 154 37" fill="none" xmlns="http://www.w3.org/2000/svg">
<rect x="18.9629" y="31.7861" width="9.9837" height="2.62729" rx="1.31364" transform="rotate(-180 18.9629 31.7861)" fill="white"/>
<rect x="17.3846" y="36.165" width="6.6558" height="2.62729" rx="1.31365" transform="rotate(-180 17.3846 36.165)" fill="white"/>
<circle cx="14.321" cy="13.8329" r="11.998" stroke="white" stroke-width="2.80244"/>
<path d="M10.7287 19.7006C10.7287 19.2169 11.1208 18.8248 11.6045 18.8248H12.5678H12.8305C13.2175 18.8248 13.5311 18.5112 13.5311 18.1242C13.5311 17.4785 15.2827 17.4785 15.2827 18.1242C15.2827 18.5112 15.5963 18.8248 15.9833 18.8248H17.2093C17.693 18.8248 18.0851 19.2169 18.0851 19.7006C18.0851 20.1843 17.693 20.5764 17.2093 20.5764H11.6045C11.1208 20.5764 10.7287 20.1843 10.7287 19.7006Z" fill="white" stroke="white" stroke-width="0.525458"/>
<rect x="15.2832" y="12.5193" width="7.35641" height="1.75153" transform="rotate(90 15.2832 12.5193)" fill="white" stroke="white" stroke-width="0.525458"/>
<path d="M15.2832 12.3442C15.2832 12.8279 14.8911 13.22 14.4075 13.22C14.1372 13.22 13.8931 13.37 13.742 13.5941C13.6355 13.7522 13.5317 13.8734 13.5317 13.7455C13.5317 13.4827 13.3566 13.22 13.0062 13.22L12.6559 13.22C12.1723 13.22 11.7802 12.8279 11.7802 12.3442C11.7802 11.8606 12.1723 11.4685 12.6559 11.4685L14.4075 11.4685C14.8911 11.4685 15.2832 11.8606 15.2832 12.3442Z" fill="white" stroke="white" stroke-width="0.525458"/>
<circle cx="14.0558" cy="8.14058" r="1.57637" fill="white"/>
<path d="M38.1981 11.0404V26.6108H35.0884V11.0404H38.1981ZM47.5173 14.2162C48.9288 14.2162 50.0535 14.6794 50.8916 15.6057C51.7297 16.532 52.1487 17.8332 52.1487 19.5093V26.6108H49.0611V19.8622C49.0611 18.8918 48.8111 18.1419 48.3112 17.6126C47.8113 17.0686 47.1277 16.7966 46.2602 16.7966C45.378 16.7966 44.6723 17.0833 44.143 17.6567C43.6136 18.2301 43.349 19.0535 43.349 20.1268V26.6108H40.2393V14.3927H43.349V16.8407C43.6725 16.0174 44.2018 15.3778 44.9369 14.922C45.6868 14.4515 46.5469 14.2162 47.5173 14.2162ZM60.1559 12.2754C59.2443 12.2166 58.6047 12.349 58.2371 12.6724C57.8695 12.9959 57.6858 13.562 57.6858 14.3706V14.3927H60.1559V17.0172H57.6858V26.6108H54.5761V17.0172H53.0102V14.3927H54.5761V14.106C54.5761 12.6504 54.9878 11.5329 55.8111 10.7537C56.6492 9.95973 57.8843 9.56275 59.5163 9.56275C59.7956 9.56275 60.0088 9.5701 60.1559 9.58481V12.2754ZM66.8913 14.2383C68.0822 14.2383 69.1482 14.4882 70.0891 14.9881C71.0448 15.488 71.7947 16.2158 72.3387 17.1715C72.8827 18.1125 73.1547 19.2226 73.1547 20.5018C73.1547 21.7809 72.8827 22.891 72.3387 23.832C71.7947 24.773 71.0448 25.5008 70.0891 26.0154C69.1482 26.5153 68.0822 26.7652 66.8913 26.7652C65.7003 26.7652 64.627 26.5153 63.6713 26.0154C62.7303 25.5008 61.9878 24.773 61.4438 23.832C60.8998 22.891 60.6278 21.7809 60.6278 20.5018C60.6278 19.2226 60.8998 18.1125 61.4438 17.1715C61.9878 16.2158 62.7303 15.488 63.6713 14.9881C64.627 14.4882 65.7003 14.2383 66.8913 14.2383ZM66.8913 16.9289C66.0238 16.9289 65.2886 17.2377 64.6858 17.8552C64.083 18.458 63.7816 19.3402 63.7816 20.5018C63.7816 21.6633 64.083 22.5528 64.6858 23.1703C65.2886 23.7732 66.0238 24.0746 66.8913 24.0746C67.7587 24.0746 68.4939 23.7732 69.0967 23.1703C69.6995 22.5528 70.0009 21.6633 70.0009 20.5018C70.0009 19.3402 69.6995 18.458 69.0967 17.8552C68.4939 17.2377 67.7587 16.9289 66.8913 16.9289ZM90.1289 14.2162C91.6139 14.2162 92.7828 14.6794 93.6355 15.6057C94.503 16.5173 94.9368 17.8185 94.9368 19.5093V26.6108H91.8491V19.8622C91.8491 18.9212 91.6065 18.2007 91.1213 17.7008C90.6508 17.1862 89.9966 16.9289 89.1585 16.9289C88.291 16.9289 87.6 17.2009 87.0854 17.745C86.5708 18.289 86.3135 19.0829 86.3135 20.1268V26.6108H83.2258V19.8622C83.2258 18.9212 82.9832 18.2007 82.498 17.7008C82.0276 17.1862 81.3733 16.9289 80.5352 16.9289C79.6677 16.9289 78.9767 17.2009 78.4621 17.745C77.9475 18.289 77.6902 19.0829 77.6902 20.1268V26.6108H74.5805V14.3927H77.6902V16.7084C78.0136 15.9144 78.5209 15.3043 79.2119 14.8779C79.9177 14.4368 80.7337 14.2162 81.66 14.2162C82.6451 14.2162 83.4979 14.4515 84.2183 14.922C84.9534 15.3925 85.5048 16.0688 85.8724 16.951C86.2547 16.1129 86.8207 15.4513 87.5706 14.9661C88.3351 14.4662 89.1879 14.2162 90.1289 14.2162ZM108.387 20.0386C108.387 20.3474 108.35 20.7002 108.277 21.0972H99.3228C99.3669 22.1852 99.661 22.9866 100.205 23.5012C100.749 24.0158 101.425 24.2731 102.234 24.2731C102.954 24.2731 103.55 24.0966 104.02 23.7438C104.506 23.3909 104.814 22.913 104.947 22.3102H108.233C108.071 23.163 107.726 23.9275 107.196 24.6039C106.667 25.2802 105.983 25.8095 105.145 26.1918C104.322 26.5741 103.403 26.7652 102.388 26.7652C101.197 26.7652 100.139 26.5153 99.2126 26.0154C98.2863 25.5008 97.5658 24.773 97.0512 23.832C96.5366 22.891 96.2793 21.7809 96.2793 20.5018C96.2793 19.2226 96.5366 18.1125 97.0512 17.1715C97.5658 16.2158 98.2863 15.488 99.2126 14.9881C100.139 14.4882 101.197 14.2383 102.388 14.2383C103.594 14.2383 104.645 14.4882 105.542 14.9881C106.454 15.488 107.152 16.1791 107.637 17.0613C108.137 17.9287 108.387 18.9212 108.387 20.0386ZM105.255 19.7299C105.3 18.7301 105.035 17.9728 104.462 17.4582C103.903 16.9436 103.212 16.6863 102.388 16.6863C101.55 16.6863 100.845 16.9436 100.271 17.4582C99.6978 17.9728 99.3816 18.7301 99.3228 19.7299H105.255ZM117.101 14.2162C118.512 14.2162 119.637 14.6794 120.475 15.6057C121.313 16.532 121.732 17.8332 121.732 19.5093V26.6108H118.645V19.8622C118.645 18.8918 118.395 18.1419 117.895 17.6126C117.395 17.0686 116.711 16.7966 115.844 16.7966C114.962 16.7966 114.256 17.0833 113.726 17.6567C113.197 18.2301 112.932 19.0535 112.932 20.1268V26.6108H109.823V14.3927H112.932V16.8407C113.256 16.0174 113.785 15.3778 114.52 14.922C115.27 14.4515 116.13 14.2162 117.101 14.2162ZM130.225 23.9423V26.6108H128.593C127.225 26.6108 126.174 26.28 125.439 25.6184C124.718 24.9568 124.358 23.854 124.358 22.3102V17.0172H122.66V14.3927H124.358V11.3712H127.468V14.3927H130.203V17.0172H127.468V22.3543C127.468 22.9424 127.585 23.3541 127.821 23.5894C128.056 23.8246 128.453 23.9423 129.012 23.9423H130.225ZM137.336 14.2383C138.527 14.2383 139.593 14.4882 140.534 14.9881C141.49 15.488 142.24 16.2158 142.784 17.1715C143.328 18.1125 143.6 19.2226 143.6 20.5018C143.6 21.7809 143.328 22.891 142.784 23.832C142.24 24.773 141.49 25.5008 140.534 26.0154C139.593 26.5153 138.527 26.7652 137.336 26.7652C136.145 26.7652 135.072 26.5153 134.116 26.0154C133.175 25.5008 132.433 24.773 131.889 23.832C131.345 22.891 131.073 21.7809 131.073 20.5018C131.073 19.2226 131.345 18.1125 131.889 17.1715C132.433 16.2158 133.175 15.488 134.116 14.9881C135.072 14.4882 136.145 14.2383 137.336 14.2383ZM137.336 16.9289C136.469 16.9289 135.734 17.2377 135.131 17.8552C134.528 18.458 134.227 19.3402 134.227 20.5018C134.227 21.6633 134.528 22.5528 135.131 23.1703C135.734 23.7732 136.469 24.0746 137.336 24.0746C138.204 24.0746 138.939 23.7732 139.542 23.1703C140.145 22.5528 140.446 21.6633 140.446 20.5018C140.446 19.3402 140.145 18.458 139.542 17.8552C138.939 17.2377 138.204 16.9289 137.336 16.9289ZM148.135 16.7304C148.591 15.9512 149.194 15.341 149.944 14.8999C150.693 14.4441 151.532 14.2162 152.458 14.2162V17.5465H151.554C149.275 17.5465 148.135 18.6051 148.135 20.7223V26.6108H145.026V14.3927H148.135V16.7304Z" fill="white"/>
</svg>
