<svg width="229" height="55" viewBox="0 0 229 55" fill="none" xmlns="http://www.w3.org/2000/svg">
<rect x="27.875" y="47.7744" width="14.9247" height="3.92755" rx="1.96378" transform="rotate(-180 27.875 47.7744)" fill="white"/>
<rect x="25.5176" y="54.3198" width="9.94981" height="3.92755" rx="1.96378" transform="rotate(-180 25.5176 54.3198)" fill="white"/>
<circle cx="20.9358" cy="20.9358" r="17.9358" stroke="white" stroke-width="4.18939"/>
<path d="M15.5679 29.7075C15.5679 28.9845 16.154 28.3984 16.8771 28.3984H18.3172H18.7099C19.2883 28.3984 19.7573 27.9294 19.7573 27.351V27.351V27.351C19.7573 26.3857 22.3756 26.3857 22.3756 27.351V27.351V27.351C22.3756 27.9294 22.8445 28.3984 23.423 28.3984H25.2558C25.9789 28.3984 26.565 28.9845 26.565 29.7075V29.7075C26.565 30.4306 25.9789 31.0167 25.2558 31.0167H16.8771C16.154 31.0167 15.5679 30.4306 15.5679 29.7075V29.7075Z" fill="white" stroke="white" stroke-width="0.785511"/>
<rect x="22.375" y="18.9722" width="10.9972" height="2.61837" transform="rotate(90 22.375 18.9722)" fill="white" stroke="white" stroke-width="0.785511"/>
<path d="M22.375 18.7104C22.375 19.4335 21.7889 20.0196 21.0658 20.0196V20.0196V20.0196C20.6618 20.0196 20.2968 20.2438 20.071 20.5788C19.9118 20.8151 19.7566 20.9963 19.7566 20.8051C19.7566 20.4124 19.4948 20.0196 18.9711 20.0196L18.4474 20.0196V20.0196C17.7244 20.0196 17.1383 19.4335 17.1383 18.7104V18.7104C17.1383 17.9874 17.7244 17.4012 18.4474 17.4012L21.0658 17.4012C21.7889 17.4012 22.375 17.9874 22.375 18.7104V18.7104Z" fill="white" stroke="white" stroke-width="0.785511"/>
<circle cx="20.5431" cy="12.4264" r="2.35653" fill="white"/>
<path d="M56.6298 16.8838V40.1602H51.9811V16.8838H56.6298ZM70.5612 21.6314C72.6712 21.6314 74.3526 22.3237 75.6055 23.7085C76.8583 25.0932 77.4847 27.0384 77.4847 29.544V40.1602H72.869V30.0715C72.869 28.6209 72.4954 27.4999 71.7481 26.7087C71.0007 25.8954 69.9787 25.4888 68.6819 25.4888C67.3631 25.4888 66.3081 25.9174 65.5168 26.7746C64.7256 27.6318 64.33 28.8627 64.33 30.4672V40.1602H59.6813V21.8951H64.33V25.5547C64.8135 24.3239 65.6048 23.3678 66.7037 22.6864C67.8247 21.9831 69.1105 21.6314 70.5612 21.6314ZM89.4546 18.7301C88.0919 18.6422 87.1358 18.84 86.5863 19.3235C86.0368 19.8071 85.7621 20.6533 85.7621 21.8622V21.8951H89.4546V25.8185H85.7621V40.1602H81.1134V25.8185H78.7726V21.8951H81.1134V21.4665C81.1134 19.2906 81.7288 17.6201 82.9597 16.4552C84.2125 15.2683 86.0588 14.6749 88.4985 14.6749C88.9161 14.6749 89.2349 14.6858 89.4546 14.7078V18.7301ZM99.5234 21.6644C101.304 21.6644 102.897 22.038 104.304 22.7853C105.733 23.5326 106.854 24.6206 107.667 26.0493C108.48 27.456 108.887 29.1154 108.887 31.0276C108.887 32.9399 108.48 34.5993 107.667 36.006C106.854 37.4127 105.733 38.5007 104.304 39.27C102.897 40.0173 101.304 40.3909 99.5234 40.3909C97.7431 40.3909 96.1386 40.0173 94.7099 39.27C93.3032 38.5007 92.1932 37.4127 91.38 36.006C90.5668 34.5993 90.1601 32.9399 90.1601 31.0276C90.1601 29.1154 90.5668 27.456 91.38 26.0493C92.1932 24.6206 93.3032 23.5326 94.7099 22.7853C96.1386 22.038 97.7431 21.6644 99.5234 21.6644ZM99.5234 25.6866C98.2266 25.6866 97.1277 26.1482 96.2265 27.0713C95.3253 27.9725 94.8748 29.2913 94.8748 31.0276C94.8748 32.764 95.3253 34.0938 96.2265 35.0169C97.1277 35.9181 98.2266 36.3687 99.5234 36.3687C100.82 36.3687 101.919 35.9181 102.82 35.0169C103.722 34.0938 104.172 32.764 104.172 31.0276C104.172 29.2913 103.722 27.9725 102.82 27.0713C101.919 26.1482 100.82 25.6866 99.5234 25.6866ZM134.262 21.6314C136.481 21.6314 138.229 22.3237 139.504 23.7085C140.8 25.0712 141.449 27.0164 141.449 29.544V40.1602H136.833V30.0715C136.833 28.6648 136.47 27.5878 135.745 26.8405C135.042 26.0713 134.064 25.6866 132.811 25.6866C131.514 25.6866 130.481 26.0932 129.712 26.9065C128.942 27.7197 128.558 28.9066 128.558 30.4672V40.1602H123.942V30.0715C123.942 28.6648 123.579 27.5878 122.854 26.8405C122.151 26.0713 121.173 25.6866 119.92 25.6866C118.623 25.6866 117.59 26.0932 116.821 26.9065C116.051 27.7197 115.667 28.9066 115.667 30.4672V40.1602H111.018V21.8951H115.667V25.3569C116.15 24.17 116.909 23.2579 117.942 22.6205C118.997 21.9611 120.217 21.6314 121.601 21.6314C123.074 21.6314 124.349 21.9831 125.426 22.6864C126.525 23.3898 127.349 24.4008 127.898 25.7196C128.47 24.4668 129.316 23.4777 130.437 22.7523C131.58 22.005 132.855 21.6314 134.262 21.6314ZM161.556 30.3353C161.556 30.7969 161.501 31.3244 161.391 31.9178H148.006C148.072 33.5443 148.511 34.7422 149.324 35.5115C150.138 36.2808 151.149 36.6654 152.358 36.6654C153.435 36.6654 154.325 36.4017 155.028 35.8741C155.753 35.3466 156.215 34.6323 156.413 33.7311H161.325C161.083 35.0059 160.567 36.1489 159.776 37.1599C158.984 38.171 157.962 38.9623 156.71 39.5337C155.479 40.1052 154.105 40.3909 152.588 40.3909C150.808 40.3909 149.225 40.0173 147.841 39.27C146.456 38.5007 145.379 37.4127 144.61 36.006C143.84 34.5993 143.456 32.9399 143.456 31.0276C143.456 29.1154 143.84 27.456 144.61 26.0493C145.379 24.6206 146.456 23.5326 147.841 22.7853C149.225 22.038 150.808 21.6644 152.588 21.6644C154.391 21.6644 155.962 22.038 157.303 22.7853C158.666 23.5326 159.71 24.5657 160.435 25.8844C161.182 27.1812 161.556 28.6648 161.556 30.3353ZM156.874 29.8737C156.94 28.3791 156.545 27.2472 155.687 26.4779C154.852 25.7086 153.819 25.324 152.588 25.324C151.336 25.324 150.281 25.7086 149.423 26.4779C148.566 27.2472 148.094 28.3791 148.006 29.8737H156.874ZM174.582 21.6314C176.692 21.6314 178.373 22.3237 179.626 23.7085C180.879 25.0932 181.506 27.0384 181.506 29.544V40.1602H176.89V30.0715C176.89 28.6209 176.516 27.4999 175.769 26.7087C175.022 25.8954 174 25.4888 172.703 25.4888C171.384 25.4888 170.329 25.9174 169.538 26.7746C168.746 27.6318 168.351 28.8627 168.351 30.4672V40.1602H163.702V21.8951H168.351V25.5547C168.834 24.3239 169.626 23.3678 170.725 22.6864C171.846 21.9831 173.131 21.6314 174.582 21.6314ZM194.201 36.1709V40.1602H191.761C189.717 40.1602 188.145 39.6656 187.046 38.6765C185.969 37.6875 185.431 36.039 185.431 33.7311V25.8185H182.892V21.8951H185.431V17.3783H190.08V21.8951H194.168V25.8185H190.08V33.7971C190.08 34.6763 190.255 35.2917 190.607 35.6434C190.959 35.995 191.552 36.1709 192.387 36.1709H194.201ZM204.832 21.6644C206.612 21.6644 208.206 22.038 209.613 22.7853C211.041 23.5326 212.162 24.6206 212.976 26.0493C213.789 27.456 214.195 29.1154 214.195 31.0276C214.195 32.9399 213.789 34.5993 212.976 36.006C212.162 37.4127 211.041 38.5007 209.613 39.27C208.206 40.0173 206.612 40.3909 204.832 40.3909C203.052 40.3909 201.447 40.0173 200.019 39.27C198.612 38.5007 197.502 37.4127 196.689 36.006C195.875 34.5993 195.469 32.9399 195.469 31.0276C195.469 29.1154 195.875 27.456 196.689 26.0493C197.502 24.6206 198.612 23.5326 200.019 22.7853C201.447 22.038 203.052 21.6644 204.832 21.6644ZM204.832 25.6866C203.535 25.6866 202.436 26.1482 201.535 27.0713C200.634 27.9725 200.183 29.2913 200.183 31.0276C200.183 32.764 200.634 34.0938 201.535 35.0169C202.436 35.9181 203.535 36.3687 204.832 36.3687C206.129 36.3687 207.228 35.9181 208.129 35.0169C209.03 34.0938 209.481 32.764 209.481 31.0276C209.481 29.2913 209.03 27.9725 208.129 27.0713C207.228 26.1482 206.129 25.6866 204.832 25.6866ZM220.976 25.3899C221.657 24.225 222.558 23.3128 223.679 22.6534C224.8 21.9721 226.053 21.6314 227.438 21.6314V26.6098H226.086C222.679 26.6098 220.976 28.1923 220.976 31.3573V40.1602H216.327V21.8951H220.976V25.3899Z" fill="white"/>
</svg>
