<svg width="30" height="30" viewBox="0 0 30 30" fill="none" xmlns="http://www.w3.org/2000/svg">
<path d="M14.0621 1.5345C14.3843 0.663886 15.6157 0.663887 15.9379 1.53451L19.1619 10.2473C19.2632 10.521 19.479 10.7368 19.7527 10.8381L28.4655 14.0621C29.3361 14.3843 29.3361 15.6157 28.4655 15.9379L19.7527 19.1619C19.479 19.2632 19.2632 19.479 19.1619 19.7527L15.9379 28.4655C15.6157 29.3361 14.3843 29.3361 14.0621 28.4655L10.8381 19.7527C10.7368 19.479 10.521 19.2632 10.2473 19.1619L1.5345 15.9379C0.663886 15.6157 0.663887 14.3843 1.53451 14.0621L10.2473 10.8381C10.521 10.7368 10.7368 10.521 10.8381 10.2473L14.0621 1.5345Z" fill="white"/>
</svg>
