<svg width="20" height="23" viewBox="0 0 20 23" fill="none" xmlns="http://www.w3.org/2000/svg">
<path d="M12.8777 18.6924C12.8777 20.3492 11.5345 21.6924 9.87765 21.6924C8.2208 21.6924 6.87765 20.3492 6.87765 18.6924M11.6742 5.93094C12.1096 5.48102 12.3777 4.868 12.3777 4.19238C12.3777 2.81167 11.2584 1.69238 9.87765 1.69238C8.49694 1.69238 7.37765 2.81167 7.37765 4.19238C7.37765 4.868 7.64565 5.48102 8.08115 5.93094M15.8777 10.8924C15.8777 9.51326 15.2455 8.19062 14.1203 7.21543C12.9951 6.24024 11.4689 5.69238 9.87765 5.69238C8.28635 5.69238 6.76023 6.24024 5.63501 7.21543C4.50979 8.19062 3.87765 9.51326 3.87765 10.8924C3.87765 13.1742 3.31178 14.843 2.60571 16.0371C1.80099 17.398 1.39863 18.0785 1.41452 18.241C1.43269 18.427 1.46617 18.4857 1.61699 18.596C1.74882 18.6924 2.41116 18.6924 3.73584 18.6924H16.0195C17.3441 18.6924 18.0065 18.6924 18.1383 18.596C18.2891 18.4857 18.3226 18.427 18.3408 18.241C18.3567 18.0785 17.9543 17.398 17.1496 16.0371C16.4435 14.843 15.8777 13.1742 15.8777 10.8924Z" stroke="#1C1C1C" stroke-width="2" stroke-linecap="round" stroke-linejoin="round"/>
</svg>
