<svg width="25" height="24" viewBox="0 0 25 24" fill="none" xmlns="http://www.w3.org/2000/svg">
<path d="M15.2761 19C15.2761 20.6569 13.9329 22 12.2761 22C10.6192 22 9.27609 20.6569 9.27609 19M14.0726 6.23856C14.5081 5.78864 14.7761 5.17562 14.7761 4.5C14.7761 3.11929 13.6568 2 12.2761 2C10.8954 2 9.77609 3.11929 9.77609 4.5C9.77609 5.17562 10.0441 5.78864 10.4796 6.23856M18.2761 11.2C18.2761 9.82087 17.6439 8.49823 16.5187 7.52304C15.3935 6.54786 13.8674 6 12.2761 6C10.6848 6 9.15867 6.54786 8.03345 7.52304C6.90823 8.49823 6.27609 9.82087 6.27609 11.2C6.27609 13.4818 5.71022 15.1506 5.00415 16.3447C4.19943 17.7056 3.79706 18.3861 3.81295 18.5486C3.83113 18.7346 3.8646 18.7933 4.01543 18.9036C4.14726 19 4.8096 19 6.13428 19H18.4179C19.7426 19 20.4049 19 20.5367 18.9036C20.6876 18.7933 20.721 18.7346 20.7392 18.5486C20.7551 18.3861 20.3528 17.7056 19.548 16.3447C18.842 15.1506 18.2761 13.4818 18.2761 11.2Z" stroke="white" stroke-width="2" stroke-linecap="round" stroke-linejoin="round"/>
</svg>
