<svg width="14" height="16" viewBox="0 0 14 16" fill="none" xmlns="http://www.w3.org/2000/svg">
<path d="M9.65885 4.00004V3.46671C9.65885 2.71997 9.65885 2.3466 9.51353 2.06139C9.3857 1.8105 9.18172 1.60653 8.93084 1.4787C8.64563 1.33337 8.27226 1.33337 7.52552 1.33337H6.45885C5.71212 1.33337 5.33875 1.33337 5.05353 1.4787C4.80265 1.60653 4.59868 1.8105 4.47085 2.06139C4.32552 2.3466 4.32552 2.71997 4.32552 3.46671V4.00004M5.65885 7.66671V11M8.32552 7.66671V11M0.992188 4.00004H12.9922M11.6589 4.00004V11.4667C11.6589 12.5868 11.6589 13.1469 11.4409 13.5747C11.2491 13.951 10.9432 14.257 10.5668 14.4487C10.139 14.6667 9.57896 14.6667 8.45885 14.6667H5.52552C4.40542 14.6667 3.84536 14.6667 3.41754 14.4487C3.04122 14.257 2.73525 13.951 2.54351 13.5747C2.32552 13.1469 2.32552 12.5868 2.32552 11.4667V4.00004" stroke="#E74B5E" stroke-width="1.5" stroke-linecap="round" stroke-linejoin="round"/>
</svg>
