<svg width="25" height="25" viewBox="0 0 25 25" fill="none" xmlns="http://www.w3.org/2000/svg">
<path d="M2.84766 7.09111C2.84766 5.97101 2.84766 5.41096 3.06564 4.98313C3.25739 4.60681 3.56335 4.30085 3.93968 4.1091C4.3675 3.89111 4.92755 3.89111 6.04766 3.89111H6.44766C8.68787 3.89111 9.80797 3.89111 10.6636 4.32709C11.4163 4.71058 12.0282 5.3225 12.4117 6.07515C12.8477 6.9308 12.8477 8.0509 12.8477 10.2911V21.8911L12.7476 21.741C12.053 20.6991 11.7056 20.1781 11.2468 19.8009C10.8405 19.467 10.3724 19.2165 9.86926 19.0637C9.30091 18.8911 8.67476 18.8911 7.42248 18.8911H6.04766C4.92755 18.8911 4.3675 18.8911 3.93968 18.6731C3.56335 18.4814 3.25739 18.1754 3.06564 17.7991C2.84766 17.3713 2.84766 16.8112 2.84766 15.6911V7.09111Z" fill="white"/>
<path d="M22.8477 7.09111C22.8477 5.97101 22.8477 5.41096 22.6297 4.98313C22.4379 4.60681 22.132 4.30085 21.7556 4.1091C21.3278 3.89111 20.7678 3.89111 19.6477 3.89111H19.2477C17.0074 3.89111 15.8873 3.89111 15.0317 4.32709C14.279 4.71058 13.6671 5.3225 13.2836 6.07515C12.8477 6.9308 12.8477 8.0509 12.8477 10.2911V21.8911L12.9477 21.741C13.6424 20.6991 13.9897 20.1781 14.4486 19.8009C14.8548 19.467 15.3229 19.2165 15.8261 19.0637C16.3944 18.8911 17.0205 18.8911 18.2728 18.8911H19.6477C20.7678 18.8911 21.3278 18.8911 21.7556 18.6731C22.132 18.4814 22.4379 18.1754 22.6297 17.7991C22.8477 17.3713 22.8477 16.8112 22.8477 15.6911V7.09111Z" fill="white"/>
<path d="M12.8477 21.8911L12.7476 21.741C12.053 20.6991 11.7056 20.1781 11.2468 19.8009C10.8405 19.467 10.3724 19.2165 9.86926 19.0637C9.30091 18.8911 8.67476 18.8911 7.42248 18.8911H6.04766C4.92755 18.8911 4.3675 18.8911 3.93968 18.6731C3.56335 18.4814 3.25739 18.1754 3.06564 17.7991C2.84766 17.3713 2.84766 16.8112 2.84766 15.6911V7.09111C2.84766 5.97101 2.84766 5.41096 3.06564 4.98313C3.25739 4.60681 3.56335 4.30085 3.93968 4.1091C4.3675 3.89111 4.92755 3.89111 6.04766 3.89111H6.44766C8.68787 3.89111 9.80797 3.89111 10.6636 4.32709C11.4163 4.71058 12.0282 5.3225 12.4117 6.07515C12.8477 6.9308 12.8477 8.0509 12.8477 10.2911M12.8477 21.8911V10.2911M12.8477 21.8911L12.9477 21.741C13.6424 20.6991 13.9897 20.1781 14.4486 19.8009C14.8548 19.467 15.3229 19.2165 15.8261 19.0637C16.3944 18.8911 17.0205 18.8911 18.2728 18.8911H19.6477C20.7678 18.8911 21.3278 18.8911 21.7556 18.6731C22.132 18.4814 22.4379 18.1754 22.6297 17.7991C22.8477 17.3713 22.8477 16.8112 22.8477 15.6911V7.09111C22.8477 5.97101 22.8477 5.41096 22.6297 4.98313C22.4379 4.60681 22.132 4.30085 21.7556 4.1091C21.3278 3.89111 20.7678 3.89111 19.6477 3.89111H19.2477C17.0074 3.89111 15.8873 3.89111 15.0317 4.32709C14.279 4.71058 13.6671 5.3225 13.2836 6.07515C12.8477 6.9308 12.8477 8.0509 12.8477 10.2911" stroke="white" stroke-width="2" stroke-linecap="round" stroke-linejoin="round"/>
</svg>
