<svg width="23" height="21" viewBox="0 0 23 21" fill="none" xmlns="http://www.w3.org/2000/svg">
<path d="M1.875 5.13408C1.875 4.01398 1.875 3.45392 2.09299 3.0261C2.28473 2.64978 2.59069 2.34382 2.96702 2.15207C3.39484 1.93408 3.95489 1.93408 5.075 1.93408H5.475C7.71521 1.93408 8.83531 1.93408 9.69096 2.37006C10.4436 2.75355 11.0555 3.36547 11.439 4.11812C11.875 4.97377 11.875 6.09387 11.875 8.33408V19.9341L11.7749 19.784C11.0803 18.742 10.733 18.2211 10.2741 17.8439C9.86786 17.51 9.39977 17.2595 8.89661 17.1067C8.32825 16.9341 7.70211 16.9341 6.44982 16.9341H5.075C3.9549 16.9341 3.39484 16.9341 2.96702 16.7161C2.59069 16.5243 2.28473 16.2184 2.09299 15.8421C1.875 15.4142 1.875 14.8542 1.875 13.7341V5.13408Z" fill="#5358C7"/>
<path d="M21.875 5.13408C21.875 4.01398 21.875 3.45392 21.657 3.0261C21.4653 2.64978 21.1593 2.34382 20.783 2.15207C20.3552 1.93408 19.7951 1.93408 18.675 1.93408H18.275C16.0348 1.93408 14.9147 1.93408 14.059 2.37006C13.3064 2.75355 12.6945 3.36547 12.311 4.11812C11.875 4.97377 11.875 6.09387 11.875 8.33408V19.9341L11.9751 19.784C12.6697 18.742 13.017 18.2211 13.4759 17.8439C13.8821 17.51 14.3502 17.2595 14.8534 17.1067C15.4218 16.9341 16.0479 16.9341 17.3002 16.9341H18.675C19.7951 16.9341 20.3552 16.9341 20.783 16.7161C21.1593 16.5243 21.4653 16.2184 21.657 15.8421C21.875 15.4142 21.875 14.8542 21.875 13.7341V5.13408Z" fill="#5358C7"/>
<path d="M11.875 19.9341L11.7749 19.784C11.0803 18.742 10.733 18.2211 10.2741 17.8439C9.86786 17.51 9.39976 17.2595 8.89661 17.1067C8.32825 16.9341 7.70211 16.9341 6.44982 16.9341H5.075C3.95489 16.9341 3.39484 16.9341 2.96702 16.7161C2.59069 16.5243 2.28473 16.2184 2.09299 15.8421C1.875 15.4142 1.875 14.8542 1.875 13.7341V5.13408C1.875 4.01398 1.875 3.45392 2.09299 3.0261C2.28473 2.64978 2.59069 2.34382 2.96702 2.15207C3.39484 1.93408 3.95489 1.93408 5.075 1.93408H5.475C7.71521 1.93408 8.83531 1.93408 9.69096 2.37006C10.4436 2.75355 11.0555 3.36547 11.439 4.11812C11.875 4.97377 11.875 6.09387 11.875 8.33408M11.875 19.9341V8.33408M11.875 19.9341L11.9751 19.784C12.6697 18.742 13.017 18.2211 13.4759 17.8439C13.8821 17.51 14.3502 17.2595 14.8534 17.1067C15.4217 16.9341 16.0479 16.9341 17.3002 16.9341H18.675C19.7951 16.9341 20.3552 16.9341 20.783 16.7161C21.1593 16.5243 21.4653 16.2184 21.657 15.8421C21.875 15.4142 21.875 14.8542 21.875 13.7341V5.13408C21.875 4.01398 21.875 3.45392 21.657 3.0261C21.4653 2.64978 21.1593 2.34382 20.783 2.15207C20.3552 1.93408 19.7951 1.93408 18.675 1.93408H18.275C16.0348 1.93408 14.9147 1.93408 14.059 2.37006C13.3064 2.75355 12.6945 3.36547 12.311 4.11812C11.875 4.97377 11.875 6.09387 11.875 8.33408" stroke="#5358C7" stroke-width="2" stroke-linecap="round" stroke-linejoin="round"/>
</svg>
