<svg width="25" height="25" viewBox="0 0 25 25" fill="none" xmlns="http://www.w3.org/2000/svg">
<path d="M12.875 21.9341L12.7749 21.784C12.0803 20.742 11.733 20.2211 11.2741 19.8439C10.8679 19.51 10.3998 19.2595 9.89661 19.1067C9.32825 18.9341 8.70211 18.9341 7.44982 18.9341H6.075C4.95489 18.9341 4.39484 18.9341 3.96702 18.7161C3.59069 18.5243 3.28473 18.2184 3.09299 17.8421C2.875 17.4142 2.875 16.8542 2.875 15.7341V7.13408C2.875 6.01398 2.875 5.45392 3.09299 5.0261C3.28473 4.64978 3.59069 4.34382 3.96702 4.15207C4.39484 3.93408 4.95489 3.93408 6.075 3.93408H6.475C8.71521 3.93408 9.83531 3.93408 10.691 4.37006C11.4436 4.75355 12.0555 5.36547 12.439 6.11812C12.875 6.97377 12.875 8.09387 12.875 10.3341M12.875 21.9341V10.3341M12.875 21.9341L12.9751 21.784C13.6697 20.742 14.017 20.2211 14.4759 19.8439C14.8821 19.51 15.3502 19.2595 15.8534 19.1067C16.4217 18.9341 17.0479 18.9341 18.3002 18.9341H19.675C20.7951 18.9341 21.3552 18.9341 21.783 18.7161C22.1593 18.5243 22.4653 18.2184 22.657 17.8421C22.875 17.4142 22.875 16.8542 22.875 15.7341V7.13408C22.875 6.01398 22.875 5.45392 22.657 5.0261C22.4653 4.64978 22.1593 4.34382 21.783 4.15207C21.3552 3.93408 20.7951 3.93408 19.675 3.93408H19.275C17.0348 3.93408 15.9147 3.93408 15.059 4.37006C14.3064 4.75355 13.6945 5.36547 13.311 6.11812C12.875 6.97377 12.875 8.09387 12.875 10.3341" stroke="#1C1C1C" stroke-width="2" stroke-linecap="round" stroke-linejoin="round"/>
</svg>
