<svg width="25" height="25" viewBox="0 0 25 25" fill="none" xmlns="http://www.w3.org/2000/svg">
<path fill-rule="evenodd" clip-rule="evenodd" d="M12.9902 21.114C17.9608 21.114 21.9902 17.0833 21.9902 12.114C21.9902 7.14473 17.9608 3.11401 12.9902 3.11401C8.01966 3.11401 3.99023 7.14473 3.99023 12.114C3.99023 17.0833 8.01966 21.114 12.9902 21.114ZM12.9902 19.614C17.1324 19.614 20.4902 16.2551 20.4902 12.114C20.4902 7.97294 17.1324 4.61401 12.9902 4.61401C8.84809 4.61401 5.49023 7.97294 5.49023 12.114C5.49023 16.2551 8.84809 19.614 12.9902 19.614Z" fill="#369C8B"/>
<path d="M16.7557 9.93127L11.8646 14.8223L9.15625 12.114" stroke="#369C8B" stroke-width="1.5" stroke-linecap="round" stroke-linejoin="round"/>
</svg>
