<svg width="23" height="20" viewBox="0 0 23 20" fill="none" xmlns="http://www.w3.org/2000/svg">
<path d="M13.275 10.3393H10.475C9.91495 10.3393 9.63492 10.3393 9.42101 10.4434C9.23285 10.5349 9.07987 10.681 8.984 10.8607C8.875 11.065 8.875 11.3324 8.875 11.8672V18.934H7.075C5.9549 18.934 5.39485 18.934 4.96702 18.7258C4.5907 18.5427 4.28474 18.2505 4.09299 17.8911C3.875 17.4826 3.875 16.9478 3.875 15.8781V6.51939L9.955 2.16473L10.915 1.47716C11.2593 1.23059 11.4314 1.1073 11.6204 1.05978C11.7873 1.01783 11.9627 1.01783 12.1296 1.05978C12.3186 1.1073 12.4907 1.23059 12.835 1.47716L13.795 2.16473L19.875 6.51939V15.8781C19.875 16.9478 19.875 17.4826 19.657 17.8911C19.4653 18.2505 19.1593 18.5427 18.783 18.7258C18.3552 18.934 17.7951 18.934 16.675 18.934H14.875V11.8672C14.875 11.3324 14.875 11.065 14.766 10.8607C14.6701 10.681 14.5172 10.5349 14.329 10.4434C14.1151 10.3393 13.8351 10.3393 13.275 10.3393Z" fill="#5358C7"/>
<path d="M1.875 7.95185L10.915 1.47716C11.2593 1.23059 11.4314 1.1073 11.6204 1.05978C11.7873 1.01783 11.9627 1.01783 12.1296 1.05978C12.3186 1.1073 12.4907 1.23059 12.835 1.47716L21.875 7.95185M7.075 18.934C5.9549 18.934 5.39485 18.934 4.96702 18.7258C4.5907 18.5427 4.28474 18.2505 4.09299 17.8911C3.875 17.4826 3.875 16.9478 3.875 15.8781V6.51939L9.955 2.16473C10.6435 1.6716 10.9878 1.42503 11.3659 1.32999C11.6996 1.24609 12.0504 1.24609 12.3841 1.32999C12.7622 1.42503 13.1065 1.6716 13.795 2.16473L19.875 6.51939V15.8781C19.875 16.9478 19.875 17.4826 19.657 17.8911C19.4653 18.2505 19.1593 18.5427 18.783 18.7258C18.3552 18.934 17.7951 18.934 16.675 18.934H14.875V11.8672C14.875 11.3324 14.875 11.065 14.766 10.8607C14.6701 10.681 14.5172 10.5349 14.329 10.4434C14.1151 10.3393 13.8351 10.3393 13.275 10.3393H10.475C9.91495 10.3393 9.63493 10.3393 9.42101 10.4434C9.23285 10.5349 9.07987 10.681 8.984 10.8607C8.875 11.065 8.875 11.3324 8.875 11.8672V18.934H7.075Z" stroke="#5358C7" stroke-width="2" stroke-linecap="round" stroke-linejoin="round"/>
</svg>
