<svg width="23" height="20" viewBox="0 0 23 20" fill="none" xmlns="http://www.w3.org/2000/svg">
<path d="M8.875 18.934V11.8672C8.875 11.3324 8.875 11.065 8.984 10.8607C9.07987 10.681 9.23285 10.5349 9.42101 10.4434C9.63493 10.3393 9.91495 10.3393 10.475 10.3393H13.275C13.8351 10.3393 14.1151 10.3393 14.329 10.4434C14.5172 10.5349 14.6701 10.681 14.766 10.8607C14.875 11.065 14.875 11.3324 14.875 11.8672V18.934M1.875 7.95185L10.915 1.47716C11.2593 1.23059 11.4314 1.1073 11.6204 1.05978C11.7873 1.01783 11.9627 1.01783 12.1296 1.05978C12.3186 1.1073 12.4907 1.23059 12.835 1.47716L21.875 7.95185M3.875 6.51939V15.8781C3.875 16.9478 3.875 17.4826 4.09299 17.8911C4.28474 18.2505 4.5907 18.5427 4.96702 18.7258C5.39485 18.934 5.9549 18.934 7.075 18.934H16.675C17.7951 18.934 18.3552 18.934 18.783 18.7258C19.1593 18.5427 19.4653 18.2505 19.657 17.8911C19.875 17.4826 19.875 16.9478 19.875 15.8781V6.51939L13.795 2.16473C13.1065 1.6716 12.7622 1.42503 12.3841 1.32999C12.0504 1.24609 11.6996 1.24609 11.3659 1.32999C10.9878 1.42503 10.6435 1.6716 9.955 2.16473L3.875 6.51939Z" stroke="#1C1C1C" stroke-width="2" stroke-linecap="round" stroke-linejoin="round"/>
</svg>
