<svg width="25" height="25" viewBox="0 0 25 25" fill="none" xmlns="http://www.w3.org/2000/svg">
<path d="M13.9 13.2963H11.1C10.54 13.2963 10.2599 13.2963 10.046 13.4004C9.85785 13.4919 9.70487 13.638 9.609 13.8177C9.5 14.022 9.5 14.2894 9.5 14.8243V21.891H7.7C6.5799 21.891 6.01985 21.891 5.59202 21.6828C5.2157 21.4997 4.90974 21.2076 4.71799 20.8482C4.5 20.4396 4.5 19.9048 4.5 18.8351V9.47642L10.58 5.12176L11.54 4.43419C11.8843 4.18762 12.0564 4.06434 12.2454 4.01681C12.4123 3.97486 12.5877 3.97486 12.7546 4.01681C12.9436 4.06434 13.1157 4.18762 13.46 4.43419L14.42 5.12176L20.5 9.47642V18.8351C20.5 19.9048 20.5 20.4396 20.282 20.8482C20.0903 21.2076 19.7843 21.4997 19.408 21.6828C18.9802 21.891 18.4201 21.891 17.3 21.891H15.5V14.8243C15.5 14.2894 15.5 14.022 15.391 13.8177C15.2951 13.638 15.1422 13.4919 14.954 13.4004C14.7401 13.2963 14.4601 13.2963 13.9 13.2963Z" fill="white"/>
<path d="M2.5 10.9089L11.54 4.43419C11.8843 4.18762 12.0564 4.06434 12.2454 4.01681C12.4123 3.97486 12.5877 3.97486 12.7546 4.01681C12.9436 4.06434 13.1157 4.18762 13.46 4.43419L22.5 10.9089M7.7 21.891C6.5799 21.891 6.01985 21.891 5.59202 21.6828C5.2157 21.4997 4.90974 21.2076 4.71799 20.8482C4.5 20.4396 4.5 19.9048 4.5 18.8351V9.47642L10.58 5.12176C11.2685 4.62863 11.6128 4.38206 11.9909 4.28702C12.3246 4.20312 12.6754 4.20312 13.0091 4.28702C13.3872 4.38206 13.7315 4.62863 14.42 5.12176L20.5 9.47642V18.8351C20.5 19.9048 20.5 20.4396 20.282 20.8482C20.0903 21.2076 19.7843 21.4997 19.408 21.6828C18.9802 21.891 18.4201 21.891 17.3 21.891H15.5V14.8243C15.5 14.2894 15.5 14.022 15.391 13.8177C15.2951 13.638 15.1422 13.4919 14.954 13.4004C14.7401 13.2963 14.4601 13.2963 13.9 13.2963H11.1C10.54 13.2963 10.2599 13.2963 10.046 13.4004C9.85785 13.4919 9.70487 13.638 9.609 13.8177C9.5 14.022 9.5 14.2894 9.5 14.8243V21.891H7.7Z" stroke="white" stroke-width="2" stroke-linecap="round" stroke-linejoin="round"/>
</svg>
