<svg width="20" height="21" viewBox="0 0 20 21" fill="none" xmlns="http://www.w3.org/2000/svg">
<path d="M19 7.09376L19 1.09376M19 1.09376H13M19 1.09376L10 10.0938M8 1.09375H5.8C4.11984 1.09375 3.27976 1.09375 2.63803 1.42073C2.07354 1.70835 1.6146 2.16729 1.32698 2.73178C1 3.37351 1 4.21359 1 5.89375V14.2937C1 15.9739 1 16.814 1.32698 17.4557C1.6146 18.0202 2.07354 18.4791 2.63803 18.7668C3.27976 19.0938 4.11984 19.0938 5.8 19.0938H14.2C15.8802 19.0938 16.7202 19.0938 17.362 18.7668C17.9265 18.4791 18.3854 18.0202 18.673 17.4557C19 16.814 19 15.9739 19 14.2937V12.0938" stroke="black" stroke-width="2" stroke-linecap="round" stroke-linejoin="round"/>
</svg>
