<svg width="21" height="21" viewBox="0 0 21 21" fill="none" xmlns="http://www.w3.org/2000/svg">
<path d="M19.875 7.69239L19.875 1.69239M19.875 1.69239H13.875M19.875 1.69239L10.875 10.6924M8.875 1.69238H6.675C4.99484 1.69238 4.15476 1.69238 3.51303 2.01936C2.94854 2.30698 2.4896 2.76593 2.20198 3.33041C1.875 3.97215 1.875 4.81223 1.875 6.49238V14.8924C1.875 16.5725 1.875 17.4126 2.20198 18.0544C2.4896 18.6188 2.94854 19.0778 3.51303 19.3654C4.15476 19.6924 4.99484 19.6924 6.675 19.6924H15.075C16.7552 19.6924 17.5952 19.6924 18.237 19.3654C18.8015 19.0778 19.2604 18.6188 19.548 18.0544C19.875 17.4126 19.875 16.5725 19.875 14.8924V12.6924" stroke="black" stroke-width="2" stroke-linecap="round" stroke-linejoin="round"/>
</svg>
