<svg width="40" height="41" viewBox="0 0 40 41" fill="none" xmlns="http://www.w3.org/2000/svg">
<rect y="0.682129" width="40" height="40" rx="8" fill="#F5F5F5"/>
<path d="M29 17.6821L29 11.6821M29 11.6821H23M29 11.6821L20 20.6821M18 11.6821H15.8C14.1198 11.6821 13.2798 11.6821 12.638 12.0091C12.0735 12.2967 11.6146 12.7557 11.327 13.3202C11 13.9619 11 14.802 11 16.4821V24.8821C11 26.5623 11 27.4024 11.327 28.0441C11.6146 28.6086 12.0735 29.0675 12.638 29.3551C13.2798 29.6821 14.1198 29.6821 15.8 29.6821H24.2C25.8802 29.6821 26.7202 29.6821 27.362 29.3551C27.9265 29.0675 28.3854 28.6086 28.673 28.0441C29 27.4024 29 26.5623 29 24.8821V22.6821" stroke="black" stroke-width="2" stroke-linecap="round" stroke-linejoin="round"/>
</svg>
