<svg width="16" height="18" viewBox="0 0 16 18" fill="none" xmlns="http://www.w3.org/2000/svg">
<path d="M12.1693 7.33333V5.66667C12.1693 3.36548 10.3038 1.5 8.0026 1.5C5.70142 1.5 3.83594 3.36548 3.83594 5.66667V7.33333M8.0026 11.0833V12.75M5.33594 16.5H10.6693C12.0694 16.5 12.7695 16.5 13.3042 16.2275C13.7747 15.9878 14.1571 15.6054 14.3968 15.135C14.6693 14.6002 14.6693 13.9001 14.6693 12.5V11.3333C14.6693 9.9332 14.6693 9.23314 14.3968 8.69836C14.1571 8.22795 13.7747 7.8455 13.3042 7.60582C12.7695 7.33333 12.0694 7.33333 10.6693 7.33333H5.33594C3.93581 7.33333 3.23574 7.33333 2.70096 7.60582C2.23056 7.8455 1.8481 8.22795 1.60842 8.69836C1.33594 9.23314 1.33594 9.9332 1.33594 11.3333V12.5C1.33594 13.9001 1.33594 14.6002 1.60842 15.135C1.8481 15.6054 2.23056 15.9878 2.70096 16.2275C3.23574 16.5 3.93581 16.5 5.33594 16.5Z" stroke="#1C1C1C" stroke-width="2" stroke-linecap="round" stroke-linejoin="round"/>
</svg>
