<svg width="19" height="16" viewBox="0 0 19 16" fill="none" xmlns="http://www.w3.org/2000/svg">
<path d="M17.414 13.1991L11.8783 8.19914M7.11644 8.19914L1.58076 13.1991M1.16406 4.03247L7.96816 8.79534C8.51914 9.18102 8.79463 9.37387 9.09428 9.44856C9.35898 9.51454 9.63582 9.51454 9.90051 9.44856C10.2002 9.37387 10.4757 9.18102 11.0266 8.79534L17.8307 4.03247M5.16406 14.8658H13.8307C15.2309 14.8658 15.9309 14.8658 16.4657 14.5933C16.9361 14.3536 17.3186 13.9712 17.5582 13.5008C17.8307 12.966 17.8307 12.2659 17.8307 10.8658V5.53247C17.8307 4.13234 17.8307 3.43227 17.5582 2.89749C17.3186 2.42709 16.9361 2.04464 16.4657 1.80495C15.9309 1.53247 15.2309 1.53247 13.8307 1.53247H5.16406C3.76393 1.53247 3.06387 1.53247 2.52909 1.80495C2.05868 2.04464 1.67623 2.42709 1.43655 2.89749C1.16406 3.43227 1.16406 4.13234 1.16406 5.53247V10.8658C1.16406 12.2659 1.16406 12.966 1.43655 13.5008C1.67623 13.9712 2.05868 14.3536 2.52909 14.5933C3.06387 14.8658 3.76393 14.8658 5.16406 14.8658Z" stroke="#5358C7" stroke-width="2" stroke-linecap="round" stroke-linejoin="round"/>
</svg>
