<svg width="22" height="22" viewBox="0 0 22 22" fill="none" xmlns="http://www.w3.org/2000/svg">
<path d="M1.21875 5.8C1.21875 4.11984 1.21875 3.27976 1.60704 2.63803C1.94859 2.07354 2.49358 1.6146 3.16391 1.32698C3.92597 1 4.92356 1 6.91875 1H14.5188C16.5139 1 17.5115 1 18.2736 1.32698C18.9439 1.6146 19.4889 2.07354 19.8305 2.63803C20.2187 3.27976 20.2188 4.11984 20.2188 5.8V16.2C20.2188 17.8802 20.2187 18.7202 19.8305 19.362C19.4889 19.9265 18.9439 20.3854 18.2736 20.673C17.5115 21 16.5139 21 14.5188 21H6.91875C4.92356 21 3.92597 21 3.16391 20.673C2.49358 20.3854 1.94859 19.9265 1.60704 19.362C1.21875 18.7202 1.21875 17.8802 1.21875 16.2V5.8Z" fill="white" stroke="white" stroke-width="2" stroke-linecap="round" stroke-linejoin="round"/>
</svg>
