<svg width="25" height="25" viewBox="0 0 25 25" fill="none" xmlns="http://www.w3.org/2000/svg">
<path d="M3.21875 7.8C3.21875 6.11984 3.21875 5.27976 3.60704 4.63803C3.94859 4.07354 4.49358 3.6146 5.16391 3.32698C5.92597 3 6.92356 3 8.91875 3H16.5187C18.5139 3 19.5115 3 20.2736 3.32698C20.9439 3.6146 21.4889 4.07354 21.8305 4.63803C22.2187 5.27976 22.2188 6.11984 22.2188 7.8V18.2C22.2188 19.8802 22.2187 20.7202 21.8305 21.362C21.4889 21.9265 20.9439 22.3854 20.2736 22.673C19.5115 23 18.5139 23 16.5187 23H8.91875C6.92356 23 5.92597 23 5.16391 22.673C4.49358 22.3854 3.94859 21.9265 3.60704 21.362C3.21875 20.7202 3.21875 19.8802 3.21875 18.2V7.8Z" stroke="black" stroke-width="2" stroke-linecap="round" stroke-linejoin="round"/>
<path d="M10.6289 10.2911L12.8107 8.89111V15.8911M10.9925 15.8911H14.6289" stroke="black" stroke-width="2" stroke-linecap="round" stroke-linejoin="round"/>
</svg>
