<svg width="24" height="25" viewBox="0 0 24 25" fill="none" xmlns="http://www.w3.org/2000/svg">
<mask id="mask0_798_23177" style="mask-type:alpha" maskUnits="userSpaceOnUse" x="0" y="0" width="24" height="25">
<circle cx="12" cy="12.3066" r="12" fill="#F9BB00"/>
</mask>
<g mask="url(#mask0_798_23177)">
<circle cx="12" cy="12.3066" r="12" fill="#747474"/>
<path d="M8.82528 17.3066V15.7555L12.4496 12.3997C12.7578 12.1014 13.0163 11.8329 13.2251 11.5943C13.4373 11.3556 13.598 11.122 13.7074 10.8933C13.8168 10.6613 13.8714 10.411 13.8714 10.1426C13.8714 9.84428 13.8035 9.58742 13.6676 9.37198C13.5317 9.15323 13.3461 8.98585 13.1108 8.86985C12.8755 8.75053 12.6087 8.69087 12.3104 8.69087C11.9988 8.69087 11.727 8.75385 11.495 8.87979C11.263 9.00574 11.084 9.18638 10.9581 9.4217C10.8321 9.65702 10.7692 9.93709 10.7692 10.2619H8.72585C8.72585 9.5957 8.87666 9.01734 9.17827 8.52681C9.47988 8.03628 9.90246 7.65678 10.446 7.38832C10.9896 7.11985 11.616 6.98562 12.3253 6.98562C13.0545 6.98562 13.6892 7.11488 14.2294 7.3734C14.773 7.62861 15.1955 7.98325 15.4972 8.43732C15.7988 8.89139 15.9496 9.41175 15.9496 9.9984C15.9496 10.3829 15.8733 10.7624 15.7209 11.1369C15.5717 11.5114 15.3049 11.9274 14.9205 12.3848C14.536 12.8388 13.9941 13.3841 13.2947 14.0204L11.8082 15.4771V15.5467H16.0838V17.3066H8.82528Z" fill="white"/>
<rect x="1" y="4.91406" width="9.47463" height="25.9186" transform="rotate(-46.8684 1 4.91406)" fill="white" fill-opacity="0.24"/>
</g>
</svg>
