<svg width="15" height="14" viewBox="0 0 15 14" fill="none" xmlns="http://www.w3.org/2000/svg">
<path d="M13.5069 6.93424C13.5069 10.0639 10.9699 12.6009 7.84024 12.6009C7.12239 12.6009 6.43572 12.4674 5.80368 12.2239C5.68812 12.1794 5.63035 12.1572 5.5844 12.1466C5.53921 12.1362 5.50649 12.1318 5.46015 12.13C5.41303 12.1282 5.36134 12.1336 5.25795 12.1443L1.84394 12.4972C1.51844 12.5308 1.3557 12.5476 1.25969 12.4891C1.17608 12.4381 1.11912 12.3529 1.10396 12.2561C1.08656 12.145 1.16433 12.001 1.31987 11.7131L2.41031 9.69479C2.50011 9.52857 2.54501 9.44546 2.56535 9.36554C2.58543 9.28662 2.59029 9.22971 2.58386 9.14853C2.57736 9.06633 2.54129 8.95932 2.46916 8.74532C2.27748 8.17664 2.17358 7.56757 2.17358 6.93424C2.17358 3.80463 4.71063 1.26758 7.84024 1.26758C10.9699 1.26758 13.5069 3.80463 13.5069 6.93424Z" stroke="#1C1C1C" stroke-width="1.5" stroke-linecap="round" stroke-linejoin="round"/>
</svg>
