<svg width="14" height="14" viewBox="0 0 14 14" fill="none" xmlns="http://www.w3.org/2000/svg">
<path d="M4.36675 12.467V6.16016M1.5 7.30686V11.3203C1.5 11.9536 2.0134 12.467 2.6467 12.467H10.3447C11.1936 12.467 11.9156 11.8476 12.0447 11.0085L12.6622 6.99506C12.8225 5.95312 12.0163 5.01346 10.9621 5.01346H8.95356C8.63691 5.01346 8.38021 4.75676 8.38021 4.44011V2.41379C8.38021 1.63298 7.74724 1 6.96642 1C6.78018 1 6.61141 1.10968 6.53577 1.27987L4.51808 5.81967C4.42606 6.02672 4.22073 6.16016 3.99415 6.16016H2.6467C2.0134 6.16016 1.5 6.67356 1.5 7.30686Z" stroke="#1C1C1C" stroke-width="1.5" stroke-linecap="round" stroke-linejoin="round"/>
</svg>
