<svg width="14" height="14" viewBox="0 0 14 14" fill="none" xmlns="http://www.w3.org/2000/svg">
<path d="M13.1562 4.93409L13.1562 0.934088M13.1562 0.934088H9.15624M13.1562 0.934088L7.15625 6.93408M5.82292 0.934082H4.35625C3.23615 0.934082 2.67609 0.934082 2.24827 1.15207C1.87194 1.34382 1.56598 1.64978 1.37424 2.0261C1.15625 2.45392 1.15625 3.01398 1.15625 4.13408V9.73408C1.15625 10.8542 1.15625 11.4142 1.37424 11.8421C1.56598 12.2184 1.87194 12.5243 2.24827 12.7161C2.67609 12.9341 3.23614 12.9341 4.35625 12.9341H9.95625C11.0764 12.9341 11.6364 12.9341 12.0642 12.7161C12.4406 12.5243 12.7465 12.2184 12.9383 11.8421C13.1563 11.4142 13.1563 10.8542 13.1563 9.73408V8.26742" stroke="black" stroke-width="1.5" stroke-linecap="round" stroke-linejoin="round"/>
</svg>
