<svg width="15" height="14" viewBox="0 0 15 14" fill="none" xmlns="http://www.w3.org/2000/svg">
<path d="M6.68062 1.56987C6.83428 1.25858 6.91111 1.10293 7.01541 1.0532C7.10615 1.00994 7.21158 1.00994 7.30232 1.0532C7.40662 1.10293 7.48345 1.25858 7.63711 1.56987L9.09489 4.52318C9.14026 4.61508 9.16294 4.66103 9.19609 4.69671C9.22544 4.7283 9.26063 4.75389 9.29973 4.77207C9.34389 4.79261 9.39459 4.80002 9.496 4.81484L12.7568 5.29146C13.1002 5.34165 13.2719 5.36675 13.3514 5.45062C13.4205 5.52359 13.453 5.62386 13.4399 5.72351C13.4247 5.83805 13.3004 5.95911 13.0518 6.20125L10.6932 8.49861C10.6196 8.57022 10.5829 8.60603 10.5591 8.64863C10.5381 8.68636 10.5247 8.7278 10.5195 8.77066C10.5136 8.81907 10.5223 8.86966 10.5396 8.97082L11.0962 12.2157C11.1549 12.558 11.1842 12.7291 11.1291 12.8307C11.0811 12.919 10.9958 12.981 10.8969 12.9993C10.7833 13.0204 10.6296 12.9396 10.3223 12.7779L7.40711 11.2449C7.31628 11.1971 7.27086 11.1732 7.22302 11.1638C7.18065 11.1555 7.13708 11.1555 7.09472 11.1638C7.04687 11.1732 7.00145 11.1971 6.91063 11.2449L3.99547 12.7779C3.68813 12.9396 3.53446 13.0204 3.42084 12.9993C3.32198 12.981 3.23667 12.919 3.18868 12.8307C3.13352 12.7291 3.16287 12.558 3.22157 12.2157L3.77811 8.97082C3.79546 8.86966 3.80414 8.81907 3.79827 8.77066C3.79307 8.7278 3.7796 8.68636 3.75859 8.64863C3.73487 8.60603 3.69811 8.57022 3.62458 8.4986L1.26589 6.20125C1.0173 5.95911 0.892997 5.83805 0.877872 5.72351C0.864712 5.62386 0.897223 5.52359 0.966355 5.45062C1.04581 5.36675 1.2175 5.34165 1.56088 5.29146L4.82173 4.81484C4.92314 4.80002 4.97384 4.79261 5.018 4.77207C5.0571 4.75389 5.0923 4.7283 5.12164 4.69671C5.15479 4.66103 5.17747 4.61508 5.22284 4.52318L6.68062 1.56987Z" stroke="#1C1C1C" stroke-width="1.5" stroke-linecap="round" stroke-linejoin="round"/>
</svg>
