<svg width="20" height="19" viewBox="0 0 20 19" fill="none" xmlns="http://www.w3.org/2000/svg">
<path d="M8.99124 1.22646C9.41267 0.400675 10.5926 0.400673 11.014 1.22645L13.1507 5.41335C13.3157 5.73665 13.6253 5.96159 13.9838 6.0186L18.626 6.75691C19.5416 6.90253 19.9063 8.02471 19.2511 8.68069L15.9294 12.0066C15.6729 12.2635 15.5547 12.6274 15.6112 12.986L16.3436 17.6292C16.488 18.5449 15.5334 19.2385 14.7071 18.8181L10.5175 16.6868C10.194 16.5222 9.81129 16.5222 9.48779 16.6868L5.29815 18.8181C4.47183 19.2385 3.51724 18.5449 3.66168 17.6292L4.39404 12.986C4.45059 12.6274 4.33234 12.2635 4.07585 12.0066L0.754153 8.68069C0.0990157 8.02471 0.463635 6.90253 1.37923 6.75691L6.02148 6.0186C6.37994 5.96159 6.68954 5.73665 6.85453 5.41335L8.99124 1.22646Z" fill="#F9BB00"/>
</svg>
