<svg width="25" height="25" viewBox="0 0 25 25" fill="none" xmlns="http://www.w3.org/2000/svg">
<path d="M11.5639 4.34443C11.7944 3.87749 11.9096 3.64402 12.0661 3.56943C12.2022 3.50453 12.3603 3.50453 12.4965 3.56943C12.6529 3.64402 12.7681 3.87749 12.9986 4.34443L15.1853 8.7744C15.2534 8.91225 15.2874 8.98117 15.3371 9.03469C15.3811 9.08207 15.4339 9.12046 15.4926 9.14773C15.5588 9.17854 15.6349 9.18965 15.787 9.21189L20.6782 9.92682C21.1933 10.0021 21.4508 10.0397 21.57 10.1655C21.6737 10.275 21.7225 10.4254 21.7028 10.5749C21.6801 10.7467 21.4936 10.9283 21.1207 11.2915L17.5827 14.7375C17.4724 14.845 17.4173 14.8987 17.3817 14.9626C17.3502 15.0192 17.33 15.0813 17.3222 15.1456C17.3134 15.2182 17.3264 15.2941 17.3524 15.4459L18.1872 20.3132C18.2753 20.8266 18.3193 21.0833 18.2365 21.2356C18.1646 21.3681 18.0366 21.4611 17.8883 21.4886C17.7179 21.5202 17.4874 21.399 17.0264 21.1565L12.6536 18.8569C12.5174 18.7853 12.4493 18.7495 12.3775 18.7354C12.3139 18.7229 12.2486 18.7229 12.185 18.7354C12.1133 18.7495 12.0452 18.7853 11.9089 18.8569L7.53617 21.1565C7.07517 21.399 6.84466 21.5202 6.67422 21.4886C6.52593 21.4611 6.39797 21.3681 6.32599 21.2356C6.24325 21.0833 6.28728 20.8266 6.37532 20.3132L7.21014 15.4459C7.23616 15.2941 7.24918 15.2182 7.24037 15.1456C7.23257 15.0813 7.21236 15.0192 7.18086 14.9626C7.14527 14.8987 7.09013 14.845 6.97984 14.7375L3.44181 11.2915C3.06891 10.9283 2.88246 10.7467 2.85978 10.5749C2.84004 10.4254 2.8888 10.275 2.9925 10.1655C3.11169 10.0397 3.36922 10.0021 3.88429 9.92682L8.77556 9.21189C8.92767 9.18965 9.00373 9.17854 9.06997 9.14773C9.12861 9.12046 9.18141 9.08207 9.22544 9.03469C9.27516 8.98117 9.30918 8.91225 9.37722 8.7744L11.5639 4.34443Z" stroke="white" stroke-width="2" stroke-linecap="round" stroke-linejoin="round"/>
</svg>
