<svg width="22" height="21" viewBox="0 0 22 21" fill="none" xmlns="http://www.w3.org/2000/svg">
<path d="M10.1537 2.3874C10.3842 1.92046 10.4995 1.68699 10.6559 1.6124C10.792 1.5475 10.9502 1.5475 11.0863 1.6124C11.2427 1.68699 11.358 1.92046 11.5885 2.3874L13.7752 6.81737C13.8432 6.95522 13.8772 7.02414 13.9269 7.07766C13.971 7.12504 14.0238 7.16343 14.0824 7.1907C14.1486 7.22151 14.2247 7.23262 14.3768 7.25486L19.2681 7.96979C19.7832 8.04507 20.0407 8.08272 20.1599 8.20852C20.2636 8.31797 20.3123 8.46838 20.2926 8.61786C20.2699 8.78966 20.0835 8.97126 19.7106 9.33446L16.1725 12.7805C16.0623 12.8879 16.0071 12.9416 15.9715 13.0055C15.94 13.0621 15.9198 13.1243 15.912 13.1886C15.9032 13.2612 15.9162 13.3371 15.9422 13.4888L16.7771 18.3562C16.8651 18.8696 16.9091 19.1263 16.8264 19.2786C16.7544 19.4111 16.6264 19.5041 16.4782 19.5316C16.3077 19.5632 16.0772 19.4419 15.6162 19.1995L11.2435 16.8999C11.1072 16.8283 11.0391 16.7924 10.9673 16.7784C10.9038 16.7659 10.8384 16.7659 10.7749 16.7784C10.7031 16.7924 10.635 16.8283 10.4987 16.8999L6.12602 19.1995C5.66501 19.4419 5.43451 19.5632 5.26407 19.5316C5.11578 19.5041 4.98782 19.4111 4.91583 19.2786C4.83309 19.1263 4.87712 18.8696 4.96517 18.3562L5.79998 13.4888C5.82601 13.3371 5.83902 13.2612 5.83021 13.1886C5.82242 13.1243 5.80221 13.0621 5.7707 13.0055C5.73512 12.9416 5.67997 12.8879 5.56968 12.7805L2.03165 9.33446C1.65876 8.97126 1.47231 8.78966 1.44962 8.61786C1.42988 8.46838 1.47865 8.31797 1.58234 8.20852C1.70153 8.08272 1.95907 8.04507 2.47414 7.96979L7.3654 7.25486C7.51752 7.23262 7.59357 7.22151 7.65981 7.1907C7.71846 7.16343 7.77126 7.12504 7.81528 7.07766C7.865 7.02414 7.89902 6.95522 7.96707 6.81737L10.1537 2.3874Z" stroke="#1C1C1C" stroke-width="2" stroke-linecap="round" stroke-linejoin="round"/>
</svg>
