<svg width="31" height="29" viewBox="0 0 31 29" fill="none" xmlns="http://www.w3.org/2000/svg">
<path d="M16.6371 1.31055C16.0029 0.256692 14.475 0.256689 13.8408 1.31054L9.9729 7.73764C9.74506 8.11624 9.37341 8.38626 8.94294 8.48596L1.63516 10.1785C0.436903 10.456 -0.0352325 11.909 0.771055 12.8379L5.68835 18.5025C5.97801 18.8362 6.11996 19.2731 6.08176 19.7133L5.43319 27.1865C5.32685 28.4118 6.5629 29.3099 7.69544 28.8301L14.6024 25.9039C15.0092 25.7316 15.4686 25.7316 15.8755 25.9039L22.7824 28.8301C23.915 29.3099 25.151 28.4118 25.0447 27.1865L24.3961 19.7133C24.3579 19.2731 24.4999 18.8362 24.7895 18.5025L29.7068 12.8379C30.5131 11.909 30.041 10.456 28.8427 10.1785L21.5349 8.48596C21.1045 8.38626 20.7328 8.11624 20.505 7.73765L16.6371 1.31055Z" fill="#E9E9E9"/>
</svg>
