<svg width="23" height="23" viewBox="0 0 23 23" fill="none" xmlns="http://www.w3.org/2000/svg">
<path d="M5.96936 11.1629C5.90721 10.7623 5.87496 10.3519 5.87496 9.93408C5.87496 5.5158 9.48025 1.93408 13.9276 1.93408C18.3749 1.93408 21.9802 5.5158 21.9802 9.93408C21.9802 10.9322 21.7963 11.8875 21.4602 12.7686C21.3904 12.9516 21.3554 13.0431 21.3396 13.1145C21.3239 13.1853 21.3178 13.2351 21.3161 13.3075C21.3144 13.3807 21.3243 13.4613 21.3442 13.6224L21.7467 16.8926C21.7903 17.2466 21.8121 17.4236 21.7532 17.5523C21.7016 17.6651 21.61 17.7546 21.4961 17.8036C21.3661 17.8595 21.1896 17.8336 20.8367 17.7819L17.6515 17.315C17.4851 17.2906 17.402 17.2784 17.3262 17.2789C17.2513 17.2793 17.1995 17.2848 17.1261 17.3002C17.052 17.3158 16.9573 17.3513 16.768 17.4222C15.8847 17.7531 14.9274 17.9341 13.9276 17.9341C13.5094 17.9341 13.0987 17.9024 12.6977 17.8414M7.50658 21.9341C10.4715 21.9341 12.875 19.4716 12.875 16.4341C12.875 13.3965 10.4715 10.9341 7.50658 10.9341C4.54168 10.9341 2.13816 13.3965 2.13816 16.4341C2.13816 17.0447 2.23528 17.632 2.41455 18.1808C2.49033 18.4128 2.52822 18.5288 2.54066 18.608C2.55364 18.6907 2.55591 18.7372 2.55108 18.8208C2.54645 18.9009 2.52641 18.9914 2.48634 19.1724L1.875 21.9341L4.8698 21.5251C5.03327 21.5028 5.115 21.4916 5.18637 21.4921C5.26152 21.4926 5.30141 21.4967 5.37511 21.5114C5.4451 21.5253 5.54916 21.562 5.75727 21.6355C6.30559 21.829 6.89411 21.9341 7.50658 21.9341Z" stroke="#1C1C1C" stroke-width="2" stroke-linecap="round" stroke-linejoin="round"/>
</svg>
