<svg width="23" height="23" viewBox="0 0 23 23" fill="none" xmlns="http://www.w3.org/2000/svg">
<path d="M5.06246 9.89111C5.06246 5.47284 8.66775 1.89111 13.1151 1.89111C17.5624 1.89111 21.1677 5.47284 21.1677 9.89111C21.1677 10.8892 20.9838 11.8446 20.6477 12.7256L20.6476 12.7257C20.5778 12.9086 20.5429 13.0001 20.5271 13.0715C20.5114 13.1423 20.5053 13.1921 20.5036 13.2646C20.5019 13.3377 20.5118 13.4183 20.5317 13.5794L20.5317 13.5794L20.9342 16.8496C20.9778 17.2036 20.9996 17.3806 20.9407 17.5093C20.8891 17.6221 20.7975 17.7116 20.6836 17.7606C20.5536 17.8165 20.3771 17.7907 20.0242 17.7389L16.839 17.272C16.6726 17.2476 16.5895 17.2355 16.5137 17.2359C16.4388 17.2363 16.387 17.2418 16.3136 17.2573C16.2395 17.2728 16.1448 17.3083 15.9555 17.3792C15.0722 17.7101 14.1149 17.8911 13.1151 17.8911C12.8008 17.8911 12.4908 17.8732 12.1859 17.8384C12.1482 17.8341 12.0263 17.8212 11.8832 17.806C11.2738 20.1579 9.18151 21.8911 6.69408 21.8911C6.08161 21.8911 5.49309 21.786 4.94477 21.5925C4.73666 21.5191 4.6326 21.4823 4.56261 21.4684C4.48891 21.4537 4.44902 21.4496 4.37387 21.4491C4.3025 21.4486 4.22077 21.4598 4.0573 21.4821L1.0625 21.8911L1.67384 19.1294C1.71391 18.9484 1.73395 18.8579 1.73858 18.7778C1.74341 18.6942 1.74114 18.6478 1.72816 18.5651C1.71572 18.4858 1.67783 18.3698 1.60205 18.1378C1.42278 17.5891 1.32566 17.0017 1.32566 16.3911C1.32566 13.9265 2.90798 11.8405 5.08861 11.1413C5.09229 10.957 5.10621 10.7371 5.09624 10.6288C5.07388 10.3859 5.06246 10.1398 5.06246 9.89111Z" fill="white"/>
<path d="M5.09624 11.381C5.07108 11.2188 5.11144 10.794 5.09624 10.6288C5.07388 10.3859 5.06246 10.1398 5.06246 9.89111C5.06246 5.47284 8.66775 1.89111 13.1151 1.89111C17.5624 1.89111 21.1677 5.47284 21.1677 9.89111C21.1677 10.8892 20.9838 11.8446 20.6477 12.7256C20.5779 12.9086 20.5429 13.0001 20.5271 13.0715C20.5114 13.1423 20.5053 13.1921 20.5036 13.2646C20.5019 13.3377 20.5118 13.4183 20.5317 13.5794L20.9342 16.8496C20.9778 17.2036 20.9996 17.3806 20.9407 17.5093C20.8891 17.6221 20.7975 17.7116 20.6836 17.7606C20.5536 17.8165 20.3771 17.7907 20.0242 17.7389L16.839 17.272C16.6726 17.2476 16.5895 17.2355 16.5137 17.2359C16.4388 17.2363 16.387 17.2418 16.3136 17.2573C16.2395 17.2728 16.1448 17.3083 15.9555 17.3792C15.0722 17.7101 14.1149 17.8911 13.1151 17.8911C12.8008 17.8911 12.4908 17.8732 12.1859 17.8384C12.0851 17.8269 11.3827 17.7541 11.283 17.7389M12.0625 16.3911C12.0625 19.4287 9.65898 21.8911 6.69408 21.8911C6.08161 21.8911 5.49309 21.786 4.94477 21.5925C4.73666 21.5191 4.6326 21.4823 4.56261 21.4684C4.48891 21.4537 4.44902 21.4496 4.37387 21.4491C4.3025 21.4486 4.22077 21.4598 4.0573 21.4821L1.0625 21.8911L1.67384 19.1294C1.71391 18.9484 1.73395 18.8579 1.73858 18.7778C1.74341 18.6942 1.74114 18.6478 1.72816 18.5651C1.71572 18.4858 1.67783 18.3698 1.60205 18.1378C1.42278 17.5891 1.32566 17.0017 1.32566 16.3911C1.32566 13.3535 3.72918 10.8911 6.69408 10.8911" stroke="white" stroke-width="2" stroke-linecap="round" stroke-linejoin="round"/>
</svg>
