<svg width="23" height="23" viewBox="0 0 23 23" fill="none" xmlns="http://www.w3.org/2000/svg">
<path d="M5.87496 9.93408C5.87496 5.5158 9.48025 1.93408 13.9276 1.93408C18.3749 1.93408 21.9802 5.5158 21.9802 9.93408C21.9802 10.9322 21.7963 11.8875 21.4602 12.7686L21.4601 12.7686C21.3903 12.9516 21.3554 13.0431 21.3396 13.1145C21.3239 13.1853 21.3178 13.2351 21.3161 13.3075C21.3144 13.3807 21.3243 13.4612 21.3442 13.6224L21.3442 13.6224L21.7467 16.8926C21.7903 17.2466 21.8121 17.4236 21.7532 17.5523C21.7016 17.6651 21.61 17.7546 21.4961 17.8036C21.3661 17.8595 21.1896 17.8336 20.8367 17.7819L17.6515 17.315C17.4851 17.2906 17.402 17.2784 17.3262 17.2789C17.2513 17.2793 17.1995 17.2848 17.1261 17.3002C17.052 17.3158 16.9573 17.3513 16.768 17.4222C15.8847 17.7531 14.9274 17.9341 13.9276 17.9341C13.6133 17.9341 13.3033 17.9162 12.9984 17.8814C12.9607 17.8771 12.8388 17.8642 12.6957 17.849C12.0863 20.2009 9.99401 21.9341 7.50658 21.9341C6.89411 21.9341 6.30559 21.829 5.75727 21.6355C5.54916 21.562 5.4451 21.5253 5.37511 21.5114C5.30141 21.4967 5.26152 21.4926 5.18637 21.4921C5.115 21.4916 5.03327 21.5028 4.8698 21.5251L1.875 21.9341L2.48634 19.1724C2.52641 18.9914 2.54645 18.9009 2.55108 18.8208C2.55591 18.7372 2.55364 18.6907 2.54066 18.608C2.52822 18.5288 2.49033 18.4128 2.41455 18.1808C2.23528 17.632 2.13816 17.0447 2.13816 16.4341C2.13816 13.9695 3.72048 11.8835 5.90111 11.1842C5.90479 10.9999 5.91871 10.7801 5.90874 10.6717C5.88638 10.4288 5.87496 10.1828 5.87496 9.93408Z" fill="#5358C7"/>
<path d="M5.90874 11.424C5.88358 11.2618 5.92394 10.837 5.90874 10.6717C5.88638 10.4288 5.87496 10.1828 5.87496 9.93408C5.87496 5.5158 9.48025 1.93408 13.9276 1.93408C18.3749 1.93408 21.9802 5.5158 21.9802 9.93408C21.9802 10.9322 21.7963 11.8875 21.4602 12.7686C21.3904 12.9516 21.3554 13.0431 21.3396 13.1145C21.3239 13.1853 21.3178 13.2351 21.3161 13.3075C21.3144 13.3807 21.3243 13.4613 21.3442 13.6224L21.7467 16.8926C21.7903 17.2466 21.8121 17.4236 21.7532 17.5523C21.7016 17.6651 21.61 17.7546 21.4961 17.8036C21.3661 17.8595 21.1896 17.8336 20.8367 17.7819L17.6515 17.315C17.4851 17.2906 17.402 17.2784 17.3262 17.2789C17.2513 17.2793 17.1995 17.2848 17.1261 17.3002C17.052 17.3158 16.9573 17.3513 16.768 17.4222C15.8847 17.7531 14.9274 17.9341 13.9276 17.9341C13.6133 17.9341 13.3033 17.9162 12.9984 17.8814C12.8976 17.8699 12.1952 17.7971 12.0955 17.7819M12.875 16.4341C12.875 19.4716 10.4715 21.9341 7.50658 21.9341C6.89411 21.9341 6.30559 21.829 5.75727 21.6355C5.54916 21.562 5.4451 21.5253 5.37511 21.5114C5.30141 21.4967 5.26152 21.4926 5.18637 21.4921C5.115 21.4916 5.03327 21.5028 4.8698 21.5251L1.875 21.9341L2.48634 19.1724C2.52641 18.9914 2.54645 18.9009 2.55108 18.8208C2.55591 18.7372 2.55364 18.6907 2.54066 18.608C2.52822 18.5288 2.49033 18.4128 2.41455 18.1808C2.23528 17.632 2.13816 17.0447 2.13816 16.4341C2.13816 13.3965 4.54168 10.9341 7.50658 10.9341" stroke="#5358C7" stroke-width="2" stroke-linecap="round" stroke-linejoin="round"/>
</svg>
