<svg width="24" height="25" viewBox="0 0 24 25" fill="none" xmlns="http://www.w3.org/2000/svg">
<mask id="mask0_798_23192" style="mask-type:alpha" maskUnits="userSpaceOnUse" x="0" y="0" width="24" height="25">
<circle cx="12" cy="12.3066" r="12" fill="#F9BB00"/>
</mask>
<g mask="url(#mask0_798_23192)">
<circle cx="12" cy="12.3066" r="12" fill="#D19C15"/>
<path d="M12.5888 17.4458C11.8464 17.4458 11.1851 17.3182 10.6051 17.063C10.0284 16.8045 9.57268 16.4499 9.23793 15.9991C8.90649 15.545 8.7358 15.0214 8.72585 14.4281H10.8935C10.9067 14.6767 10.9879 14.8954 11.1371 15.0843C11.2895 15.2699 11.4917 15.4141 11.7436 15.5169C11.9955 15.6196 12.2789 15.671 12.5938 15.671C12.9219 15.671 13.2119 15.613 13.4638 15.497C13.7157 15.381 13.9129 15.2202 14.0554 15.0147C14.1979 14.8092 14.2692 14.5723 14.2692 14.3038C14.2692 14.032 14.1929 13.7917 14.0405 13.5829C13.8913 13.3708 13.6759 13.2051 13.3942 13.0858C13.1158 12.9664 12.7843 12.9068 12.3999 12.9068H11.4503V11.3258H12.3999C12.7247 11.3258 13.0114 11.2695 13.2599 11.1568C13.5118 11.0441 13.7074 10.8883 13.8466 10.6895C13.9858 10.4873 14.0554 10.252 14.0554 9.98349C14.0554 9.72828 13.9941 9.50456 13.8714 9.31232C13.7521 9.11677 13.5831 8.96431 13.3643 8.85494C13.1489 8.74556 12.897 8.69087 12.6087 8.69087C12.317 8.69087 12.0502 8.7439 11.8082 8.84996C11.5663 8.95271 11.3724 9.1002 11.2266 9.29244C11.0807 9.48467 11.0028 9.71005 10.9929 9.96857H8.92969C8.93963 9.38192 9.10701 8.86488 9.43182 8.41744C9.75663 7.96999 10.1941 7.62032 10.7443 7.36843C11.2978 7.11322 11.9226 6.98562 12.6186 6.98562C13.3213 6.98562 13.9361 7.11322 14.4631 7.36843C14.9901 7.62364 15.3994 7.96834 15.6911 8.40252C15.986 8.83339 16.1319 9.31729 16.1286 9.85423C16.1319 10.4243 15.9545 10.8999 15.5966 11.2811C15.242 11.6622 14.7796 11.9042 14.2095 12.0069V12.0865C14.9586 12.1826 15.5286 12.4428 15.9197 12.867C16.3142 13.2879 16.5097 13.8149 16.5064 14.448C16.5097 15.028 16.3423 15.5434 16.0043 15.9941C15.6695 16.4449 15.2071 16.7995 14.6172 17.0581C14.0272 17.3166 13.3511 17.4458 12.5888 17.4458Z" fill="white"/>
<rect x="1" y="4.91406" width="9.47463" height="25.9186" transform="rotate(-46.8684 1 4.91406)" fill="white" fill-opacity="0.24"/>
</g>
</svg>
