<svg width="32" height="32" viewBox="0 0 32 32" fill="none" xmlns="http://www.w3.org/2000/svg">
<rect width="32" height="32" rx="16" fill="#4B4FB3"/>
<path d="M12.7122 15.5706C12.6776 15.3477 12.6597 15.1193 12.6597 14.8867C12.6597 12.4279 14.6661 10.4346 17.1411 10.4346C19.6162 10.4346 21.6226 12.4279 21.6226 14.8867C21.6226 15.4422 21.5202 15.9739 21.3332 16.4642C21.2943 16.566 21.2749 16.617 21.2661 16.6567C21.2573 16.6961 21.254 16.7238 21.253 16.7641C21.252 16.8049 21.2576 16.8497 21.2686 16.9394L21.4927 18.7593C21.5169 18.9563 21.529 19.0548 21.4963 19.1265C21.4675 19.1892 21.4165 19.239 21.3532 19.2663C21.2808 19.2974 21.1826 19.283 20.9862 19.2542L19.2135 18.9944C19.121 18.9808 19.0747 18.974 19.0325 18.9743C18.9908 18.9745 18.962 18.9776 18.9212 18.9862C18.8799 18.9948 18.8272 19.0146 18.7219 19.054C18.2303 19.2382 17.6975 19.3389 17.1411 19.3389C16.9084 19.3389 16.6798 19.3213 16.4566 19.2873M13.5677 21.565C15.2177 21.565 16.5553 20.1946 16.5553 18.5041C16.5553 16.8137 15.2177 15.4433 13.5677 15.4433C11.9177 15.4433 10.58 16.8137 10.58 18.5041C10.58 18.8439 10.6341 19.1708 10.7339 19.4762C10.776 19.6053 10.7971 19.6699 10.804 19.714C10.8113 19.76 10.8125 19.7859 10.8098 19.8324C10.8073 19.877 10.7961 19.9273 10.7738 20.0281L10.4336 21.565L12.1003 21.3374C12.1912 21.325 12.2367 21.3188 12.2764 21.319C12.3183 21.3193 12.3405 21.3216 12.3815 21.3297C12.4204 21.3375 12.4783 21.358 12.5942 21.3988C12.8993 21.5065 13.2268 21.565 13.5677 21.565Z" stroke="white" stroke-width="1.11304" stroke-linecap="round" stroke-linejoin="round"/>
</svg>
