<svg width="32" height="32" viewBox="0 0 32 32" fill="none" xmlns="http://www.w3.org/2000/svg">
<rect width="32" height="32" rx="16" fill="#4B4FB3"/>
<path d="M15.9988 21.0086L15.9431 20.9251C15.5565 20.3452 15.3633 20.0553 15.1079 19.8454C14.8818 19.6595 14.6213 19.5201 14.3413 19.4351C14.025 19.339 13.6765 19.339 12.9796 19.339H12.2145C11.5911 19.339 11.2794 19.339 11.0413 19.2177C10.8319 19.111 10.6616 18.9407 10.5549 18.7313C10.4336 18.4932 10.4336 18.1815 10.4336 17.5582V12.7721C10.4336 12.1487 10.4336 11.837 10.5549 11.5989C10.6616 11.3895 10.8319 11.2192 11.0413 11.1125C11.2794 10.9912 11.5911 10.9912 12.2145 10.9912H12.4371C13.6838 10.9912 14.3072 10.9912 14.7833 11.2338C15.2022 11.4473 15.5428 11.7878 15.7562 12.2067C15.9988 12.6829 15.9988 13.3062 15.9988 14.5529M15.9988 21.0086V14.5529M15.9988 21.0086L16.0545 20.9251C16.4411 20.3452 16.6344 20.0553 16.8897 19.8454C17.1158 19.6595 17.3763 19.5201 17.6564 19.4351C17.9727 19.339 18.3211 19.339 19.018 19.339H19.7832C20.4065 19.339 20.7182 19.339 20.9563 19.2177C21.1657 19.111 21.336 18.9407 21.4427 18.7313C21.564 18.4932 21.564 18.1815 21.564 17.5582V12.7721C21.564 12.1487 21.564 11.837 21.4427 11.5989C21.336 11.3895 21.1657 11.2192 20.9563 11.1125C20.7182 10.9912 20.4065 10.9912 19.7832 10.9912H19.5605C18.3138 10.9912 17.6905 10.9912 17.2143 11.2338C16.7954 11.4473 16.4549 11.7878 16.2414 12.2067C15.9988 12.6829 15.9988 13.3062 15.9988 14.5529" stroke="white" stroke-width="1.11304" stroke-linecap="round" stroke-linejoin="round"/>
</svg>
